<?xml version="1.0" encoding="UTF-8" standalone="no"?>
<svg
   version="1.1"
   stroke-linecap="round"
   stroke-linejoin="round"
   stroke-width="0"
   fill-rule="evenodd"
   width="107.28407mm"
   height="86.913956mm"
   viewBox="21754.999 -108391.57 107284.07 86913.953"
   id="iVnoP-Y2YCTeQW9BfDdm"
   sodipodi:docname="sweepv2-left-tenting.svg"
   inkscape:version="1.3.2 (091e20e, 2023-11-25)"
   xmlns:inkscape="http://www.inkscape.org/namespaces/inkscape"
   xmlns:sodipodi="http://sodipodi.sourceforge.net/DTD/sodipodi-0.dtd"
   xmlns:xlink="http://www.w3.org/1999/xlink"
   xmlns="http://www.w3.org/2000/svg"
   xmlns:svg="http://www.w3.org/2000/svg">
  <sodipodi:namedview
     id="namedview348"
     pagecolor="#ffffff"
     bordercolor="#000000"
     borderopacity="0.25"
     inkscape:showpageshadow="2"
     inkscape:pageopacity="0.0"
     inkscape:pagecheckerboard="0"
     inkscape:deskcolor="#d1d1d1"
     inkscape:document-units="mm"
     inkscape:zoom="1.1658244"
     inkscape:cx="147.96396"
     inkscape:cy="178.8434"
     inkscape:window-width="1704"
     inkscape:window-height="1028"
     inkscape:window-x="6"
     inkscape:window-y="50"
     inkscape:window-maximized="0"
     inkscape:current-layer="iVnoP-Y2YCTeQW9BfDdm"
     showguides="true" />
  <defs
     id="defs1">
    <circle
       cx="0"
       cy="0"
       r="1714.5"
       id="iVnoP-Y2YCTeQW9BfDdm_pad-11" />
    <circle
       cx="0"
       cy="0"
       r="850.90002"
       id="iVnoP-Y2YCTeQW9BfDdm_pad-12" />
    <circle
       cx="0"
       cy="0"
       r="495.29999"
       id="iVnoP-Y2YCTeQW9BfDdm_pad-13" />
    <circle
       cx="0"
       cy="0"
       r="1141"
       id="iVnoP-Y2YCTeQW9BfDdm_pad-14" />
    <circle
       cx="0"
       cy="0"
       r="250"
       id="iVnoP-Y2YCTeQW9BfDdm_pad-15" />
    <circle
       cx="0"
       cy="0"
       r="762"
       id="iVnoP-Y2YCTeQW9BfDdm_pad-16" />
    <rect
       x="-1000"
       y="-800"
       width="2000"
       height="1600"
       rx="800"
       ry="800"
       id="iVnoP-Y2YCTeQW9BfDdm_pad-17" />
    <circle
       cx="0"
       cy="0"
       r="400"
       id="iVnoP-Y2YCTeQW9BfDdm_pad-18" />
    <circle
       cx="0"
       cy="0"
       r="500"
       id="iVnoP-Y2YCTeQW9BfDdm_pad-19" />
    <rect
       x="-450"
       y="-625"
       width="900"
       height="1250"
       id="iVnoP-Y2YCTeQW9BfDdm_pad-20" />
    <rect
       x="-450"
       y="-450"
       width="900"
       height="900"
       id="iVnoP-Y2YCTeQW9BfDdm_pad-21" />
    <circle
       cx="0"
       cy="0"
       r="2200"
       id="iVnoP-Y2YCTeQW9BfDdm_pad-22" />
    <circle
       cx="0"
       cy="0"
       r="698.5"
       id="iVnoP-Y2YCTeQW9BfDdm_pad-23" />
    <inkscape:path-effect
       effect="fill_between_many"
       method="originald"
       linkedpaths="#use283,0,1"
       id="path-effect348"
       is_visible="true"
       lpeversion="0"
       join="true"
       close="true"
       autoreverse="true" />
    <inkscape:path-effect
       effect="fill_between_many"
       method="originald"
       linkedpaths="#path1,0,1"
       id="path-effect414"
       is_visible="true"
       lpeversion="0"
       join="true"
       close="true"
       autoreverse="true" />
    <inkscape:path-effect
       effect="fill_between_many"
       method="originald"
       linkedpaths="#path414,0,1"
       id="path-effect417"
       is_visible="true"
       lpeversion="0"
       join="true"
       close="true"
       autoreverse="true" />
  </defs>
  <g
     id="g18"
     inkscape:label="left"
     style="display:inline"
     transform="matrix(1.0000006,0,0,-1.0000006,-109686.13,-129869.26)">
    <g
       id="g14"
       inkscape:label="left-body"
       style="display:none"
       transform="translate(2.7703536e-5,2.7921025e-5)">
      <path
         style="color:#000000;display:inline;fill:#000000;-inkscape-stroke:none"
         d="m 224768.81,-108391.52 c -376.13,2.88 -747.04,112.32 -1067.76,320.14 -6723.59,4024.33 -13964.18,7113.8 -21521.94,9183.161 -22546.52,4931.299 -45555.56,7438.91 -68635.02,7480.1 -516.98,-15.408 -1020,169.22 -1404.25,515.443 -384.41,346.373 -620.32,827.773 -658.52,1343.805 a 25,25 0 0 0 0.18,0.932 25,25 0 0 0 -0.25,0.917 l 2.25,11823.024 a 25,25 0 0 0 0,0.154 25,25 0 0 0 0,0.155 l 63.5,5079.843 V -53848 v 5079.844 l -105.95,8489.142 a 25,25 0 0 0 0.99,3.885 25,25 0 0 0 0.19,4.004 c 256.82,807.586 758.27,1515.394 1434.96,2025.506 6229.68,5390.748 13377.52,9618.012 21102.61,12480.18 7725.29,2862.238 15902.14,4312.731 24140.56,4282.3 h 0.12 l 3947.27,5.459 a 25,25 0 0 0 1.04,-0.277 25,25 0 0 0 1.06,0.191 c 12813.16,-1066.562 25425.91,-3843.784 37502.02,-8257.642 a 25,25 0 0 0 1.57,-0.735 25,25 0 0 0 0.36,-0.06 c 273.88,-126.87 449.25,-401.378 449.25,-703.215 a 25,25 0 0 0 0,-0.578 v -17323.457 c 18.2,-517.709 238.95,-1007.554 614.74,-1364.125 375.87,-356.648 876.76,-551.402 1394.82,-542.34 a 25,25 0 0 0 0.22,-0.06 25,25 0 0 0 0.22,0.06 l 15905,2.918 c 205.53,0 402.68,-81.658 548.01,-226.992 145.33,-145.334 226.99,-342.475 226.99,-548.008 v -7978 -8128 -8889.951 -0.05 l 12,-6095.951 a 25,25 0 0 0 0,-0.117 25,25 0 0 0 0,-0.125 c -19.72,-2545.988 -617.89,-5054.198 -1749.3,-7335.067 a 25,25 0 0 0 -0.19,-0.209 25,25 0 0 0 -0.45,-0.98 l -10507.29,-18593.12 a 25,25 0 0 0 -0.19,-0.19 25,25 0 0 0 -0.45,-0.87 c -284.44,-449.68 -737.02,-766.86 -1256.78,-880.77 -146.18,-32.04 -294.26,-47.25 -441.54,-46.12 z m 0.37,50 c 143.58,-1.1 287.95,13.73 430.47,44.96 v 0 c 506.56,111.02 947.63,420.06 1224.95,858.24 l 10506.59,18591.857 c 1127.85,2273.917 1724.15,4774.437 1743.81,7312.621 0,0.01 0,0.02 0,0.04 l -12,6095.758 a 25,25 0 0 0 0,0.03 25,25 0 0 0 0,0.02 v 8890 8128 7978 c 0,192.291 -76.38,376.682 -212.35,512.652 -135.96,135.969 -320.36,212.347 -512.65,212.348 v 0 l -15905,-2.918 c -531,-9.174 -1044.42,190.506 -1429.68,556.064 -385.37,365.658 -611.73,868.065 -630.3,1398.979 a 25,25 0 0 0 0.1,0.439 25,25 0 0 0 -0.12,0.436 v 17324.578 a 25,25 0 0 0 0,0.178 c -0.1,282.123 -163.68,538.425 -419.5,657.293 -12071.24,4411.962 -24678.86,7188.046 -37486.81,8254.267 l -3946.32,-5.457 a 25,25 0 0 0 -0.1,0.02 25,25 0 0 0 -0.1,-0.02 c -8232.47,30.424 -16403.42,-1419.014 -24123.12,-4279.185 -7719.71,-2860.171 -14862.54,-7084.525 -21087.82,-12471.58 a 25,25 0 0 0 -0.29,-0.141 25,25 0 0 0 -1.03,-0.922 c -667.75,-503.131 -1162.8,-1201.123 -1416.94,-1997.584 l 105.9,-8485.137 a 25,25 0 0 0 0,-0.238 25,25 0 0 0 0,-0.07 v -5080 -18796 a 25,25 0 0 0 0,-0.156 25,25 0 0 0 0,-0.156 l -63.5,-5079.846 -2.25,-11821.815 c 37.44,-502.9 267.4,-971.974 642.05,-1309.556 374.87,-337.761 865.6,-517.801 1369.95,-502.602 a 25,25 0 0 0 0.4,-0.09 25,25 0 0 0 0.39,0.106 c 23083.3,-41.187 46096.18,-2549.235 68646.43,-7481.402 a 25,25 0 0 0 1,-0.311 25,25 0 0 0 0.26,0 c 7562.4,-2070.58 14807.42,-5161.92 21535.11,-9188.72 a 25,25 0 0 0 0.57,-0.41 25,25 0 0 0 0.19,-0.1 c 312.83,-202.86 674.65,-309.69 1041.58,-312.49 z"
         id="path414"
         transform="translate(2.7703536e-5,2.7921022e-5)" />
      <path
         inkscape:original-d="M 0,0"
         inkscape:path-effect="#path-effect417"
         d="m 224768.81,-108391.52 c -376.13,2.88 -747.04,112.32 -1067.76,320.14 -6723.59,4024.33 -13964.18,7113.8 -21521.94,9183.161 -22546.52,4931.299 -45555.56,7438.91 -68635.02,7480.1 -516.98,-15.408 -1020,169.22 -1404.25,515.443 -384.41,346.373 -620.32,827.773 -658.52,1343.805 a 25,25 0 0 0 0.18,0.932 25,25 0 0 0 -0.25,0.917 l 2.25,11823.024 a 25,25 0 0 0 0,0.154 25,25 0 0 0 0,0.155 l 63.5,5079.843 V -53848 v 5079.844 l -105.95,8489.142 a 25,25 0 0 0 0.99,3.885 25,25 0 0 0 0.19,4.004 c 256.82,807.586 758.27,1515.394 1434.96,2025.506 6229.68,5390.748 13377.52,9618.012 21102.61,12480.18 7725.29,2862.238 15902.14,4312.731 24140.56,4282.3 h 0.12 l 3947.27,5.459 a 25,25 0 0 0 1.04,-0.277 25,25 0 0 0 1.06,0.191 c 12813.16,-1066.562 25425.91,-3843.784 37502.02,-8257.642 a 25,25 0 0 0 1.57,-0.735 25,25 0 0 0 0.36,-0.06 c 273.88,-126.87 449.25,-401.378 449.25,-703.215 a 25,25 0 0 0 0,-0.578 v -17323.457 c 18.2,-517.709 238.95,-1007.554 614.74,-1364.125 375.87,-356.648 876.76,-551.402 1394.82,-542.34 a 25,25 0 0 0 0.22,-0.06 25,25 0 0 0 0.22,0.06 l 15905,2.918 c 205.53,0 402.68,-81.658 548.01,-226.992 145.33,-145.334 226.99,-342.475 226.99,-548.008 v -7978 -8128 -8889.951 -0.05 l 12,-6095.951 a 25,25 0 0 0 0,-0.117 25,25 0 0 0 0,-0.125 c -19.72,-2545.988 -617.89,-5054.198 -1749.3,-7335.067 a 25,25 0 0 0 -0.19,-0.209 25,25 0 0 0 -0.45,-0.98 l -10507.29,-18593.12 a 25,25 0 0 0 -0.19,-0.19 25,25 0 0 0 -0.45,-0.87 c -284.44,-449.68 -737.02,-766.86 -1256.78,-880.77 -146.18,-32.04 -294.26,-47.25 -441.54,-46.12 z"
         id="path417"
         style="display:inline;fill:#a8a8a8;fill-opacity:1"
         inkscape:label="r-body"
         transform="translate(2.7703536e-5,2.7921025e-5)" />
    </g>
    <g
       id="g9"
       inkscape:label="left-perforations"
       style="display:none"
       transform="translate(2.7703536e-5,2.7921025e-5)">
      <g
         id="g4">
        <use
           xlink:href="#iVnoP-Y2YCTeQW9BfDdm_pad-11"
           x="175856"
           y="-47498"
           id="use1"
           style="display:inline" />
        <use
           xlink:href="#iVnoP-Y2YCTeQW9BfDdm_pad-12"
           x="170356"
           y="-47498"
           id="use2"
           style="display:inline" />
        <use
           xlink:href="#iVnoP-Y2YCTeQW9BfDdm_pad-12"
           x="181356"
           y="-47498"
           id="use4"
           style="display:inline" />
        <use
           xlink:href="#iVnoP-Y2YCTeQW9BfDdm_pad-14"
           x="175856"
           y="-53398"
           id="use6"
           style="display:inline" />
        <use
           xlink:href="#iVnoP-Y2YCTeQW9BfDdm_pad-14"
           x="170856"
           y="-51298"
           id="use7"
           style="display:inline" />
        <use
           xlink:href="#iVnoP-Y2YCTeQW9BfDdm_pad-11"
           x="139856"
           y="-49382"
           id="use8"
           style="display:inline" />
        <use
           xlink:href="#iVnoP-Y2YCTeQW9BfDdm_pad-12"
           x="134356"
           y="-49382"
           id="use9"
           style="display:inline" />
        <use
           xlink:href="#iVnoP-Y2YCTeQW9BfDdm_pad-12"
           x="145356"
           y="-49382"
           id="use11"
           style="display:inline" />
        <use
           xlink:href="#iVnoP-Y2YCTeQW9BfDdm_pad-14"
           x="139856"
           y="-55282"
           id="use13"
           style="display:inline" />
        <use
           xlink:href="#iVnoP-Y2YCTeQW9BfDdm_pad-14"
           x="134856"
           y="-53182"
           id="use14"
           style="display:inline" />
        <use
           xlink:href="#iVnoP-Y2YCTeQW9BfDdm_pad-11"
           x="157856"
           y="-37382"
           id="use15"
           style="display:inline" />
        <use
           xlink:href="#iVnoP-Y2YCTeQW9BfDdm_pad-12"
           x="152356"
           y="-37382"
           id="use16"
           style="display:inline" />
        <use
           xlink:href="#iVnoP-Y2YCTeQW9BfDdm_pad-12"
           x="163356"
           y="-37382"
           id="use18"
           style="display:inline" />
        <use
           xlink:href="#iVnoP-Y2YCTeQW9BfDdm_pad-14"
           x="157856"
           y="-43282"
           id="use20"
           style="display:inline" />
        <use
           xlink:href="#iVnoP-Y2YCTeQW9BfDdm_pad-14"
           x="152856"
           y="-41182"
           id="use21"
           style="display:inline" />
        <use
           xlink:href="#iVnoP-Y2YCTeQW9BfDdm_pad-11"
           x="175856"
           y="-30382"
           id="use22"
           style="display:inline" />
        <use
           xlink:href="#iVnoP-Y2YCTeQW9BfDdm_pad-12"
           x="170356"
           y="-30382"
           id="use23"
           style="display:inline" />
        <use
           xlink:href="#iVnoP-Y2YCTeQW9BfDdm_pad-12"
           x="181356"
           y="-30382"
           id="use25"
           style="display:inline" />
        <use
           xlink:href="#iVnoP-Y2YCTeQW9BfDdm_pad-14"
           x="175856"
           y="-36282"
           id="use27"
           style="display:inline" />
        <use
           xlink:href="#iVnoP-Y2YCTeQW9BfDdm_pad-14"
           x="170856"
           y="-34182"
           id="use28"
           style="display:inline" />
        <use
           xlink:href="#iVnoP-Y2YCTeQW9BfDdm_pad-11"
           x="193856"
           y="-35882"
           id="use29"
           style="display:inline" />
        <use
           xlink:href="#iVnoP-Y2YCTeQW9BfDdm_pad-12"
           x="188356"
           y="-35882"
           id="use30"
           style="display:inline" />
        <use
           xlink:href="#iVnoP-Y2YCTeQW9BfDdm_pad-12"
           x="199356"
           y="-35882"
           id="use32"
           style="display:inline" />
        <use
           xlink:href="#iVnoP-Y2YCTeQW9BfDdm_pad-14"
           x="193856"
           y="-41782"
           id="use34"
           style="display:inline" />
        <use
           xlink:href="#iVnoP-Y2YCTeQW9BfDdm_pad-14"
           x="188856"
           y="-39682"
           id="use35"
           style="display:inline" />
        <use
           xlink:href="#iVnoP-Y2YCTeQW9BfDdm_pad-11"
           x="211856"
           y="-38382"
           id="use36"
           style="display:inline" />
        <use
           xlink:href="#iVnoP-Y2YCTeQW9BfDdm_pad-12"
           x="206356"
           y="-38382"
           id="use37"
           style="display:inline" />
        <use
           xlink:href="#iVnoP-Y2YCTeQW9BfDdm_pad-12"
           x="217356"
           y="-38382"
           id="use39"
           style="display:inline" />
        <use
           xlink:href="#iVnoP-Y2YCTeQW9BfDdm_pad-14"
           x="211856"
           y="-44282"
           id="use41"
           style="display:inline" />
        <use
           xlink:href="#iVnoP-Y2YCTeQW9BfDdm_pad-14"
           x="206856"
           y="-42182"
           id="use42"
           style="display:inline" />
        <use
           xlink:href="#iVnoP-Y2YCTeQW9BfDdm_pad-11"
           x="139856"
           y="-66382"
           id="use43"
           style="display:inline" />
        <use
           xlink:href="#iVnoP-Y2YCTeQW9BfDdm_pad-12"
           x="134356"
           y="-66382"
           id="use44"
           style="display:inline" />
        <use
           xlink:href="#iVnoP-Y2YCTeQW9BfDdm_pad-12"
           x="145356"
           y="-66382"
           id="use46"
           style="display:inline" />
        <use
           xlink:href="#iVnoP-Y2YCTeQW9BfDdm_pad-14"
           x="139856"
           y="-72282"
           id="use48"
           style="display:inline" />
        <use
           xlink:href="#iVnoP-Y2YCTeQW9BfDdm_pad-14"
           x="134856"
           y="-70182"
           id="use49"
           style="display:inline" />
        <use
           xlink:href="#iVnoP-Y2YCTeQW9BfDdm_pad-11"
           x="157856"
           y="-54356"
           id="use50"
           style="display:inline" />
        <use
           xlink:href="#iVnoP-Y2YCTeQW9BfDdm_pad-12"
           x="152356"
           y="-54356"
           id="use51"
           style="display:inline" />
        <use
           xlink:href="#iVnoP-Y2YCTeQW9BfDdm_pad-12"
           x="163356"
           y="-54356"
           id="use53"
           style="display:inline" />
        <use
           xlink:href="#iVnoP-Y2YCTeQW9BfDdm_pad-14"
           x="157856"
           y="-60256"
           id="use55"
           style="display:inline" />
        <use
           xlink:href="#iVnoP-Y2YCTeQW9BfDdm_pad-14"
           x="152856"
           y="-58156"
           id="use56"
           style="display:inline" />
        <use
           xlink:href="#iVnoP-Y2YCTeQW9BfDdm_pad-11"
           x="193856"
           y="-52832"
           id="use57"
           style="display:inline" />
        <use
           xlink:href="#iVnoP-Y2YCTeQW9BfDdm_pad-12"
           x="188356"
           y="-52832"
           id="use58"
           style="display:inline" />
        <use
           xlink:href="#iVnoP-Y2YCTeQW9BfDdm_pad-12"
           x="199356"
           y="-52832"
           id="use60"
           style="display:inline" />
        <use
           xlink:href="#iVnoP-Y2YCTeQW9BfDdm_pad-14"
           x="193856"
           y="-58732"
           id="use62"
           style="display:inline" />
        <use
           xlink:href="#iVnoP-Y2YCTeQW9BfDdm_pad-14"
           x="188856"
           y="-56632"
           id="use63"
           style="display:inline" />
        <use
           xlink:href="#iVnoP-Y2YCTeQW9BfDdm_pad-11"
           x="211836"
           y="-55372"
           id="use64"
           style="display:inline" />
        <use
           xlink:href="#iVnoP-Y2YCTeQW9BfDdm_pad-12"
           x="206336"
           y="-55372"
           id="use65"
           style="display:inline" />
        <use
           xlink:href="#iVnoP-Y2YCTeQW9BfDdm_pad-12"
           x="217336"
           y="-55372"
           id="use67"
           style="display:inline" />
        <use
           xlink:href="#iVnoP-Y2YCTeQW9BfDdm_pad-14"
           x="211836"
           y="-61272"
           id="use69"
           style="display:inline" />
        <use
           xlink:href="#iVnoP-Y2YCTeQW9BfDdm_pad-14"
           x="206836"
           y="-59172"
           id="use70"
           style="display:inline" />
        <use
           xlink:href="#iVnoP-Y2YCTeQW9BfDdm_pad-11"
           x="139856"
           y="-83382"
           id="use71"
           style="display:inline" />
        <use
           xlink:href="#iVnoP-Y2YCTeQW9BfDdm_pad-12"
           x="134356"
           y="-83382"
           id="use72"
           style="display:inline" />
        <use
           xlink:href="#iVnoP-Y2YCTeQW9BfDdm_pad-12"
           x="145356"
           y="-83382"
           id="use74"
           style="display:inline" />
        <use
           xlink:href="#iVnoP-Y2YCTeQW9BfDdm_pad-14"
           x="139856"
           y="-89282"
           id="use76"
           style="display:inline" />
        <use
           xlink:href="#iVnoP-Y2YCTeQW9BfDdm_pad-14"
           x="134856"
           y="-87182"
           id="use77"
           style="display:inline" />
        <use
           xlink:href="#iVnoP-Y2YCTeQW9BfDdm_pad-11"
           x="157856"
           y="-71374"
           id="use78"
           style="display:inline" />
        <use
           xlink:href="#iVnoP-Y2YCTeQW9BfDdm_pad-12"
           x="152356"
           y="-71374"
           id="use79"
           style="display:inline" />
        <use
           xlink:href="#iVnoP-Y2YCTeQW9BfDdm_pad-12"
           x="163356"
           y="-71374"
           id="use81"
           style="display:inline" />
        <use
           xlink:href="#iVnoP-Y2YCTeQW9BfDdm_pad-14"
           x="157856"
           y="-77274"
           id="use83"
           style="display:inline" />
        <use
           xlink:href="#iVnoP-Y2YCTeQW9BfDdm_pad-14"
           x="152856"
           y="-75174"
           id="use84"
           style="display:inline" />
        <use
           xlink:href="#iVnoP-Y2YCTeQW9BfDdm_pad-11"
           x="175856"
           y="-64516"
           id="use85"
           style="display:inline" />
        <use
           xlink:href="#iVnoP-Y2YCTeQW9BfDdm_pad-12"
           x="170356"
           y="-64516"
           id="use86"
           style="display:inline" />
        <use
           xlink:href="#iVnoP-Y2YCTeQW9BfDdm_pad-12"
           x="181356"
           y="-64516"
           id="use88"
           style="display:inline" />
        <use
           xlink:href="#iVnoP-Y2YCTeQW9BfDdm_pad-14"
           x="175856"
           y="-70416"
           id="use90"
           style="display:inline" />
        <use
           xlink:href="#iVnoP-Y2YCTeQW9BfDdm_pad-14"
           x="170856"
           y="-68316"
           id="use91"
           style="display:inline" />
        <use
           xlink:href="#iVnoP-Y2YCTeQW9BfDdm_pad-11"
           x="193856"
           y="-69850"
           id="use92"
           style="display:inline" />
        <use
           xlink:href="#iVnoP-Y2YCTeQW9BfDdm_pad-12"
           x="188356"
           y="-69850"
           id="use93"
           style="display:inline" />
        <use
           xlink:href="#iVnoP-Y2YCTeQW9BfDdm_pad-12"
           x="199356"
           y="-69850"
           id="use95"
           style="display:inline" />
        <use
           xlink:href="#iVnoP-Y2YCTeQW9BfDdm_pad-14"
           x="193856"
           y="-75750"
           id="use97"
           style="display:inline" />
        <use
           xlink:href="#iVnoP-Y2YCTeQW9BfDdm_pad-14"
           x="188856"
           y="-73650"
           id="use98"
           style="display:inline" />
        <use
           xlink:href="#iVnoP-Y2YCTeQW9BfDdm_pad-11"
           x="211836"
           y="-72390"
           id="use99"
           style="display:inline" />
        <use
           xlink:href="#iVnoP-Y2YCTeQW9BfDdm_pad-12"
           x="206336"
           y="-72390"
           id="use100"
           style="display:inline" />
        <use
           xlink:href="#iVnoP-Y2YCTeQW9BfDdm_pad-12"
           x="217336"
           y="-72390"
           id="use102"
           style="display:inline" />
        <use
           xlink:href="#iVnoP-Y2YCTeQW9BfDdm_pad-14"
           x="211836"
           y="-78290"
           id="use104"
           style="display:inline" />
        <use
           xlink:href="#iVnoP-Y2YCTeQW9BfDdm_pad-14"
           x="206836"
           y="-76190"
           id="use105"
           style="display:inline" />
        <use
           xlink:href="#iVnoP-Y2YCTeQW9BfDdm_pad-11"
           x="222386"
           y="-98082"
           id="use106"
           style="display:inline" />
        <use
           xlink:href="#iVnoP-Y2YCTeQW9BfDdm_pad-12"
           x="227149.14"
           y="-100832"
           id="use107"
           style="display:inline" />
        <use
           xlink:href="#iVnoP-Y2YCTeQW9BfDdm_pad-12"
           x="217622.86"
           y="-95332"
           id="use109"
           style="display:inline" />
        <use
           xlink:href="#iVnoP-Y2YCTeQW9BfDdm_pad-14"
           x="225336"
           y="-92972.453"
           id="use111"
           style="display:inline" />
        <use
           xlink:href="#iVnoP-Y2YCTeQW9BfDdm_pad-14"
           x="228616.12"
           y="-97291.102"
           id="use112"
           style="display:inline" />
        <use
           xlink:href="#iVnoP-Y2YCTeQW9BfDdm_pad-11"
           x="203826"
           y="-90082"
           id="use113"
           style="display:inline" />
        <use
           xlink:href="#iVnoP-Y2YCTeQW9BfDdm_pad-12"
           x="209138.59"
           y="-91505.508"
           id="use114"
           style="display:inline" />
        <use
           xlink:href="#iVnoP-Y2YCTeQW9BfDdm_pad-12"
           x="198513.41"
           y="-88658.492"
           id="use116"
           style="display:inline" />
        <use
           xlink:href="#iVnoP-Y2YCTeQW9BfDdm_pad-14"
           x="205353.03"
           y="-84383.039"
           id="use118"
           style="display:inline" />
        <use
           xlink:href="#iVnoP-Y2YCTeQW9BfDdm_pad-14"
           x="209639.14"
           y="-87705.578"
           id="use119"
           style="display:inline" />
      </g>
      <g
         id="g5">
        <use
           xlink:href="#iVnoP-Y2YCTeQW9BfDdm_pad-16"
           x="237789.41"
           y="-53086"
           id="use259"
           style="display:inline" />
        <use
           xlink:href="#iVnoP-Y2YCTeQW9BfDdm_pad-16"
           x="237789.41"
           y="-55626"
           id="use260"
           style="display:inline" />
        <use
           xlink:href="#iVnoP-Y2YCTeQW9BfDdm_pad-16"
           x="237789.41"
           y="-58166"
           id="use261"
           style="display:inline" />
        <use
           xlink:href="#iVnoP-Y2YCTeQW9BfDdm_pad-16"
           x="237789.41"
           y="-60706"
           id="use262"
           style="display:inline" />
        <use
           xlink:href="#iVnoP-Y2YCTeQW9BfDdm_pad-16"
           x="237789.41"
           y="-63246"
           id="use263"
           style="display:inline" />
        <use
           xlink:href="#iVnoP-Y2YCTeQW9BfDdm_pad-16"
           x="237789.41"
           y="-65786"
           id="use264"
           style="display:inline" />
        <use
           xlink:href="#iVnoP-Y2YCTeQW9BfDdm_pad-16"
           x="237789.41"
           y="-68326"
           id="use265"
           style="display:inline" />
        <use
           xlink:href="#iVnoP-Y2YCTeQW9BfDdm_pad-16"
           x="237789.41"
           y="-70866"
           id="use266"
           style="display:inline" />
        <use
           xlink:href="#iVnoP-Y2YCTeQW9BfDdm_pad-16"
           x="237789.41"
           y="-73406"
           id="use267"
           style="display:inline" />
        <use
           xlink:href="#iVnoP-Y2YCTeQW9BfDdm_pad-16"
           x="237789.41"
           y="-75946"
           id="use268"
           style="display:inline" />
        <use
           xlink:href="#iVnoP-Y2YCTeQW9BfDdm_pad-16"
           x="237789.41"
           y="-78486"
           id="use269"
           style="display:inline" />
        <use
           xlink:href="#iVnoP-Y2YCTeQW9BfDdm_pad-16"
           x="237789.41"
           y="-81026"
           id="use270"
           style="display:inline" />
      </g>
      <g
         id="g6">
        <use
           xlink:href="#iVnoP-Y2YCTeQW9BfDdm_pad-16"
           x="222569.41"
           y="-81026"
           id="use271"
           style="display:inline" />
        <use
           xlink:href="#iVnoP-Y2YCTeQW9BfDdm_pad-16"
           x="222569.41"
           y="-78486"
           id="use272"
           style="display:inline" />
        <use
           xlink:href="#iVnoP-Y2YCTeQW9BfDdm_pad-16"
           x="222569.41"
           y="-75946"
           id="use273"
           style="display:inline" />
        <use
           xlink:href="#iVnoP-Y2YCTeQW9BfDdm_pad-16"
           x="222569.41"
           y="-73406"
           id="use274"
           style="display:inline" />
        <use
           xlink:href="#iVnoP-Y2YCTeQW9BfDdm_pad-16"
           x="222569.41"
           y="-70866"
           id="use275"
           style="display:inline" />
        <use
           xlink:href="#iVnoP-Y2YCTeQW9BfDdm_pad-16"
           x="222569.41"
           y="-68326"
           id="use276"
           style="display:inline" />
        <use
           xlink:href="#iVnoP-Y2YCTeQW9BfDdm_pad-16"
           x="222569.41"
           y="-65786"
           id="use277"
           style="display:inline" />
        <use
           xlink:href="#iVnoP-Y2YCTeQW9BfDdm_pad-16"
           x="222569.41"
           y="-63246"
           id="use278"
           style="display:inline" />
        <use
           xlink:href="#iVnoP-Y2YCTeQW9BfDdm_pad-16"
           x="222569.41"
           y="-60706"
           id="use279"
           style="display:inline" />
        <use
           xlink:href="#iVnoP-Y2YCTeQW9BfDdm_pad-16"
           x="222569.41"
           y="-58166"
           id="use280"
           style="display:inline" />
        <use
           xlink:href="#iVnoP-Y2YCTeQW9BfDdm_pad-16"
           x="222569.41"
           y="-55626"
           id="use281"
           style="display:inline" />
        <use
           xlink:href="#iVnoP-Y2YCTeQW9BfDdm_pad-16"
           x="222569.41"
           y="-53086"
           id="use282"
           style="display:inline" />
      </g>
      <g
         id="g7">
        <use
           xlink:href="#iVnoP-Y2YCTeQW9BfDdm_pad-17"
           x="230274"
           y="-88352"
           id="use313"
           style="display:inline" />
        <use
           xlink:href="#iVnoP-Y2YCTeQW9BfDdm_pad-17"
           x="233274"
           y="-88352"
           id="use316"
           style="display:inline" />
        <use
           xlink:href="#iVnoP-Y2YCTeQW9BfDdm_pad-17"
           x="226274"
           y="-88352"
           id="use317"
           style="display:inline" />
        <use
           xlink:href="#iVnoP-Y2YCTeQW9BfDdm_pad-17"
           x="225174"
           y="-83752"
           id="use318"
           style="display:inline"
           transform="translate(2.7703536e-5,2.7921025e-5)" />
      </g>
    </g>
    <g
       id="g416"
       style="display:inline;fill:#008000"
       inkscape:label="left-tenting"
       transform="translate(2.7703536e-5,2.7921025e-5)">
      <use
         xlink:href="#iVnoP-Y2YCTeQW9BfDdm_pad-22"
         x="185356"
         y="-27232"
         id="use341"
         style="display:inline;fill:#008000" />
      <use
         xlink:href="#iVnoP-Y2YCTeQW9BfDdm_pad-22"
         x="204406"
         y="-46282"
         id="use342"
         style="display:inline;fill:#008000" />
      <use
         xlink:href="#iVnoP-Y2YCTeQW9BfDdm_pad-22"
         x="185356"
         y="-65332"
         id="use343"
         style="display:inline;fill:#008000" />
      <use
         xlink:href="#iVnoP-Y2YCTeQW9BfDdm_pad-22"
         x="166306"
         y="-46282"
         id="use344"
         style="display:inline;fill:#008000" />
    </g>
    <g
       id="g420"
       style="display:none"
       inkscape:label="left-discard"
       transform="translate(2.7703536e-5,2.7921025e-5)">
      <g
         id="g419"
         style="fill:#800000">
        <g
           id="g418"
           style="fill:#800000">
          <use
             xlink:href="#iVnoP-Y2YCTeQW9BfDdm_pad-13"
             x="170636"
             y="-43298"
             id="use3"
             style="display:inline;fill:#800000" />
          <use
             xlink:href="#iVnoP-Y2YCTeQW9BfDdm_pad-13"
             x="181076"
             y="-43298"
             id="use5"
             style="display:inline;fill:#800000" />
          <use
             xlink:href="#iVnoP-Y2YCTeQW9BfDdm_pad-13"
             x="134636"
             y="-45182"
             id="use10"
             style="display:inline;fill:#800000" />
          <use
             xlink:href="#iVnoP-Y2YCTeQW9BfDdm_pad-13"
             x="145076"
             y="-45182"
             id="use12"
             style="display:inline;fill:#800000" />
          <use
             xlink:href="#iVnoP-Y2YCTeQW9BfDdm_pad-13"
             x="152636"
             y="-33182"
             id="use17"
             style="display:inline;fill:#800000" />
          <use
             xlink:href="#iVnoP-Y2YCTeQW9BfDdm_pad-13"
             x="163076"
             y="-33182"
             id="use19"
             style="display:inline;fill:#800000" />
          <use
             xlink:href="#iVnoP-Y2YCTeQW9BfDdm_pad-13"
             x="170636"
             y="-26182"
             id="use24"
             style="display:inline;fill:#800000" />
          <use
             xlink:href="#iVnoP-Y2YCTeQW9BfDdm_pad-13"
             x="181076"
             y="-26182"
             id="use26"
             style="display:inline;fill:#800000" />
          <use
             xlink:href="#iVnoP-Y2YCTeQW9BfDdm_pad-13"
             x="188636"
             y="-31682"
             id="use31"
             style="display:inline;fill:#800000" />
          <use
             xlink:href="#iVnoP-Y2YCTeQW9BfDdm_pad-13"
             x="199076"
             y="-31682"
             id="use33"
             style="display:inline;fill:#800000" />
          <use
             xlink:href="#iVnoP-Y2YCTeQW9BfDdm_pad-13"
             x="206636"
             y="-34182"
             id="use38"
             style="display:inline;fill:#800000" />
          <use
             xlink:href="#iVnoP-Y2YCTeQW9BfDdm_pad-13"
             x="217076"
             y="-34182"
             id="use40"
             style="display:inline;fill:#800000" />
          <use
             xlink:href="#iVnoP-Y2YCTeQW9BfDdm_pad-13"
             x="134636"
             y="-62182"
             id="use45"
             style="display:inline;fill:#800000" />
          <use
             xlink:href="#iVnoP-Y2YCTeQW9BfDdm_pad-13"
             x="145076"
             y="-62182"
             id="use47"
             style="display:inline;fill:#800000" />
          <use
             xlink:href="#iVnoP-Y2YCTeQW9BfDdm_pad-13"
             x="152636"
             y="-50156"
             id="use52"
             style="display:inline;fill:#800000" />
          <use
             xlink:href="#iVnoP-Y2YCTeQW9BfDdm_pad-13"
             x="163076"
             y="-50156"
             id="use54"
             style="display:inline;fill:#800000" />
          <use
             xlink:href="#iVnoP-Y2YCTeQW9BfDdm_pad-13"
             x="188636"
             y="-48632"
             id="use59"
             style="display:inline;fill:#800000" />
          <use
             xlink:href="#iVnoP-Y2YCTeQW9BfDdm_pad-13"
             x="199076"
             y="-48632"
             id="use61"
             style="display:inline;fill:#800000" />
          <use
             xlink:href="#iVnoP-Y2YCTeQW9BfDdm_pad-13"
             x="206616"
             y="-51172"
             id="use66"
             style="display:inline;fill:#800000" />
          <use
             xlink:href="#iVnoP-Y2YCTeQW9BfDdm_pad-13"
             x="217056"
             y="-51172"
             id="use68"
             style="display:inline;fill:#800000" />
          <use
             xlink:href="#iVnoP-Y2YCTeQW9BfDdm_pad-13"
             x="134636"
             y="-79182"
             id="use73"
             style="display:inline;fill:#800000" />
          <use
             xlink:href="#iVnoP-Y2YCTeQW9BfDdm_pad-13"
             x="145076"
             y="-79182"
             id="use75"
             style="display:inline;fill:#800000" />
          <use
             xlink:href="#iVnoP-Y2YCTeQW9BfDdm_pad-13"
             x="152636"
             y="-67174"
             id="use80"
             style="display:inline;fill:#800000" />
          <use
             xlink:href="#iVnoP-Y2YCTeQW9BfDdm_pad-13"
             x="163076"
             y="-67174"
             id="use82"
             style="display:inline;fill:#800000" />
          <use
             xlink:href="#iVnoP-Y2YCTeQW9BfDdm_pad-13"
             x="170636"
             y="-60316"
             id="use87"
             style="display:inline;fill:#800000" />
          <use
             xlink:href="#iVnoP-Y2YCTeQW9BfDdm_pad-13"
             x="181076"
             y="-60316"
             id="use89"
             style="display:inline;fill:#800000" />
          <use
             xlink:href="#iVnoP-Y2YCTeQW9BfDdm_pad-13"
             x="188636"
             y="-65650"
             id="use94"
             style="display:inline;fill:#800000" />
          <use
             xlink:href="#iVnoP-Y2YCTeQW9BfDdm_pad-13"
             x="199076"
             y="-65650"
             id="use96"
             style="display:inline;fill:#800000" />
          <use
             xlink:href="#iVnoP-Y2YCTeQW9BfDdm_pad-13"
             x="206616"
             y="-68190"
             id="use101"
             style="display:inline;fill:#800000" />
          <use
             xlink:href="#iVnoP-Y2YCTeQW9BfDdm_pad-13"
             x="217056"
             y="-68190"
             id="use103"
             style="display:inline;fill:#800000" />
          <use
             xlink:href="#iVnoP-Y2YCTeQW9BfDdm_pad-13"
             x="224806.66"
             y="-104329.3"
             id="use108"
             style="display:inline;fill:#800000" />
          <use
             xlink:href="#iVnoP-Y2YCTeQW9BfDdm_pad-13"
             x="215765.34"
             y="-99109.305"
             id="use110"
             style="display:inline;fill:#800000" />
          <use
             xlink:href="#iVnoP-Y2YCTeQW9BfDdm_pad-13"
             x="207781.09"
             y="-95489.922"
             id="use115"
             style="display:inline;fill:#800000" />
          <use
             xlink:href="#iVnoP-Y2YCTeQW9BfDdm_pad-13"
             x="197696.83"
             y="-92787.852"
             id="use117"
             style="display:inline;fill:#800000" />
        </g>
        <use
           xlink:href="#iVnoP-Y2YCTeQW9BfDdm_pad-18"
           x="234874"
           y="-86052"
           id="use314"
           style="display:inline;fill:#800000" />
        <use
           xlink:href="#iVnoP-Y2YCTeQW9BfDdm_pad-18"
           x="227874"
           y="-86052"
           id="use315"
           style="display:inline;fill:#800000" />
      </g>
      <g
         id="g417"
         style="fill:#800000">
        <use
           xlink:href="#iVnoP-Y2YCTeQW9BfDdm_pad-19"
           x="228624"
           y="-51816"
           id="use319"
           style="display:inline;fill:#800000" />
        <use
           xlink:href="#iVnoP-Y2YCTeQW9BfDdm_pad-19"
           x="231624"
           y="-51816"
           id="use320"
           style="display:inline;fill:#800000" />
        <use
           xlink:href="#iVnoP-Y2YCTeQW9BfDdm_pad-20"
           x="230874"
           y="-53891"
           id="use321"
           style="display:inline;fill:#800000" />
        <use
           xlink:href="#iVnoP-Y2YCTeQW9BfDdm_pad-20"
           x="232374"
           y="-53891"
           id="use322"
           style="display:inline;fill:#800000" />
        <use
           xlink:href="#iVnoP-Y2YCTeQW9BfDdm_pad-20"
           x="227874"
           y="-53891"
           id="use323"
           style="display:inline;fill:#800000" />
        <use
           xlink:href="#iVnoP-Y2YCTeQW9BfDdm_pad-21"
           x="226424"
           y="-50716"
           id="use324"
           style="display:inline;fill:#800000" />
        <use
           xlink:href="#iVnoP-Y2YCTeQW9BfDdm_pad-21"
           x="226424"
           y="-52916"
           id="use325"
           style="display:inline;fill:#800000" />
        <use
           xlink:href="#iVnoP-Y2YCTeQW9BfDdm_pad-21"
           x="233824"
           y="-52916"
           id="use326"
           style="display:inline;fill:#800000" />
        <use
           xlink:href="#iVnoP-Y2YCTeQW9BfDdm_pad-21"
           x="233824"
           y="-50716"
           id="use327"
           style="display:inline;fill:#800000" />
        <use
           xlink:href="#iVnoP-Y2YCTeQW9BfDdm_pad-23"
           x="224282"
           y="-50800"
           id="use346"
           style="display:inline;fill:#800000" />
        <use
           xlink:href="#iVnoP-Y2YCTeQW9BfDdm_pad-23"
           x="235966"
           y="-50800"
           id="use347"
           style="display:inline;fill:#800000" />
      </g>
    </g>
  </g>
</svg>
