<?xml version="1.0" encoding="UTF-8" standalone="no"?>
<svg
   width="186mm"
   height="186mm"
   viewBox="-93 -93 186 186"
   version="1.1"
   id="svg1"
   sodipodi:docname="cyclone-top-glass.svg"
   inkscape:version="1.3 (0e150ed, 2023-07-21)"
   xmlns:inkscape="http://www.inkscape.org/namespaces/inkscape"
   xmlns:sodipodi="http://sodipodi.sourceforge.net/DTD/sodipodi-0.dtd"
   xmlns="http://www.w3.org/2000/svg"
   xmlns:svg="http://www.w3.org/2000/svg">
  <defs
     id="defs1" />
  <sodipodi:namedview
     id="namedview1"
     pagecolor="#505050"
     bordercolor="#ffffff"
     borderopacity="1"
     inkscape:showpageshadow="0"
     inkscape:pageopacity="0"
     inkscape:pagecheckerboard="1"
     inkscape:deskcolor="#d1d1d1"
     inkscape:document-units="mm"
     inkscape:zoom="0.55829456"
     inkscape:cx="735.27494"
     inkscape:cy="481.8245"
     inkscape:window-width="1920"
     inkscape:window-height="1052"
     inkscape:window-x="0"
     inkscape:window-y="28"
     inkscape:window-maximized="0"
     inkscape:current-layer="svg1" />
  <title
     id="title1">OpenSCAD Model</title>
  <path
     d="m -93,0 0.0204,1.94763 0.0612,1.94679 0.1019,1.94509 0.1427,1.94252 0.1833,1.93912 0.2238,1.93485 0.2644,1.9297 0.3047,1.9238 0.3449,1.917 0.385,1.9093 0.4249,1.9008 0.4646,1.8916 0.5041,1.8813 0.5434,1.8704 0.5825,1.8587 0.6212,1.846 0.6598,1.8326 0.698,1.8184 0.7359,1.8033 0.7736,1.7876 0.8108,1.771 0.8477,1.7536 0.8843,1.7354 0.9204,1.7166 0.9561,1.6969 0.9915,1.6765 1.0264,1.6554 1.0608,1.6335 1.0948,1.611 1.1283,1.5876 1.1613,1.5637 1.1938,1.539 1.2258,1.5137 1.2572,1.4877 1.288,1.461 1.3184,1.4338 1.3481,1.4058 1.3773,1.3773 1.4058,1.3481 1.4338,1.3184 1.461,1.288 1.4877,1.2572 1.5137,1.2258 1.539,1.1938 1.5637,1.1613 1.5876,1.1283 1.611,1.0948 1.6335,1.0608 1.6554,1.0264 1.6765,0.9915 1.6969,0.9561 1.7166,0.9204 1.7354,0.8843 1.7536,0.8477 1.771,0.8108 1.7876,0.7736 1.8033,0.7359 1.8184,0.698 1.8326,0.6598 1.846,0.6212 1.8587,0.5825 1.8704,0.5434 1.8813,0.5041 1.8916,0.4646 1.9008,0.4249 1.9093,0.385 1.917,0.3449 1.9238,0.3047 1.9297,0.2644 1.93485,0.2238 1.93912,0.1833 1.94252,0.1427 1.94509,0.1019 1.94679,0.0612 L 0,93 1.94763,92.9796 3.89442,92.9184 5.83951,92.8165 7.78203,92.6738 9.72115,92.4905 11.656,92.2667 l 1.9297,-0.2644 1.9238,-0.3047 1.917,-0.3449 1.9093,-0.385 1.9008,-0.4249 1.8916,-0.4646 1.8813,-0.5041 1.8704,-0.5434 1.8587,-0.5825 1.846,-0.6212 1.8326,-0.6598 1.8184,-0.698 1.8033,-0.7359 1.7876,-0.7736 1.771,-0.8108 1.7536,-0.8477 1.7354,-0.8843 1.7166,-0.9204 1.6969,-0.9561 1.6765,-0.9915 1.6554,-1.0264 1.6335,-1.0608 1.611,-1.0948 1.5876,-1.1283 1.5637,-1.1613 1.539,-1.1938 1.5137,-1.2258 1.4877,-1.2572 1.461,-1.288 1.4338,-1.3184 1.4058,-1.3481 1.3773,-1.3773 1.3481,-1.4058 1.3184,-1.4338 1.288,-1.461 1.2572,-1.4877 1.2258,-1.5137 1.1938,-1.539 1.1613,-1.5637 1.1283,-1.5876 1.0948,-1.611 1.0608,-1.6335 1.0264,-1.6554 0.9915,-1.6765 0.9561,-1.6969 0.9204,-1.7166 0.8843,-1.7354 0.8477,-1.7536 0.8108,-1.771 0.7736,-1.7876 0.7359,-1.8033 0.698,-1.8184 0.6598,-1.8326 0.6212,-1.846 0.5825,-1.8587 0.5434,-1.8704 0.5041,-1.8813 0.4646,-1.8916 0.4249,-1.9008 0.385,-1.9093 0.3449,-1.917 0.3047,-1.9238 L 92.2667,11.656 92.4905,9.72115 92.6738,7.78203 92.8165,5.83951 92.9184,3.89442 92.9796,1.94763 93,0 92.9796,-1.94763 92.9184,-3.89442 92.8165,-5.83951 92.6738,-7.78203 92.4905,-9.72115 92.2667,-11.656 l -0.2644,-1.9297 -0.3047,-1.9238 -0.3449,-1.917 -0.385,-1.9093 -0.4249,-1.9008 -0.4646,-1.8916 -0.5041,-1.8813 -0.5434,-1.8704 -0.5825,-1.8587 -0.6212,-1.846 -0.6598,-1.8326 -0.698,-1.8184 -0.7359,-1.8033 -0.7736,-1.7876 -0.8108,-1.771 -0.8477,-1.7536 -0.8843,-1.7354 -0.9204,-1.7166 -0.9561,-1.6969 -0.9915,-1.6765 -1.0264,-1.6554 -1.0608,-1.6335 -1.0948,-1.611 -1.1283,-1.5876 -1.1613,-1.5637 -1.1938,-1.539 -1.2258,-1.5137 -1.2572,-1.4877 -1.288,-1.461 -1.3184,-1.4338 -1.3481,-1.4058 -1.3773,-1.3773 -1.4058,-1.3481 -1.4338,-1.3184 -1.461,-1.288 -1.4877,-1.2572 -1.5137,-1.2258 -1.539,-1.1938 -1.5637,-1.1613 -1.5876,-1.1283 -1.611,-1.0948 -1.6335,-1.0608 -1.6554,-1.0264 -1.6765,-0.9915 -1.6969,-0.9561 -1.7166,-0.9204 -1.7354,-0.8843 -1.7536,-0.8477 -1.771,-0.8108 -1.7876,-0.7736 -1.8033,-0.7359 -1.8184,-0.698 -1.8326,-0.6598 -1.846,-0.6212 -1.8587,-0.5825 -1.8704,-0.5434 -1.8813,-0.5041 -1.8916,-0.4646 -1.9008,-0.4249 -1.9093,-0.385 -1.917,-0.3449 -1.9238,-0.3047 L 11.656,-92.2667 9.72115,-92.4905 7.78203,-92.6738 5.83951,-92.8165 3.89442,-92.9184 1.94763,-92.9796 0,-93 l -1.94763,0.0204 -1.94679,0.0612 -1.94509,0.1019 -1.94252,0.1427 -1.93912,0.1833 -1.93485,0.2238 -1.9297,0.2644 -1.9238,0.3047 -1.917,0.3449 -1.9093,0.385 -1.9008,0.4249 -1.8916,0.4646 -1.8813,0.5041 -1.8704,0.5434 -1.8587,0.5825 -1.846,0.6212 -1.8326,0.6598 -1.8184,0.698 -1.8033,0.7359 -1.7876,0.7736 -1.771,0.8108 -1.7536,0.8477 -1.7354,0.8843 -1.7166,0.9204 -1.6969,0.9561 -1.6765,0.9915 -1.6554,1.0264 -1.6335,1.0608 -1.611,1.0948 -1.5876,1.1283 -1.5637,1.1613 -1.539,1.1938 -1.5137,1.2258 -1.4877,1.2572 -1.461,1.288 -1.4338,1.3184 -1.4058,1.3481 -1.3773,1.3773 -1.3481,1.4058 -1.3184,1.4338 -1.288,1.461 -1.2572,1.4877 -1.2258,1.5137 -1.1938,1.539 -1.1613,1.5637 -1.1283,1.5876 -1.0948,1.611 -1.0608,1.6335 -1.0264,1.6554 -0.9915,1.6765 -0.9561,1.6969 -0.9204,1.7166 -0.8843,1.7354 -0.8477,1.7536 -0.8108,1.771 -0.7736,1.7876 -0.7359,1.8033 -0.698,1.8184 -0.6598,1.8326 -0.6212,1.846 -0.5825,1.8587 -0.5434,1.8704 -0.5041,1.8813 -0.4646,1.8916 -0.4249,1.9008 -0.385,1.9093 -0.3449,1.917 -0.3047,1.9238 -0.2644,1.9297 -0.2238,1.93485 -0.1833,1.93912 -0.1427,1.94252 -0.1019,1.94509 -0.0612,1.94679 z m 3,0 0.0197,-1.88481 0.0592,-1.88399 0.0987,-1.88234 0.138,-1.87987 0.1774,-1.87654 0.2167,-1.87245 0.2558,-1.8675 0.2949,-1.8617 0.3338,-1.8551 0.3725,-1.8478 0.4112,-1.8395 0.4496,-1.8305 0.4879,-1.8207 0.5258,-1.81 0.5637,-1.7987 0.6012,-1.7865 0.6385,-1.7735 0.6755,-1.7597 0.7122,-1.7452 0.7486,-1.7299 0.7847,-1.7138 0.8204,-1.6971 0.8557,-1.6794 0.8907,-1.6612 0.9253,-1.6422 0.9595,-1.6224 0.9933,-1.602 1.0266,-1.5808 1.0595,-1.559 1.0919,-1.5365 1.1238,-1.5132 1.1553,-1.4894 1.1862,-1.4648 1.2167,-1.4397 1.2465,-1.4139 1.2758,-1.3875 1.3047,-1.3605 1.3328,-1.3328 1.3605,-1.3047 1.3875,-1.2758 1.4139,-1.2465 1.4397,-1.2167 1.4648,-1.1862 1.4894,-1.1553 1.5132,-1.1238 1.5365,-1.0919 1.559,-1.0595 1.5808,-1.0266 1.602,-0.9933 1.6224,-0.9595 1.6422,-0.9253 1.6612,-0.8907 1.6794,-0.8557 1.6971,-0.8204 1.7138,-0.7847 1.7299,-0.7486 1.7452,-0.7122 1.7597,-0.6755 1.7735,-0.6385 1.7865,-0.6012 1.7987,-0.5637 1.81,-0.5258 1.8207,-0.4879 1.8305,-0.4496 1.8395,-0.4112 1.8478,-0.3725 1.8551,-0.3338 1.8617,-0.2949 1.8675,-0.2558 1.87245,-0.2167 1.87654,-0.1774 1.87987,-0.138 1.88234,-0.0987 1.88399,-0.0592 L 0,-90 l 1.88481,0.0197 1.88399,0.0592 1.88234,0.0987 1.87987,0.138 1.87654,0.1774 1.87245,0.2167 1.8675,0.2558 1.8617,0.2949 1.8551,0.3338 1.8478,0.3725 1.8395,0.4112 1.8305,0.4496 1.8207,0.4879 1.81,0.5258 1.7987,0.5637 1.7865,0.6012 1.7735,0.6385 1.7597,0.6755 1.7452,0.7122 1.7299,0.7486 1.7138,0.7847 1.6971,0.8204 1.6794,0.8557 1.6612,0.8907 1.6422,0.9253 1.6224,0.9595 1.602,0.9933 1.5808,1.0266 1.559,1.0595 1.5365,1.0919 1.5132,1.1238 1.4894,1.1553 1.4648,1.1862 1.4397,1.2167 1.4139,1.2465 1.3875,1.2758 1.3605,1.3047 1.3328,1.3328 1.3047,1.3605 1.2758,1.3875 1.2465,1.4139 1.2167,1.4397 1.1862,1.4648 1.1553,1.4894 1.1238,1.5132 1.0919,1.5365 1.0595,1.559 1.0266,1.5808 0.9933,1.602 0.9595,1.6224 0.9253,1.6422 0.8907,1.6612 0.8557,1.6794 0.8204,1.6971 0.7847,1.7138 0.7486,1.7299 0.7122,1.7452 0.6755,1.7597 0.6385,1.7735 0.6012,1.7865 0.5637,1.7987 0.5258,1.81 0.4879,1.8207 0.4496,1.8305 0.4112,1.8395 0.3725,1.8478 0.3338,1.8551 0.2949,1.8617 0.2558,1.8675 0.2167,1.87245 0.1774,1.87654 0.138,1.87987 0.0987,1.88234 0.0592,1.88399 L 90,0 89.9803,1.88481 89.9211,3.7688 89.8224,5.65114 89.6844,7.53101 89.507,9.40755 89.2903,11.28 l -0.2558,1.8675 -0.2949,1.8617 -0.3338,1.8551 -0.3725,1.8478 -0.4112,1.8395 -0.4496,1.8305 -0.4879,1.8207 -0.5258,1.81 -0.5637,1.7987 -0.6012,1.7865 -0.6385,1.7735 -0.6755,1.7597 -0.7122,1.7452 -0.7486,1.7299 -0.7847,1.7138 -0.8204,1.6971 -0.8557,1.6794 -0.8907,1.6612 -0.9253,1.6422 -0.9595,1.6224 -0.9933,1.602 -1.0266,1.5808 -1.0595,1.559 -1.0919,1.5365 -1.1238,1.5132 -1.1553,1.4894 -1.1862,1.4648 -1.2167,1.4397 -1.2465,1.4139 -1.2758,1.3875 -1.3047,1.3605 -1.3328,1.3328 -1.3605,1.3047 -1.3875,1.2758 -1.4139,1.2465 -1.4397,1.2167 -1.4648,1.1862 -1.4894,1.1553 -1.5132,1.1238 -1.5365,1.0919 -1.559,1.0595 -1.5808,1.0266 -1.602,0.9933 -1.6224,0.9595 -1.6422,0.9253 -1.6612,0.8907 -1.6794,0.8557 -1.6971,0.8204 -1.7138,0.7847 -1.7299,0.7486 -1.7452,0.7122 -1.7597,0.6755 -1.7735,0.6385 -1.7865,0.6012 -1.7987,0.5637 -1.81,0.5258 -1.8207,0.4879 -1.8305,0.4496 -1.8395,0.4112 -1.8478,0.3725 -1.8551,0.3338 -1.8617,0.2949 L 11.28,89.2903 9.40755,89.507 7.53101,89.6844 5.65114,89.8224 3.7688,89.9211 1.88481,89.9803 0,90 -1.88481,89.9803 -3.7688,89.9211 -5.65114,89.8224 -7.53101,89.6844 -9.40755,89.507 -11.28,89.2903 l -1.8675,-0.2558 -1.8617,-0.2949 -1.8551,-0.3338 -1.8478,-0.3725 -1.8395,-0.4112 -1.8305,-0.4496 -1.8207,-0.4879 -1.81,-0.5258 -1.7987,-0.5637 -1.7865,-0.6012 -1.7735,-0.6385 -1.7597,-0.6755 -1.7452,-0.7122 -1.7299,-0.7486 -1.7138,-0.7847 -1.6971,-0.8204 -1.6794,-0.8557 -1.6612,-0.8907 -1.6422,-0.9253 -1.6224,-0.9595 -1.602,-0.9933 -1.5808,-1.0266 -1.559,-1.0595 -1.5365,-1.0919 -1.5132,-1.1238 -1.4894,-1.1553 -1.4648,-1.1862 -1.4397,-1.2167 -1.4139,-1.2465 -1.3875,-1.2758 -1.3605,-1.3047 -1.3328,-1.3328 -1.3047,-1.3605 -1.2758,-1.3875 -1.2465,-1.4139 -1.2167,-1.4397 -1.1862,-1.4648 -1.1553,-1.4894 -1.1238,-1.5132 -1.0919,-1.5365 -1.0595,-1.559 -1.0266,-1.5808 -0.9933,-1.602 -0.9595,-1.6224 -0.9253,-1.6422 -0.8907,-1.6612 -0.8557,-1.6794 -0.8204,-1.6971 -0.7847,-1.7138 -0.7486,-1.7299 -0.7122,-1.7452 -0.6755,-1.7597 -0.6385,-1.7735 -0.6012,-1.7865 -0.5637,-1.7987 -0.5258,-1.81 -0.4879,-1.8207 -0.4496,-1.8305 -0.4112,-1.8395 -0.3725,-1.8478 -0.3338,-1.8551 -0.2949,-1.8617 -0.2558,-1.8675 -0.2167,-1.87245 -0.1774,-1.87654 -0.138,-1.87987 -0.0987,-1.88234 -0.0592,-1.88399 z m 67,0 0.005,0.481675 0.0152,0.481465 0.0252,0.48104 0.0353,0.48041 0.0453,0.47956 0.0554,0.47851 0.0653,0.47725 0.0754,0.47577 0.0853,0.47409 0.0952,0.4722 0.1051,0.4701 0.1149,0.4678 0.1247,0.46529 0.1344,0.46257 0.144,0.45966 0.1536,0.45654 0.1632,0.45323 0.1726,0.4497 0.182,0.446 0.1914,0.44208 0.2005,0.43798 0.2096,0.43368 0.2187,0.4292 0.2276,0.4245 0.2365,0.4197 0.2452,0.4146 0.2539,0.4094 0.2623,0.404 0.2708,0.3984 0.279,0.3927 0.2872,0.3867 0.2952,0.3806 0.3032,0.3744 0.3109,0.3679 0.3186,0.3613 0.326,0.3546 0.3334,0.3477 0.3406,0.3406 0.3477,0.3334 0.3546,0.326 0.3613,0.3186 0.3679,0.3109 0.3744,0.3032 0.3806,0.2952 0.3867,0.2872 0.3927,0.279 0.3984,0.2708 0.404,0.2623 0.4094,0.2539 0.4146,0.2452 0.4197,0.2365 0.4245,0.2276 0.4292,0.2187 0.43368,0.2096 0.43798,0.2005 0.44208,0.1914 0.446,0.182 0.4497,0.1726 0.45323,0.1632 0.45654,0.1536 0.45966,0.144 0.46257,0.1344 0.46529,0.1247 0.4678,0.1149 0.4701,0.1051 0.4722,0.0952 0.47409,0.0853 0.47577,0.0754 0.47725,0.0653 0.47851,0.0554 0.47956,0.0453 0.48041,0.0353 0.48104,0.0252 0.481465,0.0152 L 0,23 0.481675,22.995 0.96314,22.9798 1.44418,22.9546 1.92459,22.9193 2.40415,22.874 l 0.47851,-0.0554 0.47725,-0.0653 0.47577,-0.0754 0.47409,-0.0853 0.4722,-0.0952 0.4701,-0.1051 0.4678,-0.1149 0.46529,-0.1247 0.46257,-0.1344 0.45966,-0.144 0.45654,-0.1536 0.45323,-0.1632 0.4497,-0.1726 0.446,-0.182 0.44208,-0.1914 0.43798,-0.2005 0.43368,-0.2096 0.4292,-0.2187 0.4245,-0.2276 0.4197,-0.2365 0.4146,-0.2452 0.4094,-0.2539 0.404,-0.2623 0.3984,-0.2708 0.3927,-0.279 0.3867,-0.2872 0.3806,-0.2952 0.3744,-0.3032 0.3679,-0.3109 0.3613,-0.3186 0.3546,-0.326 0.3477,-0.3334 0.3406,-0.3406 0.3334,-0.3477 0.326,-0.3546 0.3186,-0.3613 0.3109,-0.3679 0.3032,-0.3744 0.2952,-0.3806 0.2872,-0.3867 0.279,-0.3927 0.2708,-0.3984 0.2623,-0.404 0.2539,-0.4094 0.2452,-0.4146 0.2365,-0.4197 0.2276,-0.4245 0.2187,-0.4292 0.2096,-0.43368 0.2005,-0.43798 0.1914,-0.44208 0.182,-0.446 0.1726,-0.4497 0.1632,-0.45323 0.1536,-0.45654 0.144,-0.45966 0.1344,-0.46257 0.1247,-0.46529 0.1149,-0.4678 0.1051,-0.4701 0.0952,-0.4722 L 22.6779,3.83568 22.7533,3.35991 22.8186,2.88266 22.874,2.40415 22.9193,1.92459 22.9546,1.44418 22.9798,0.96314 22.995,0.481675 23,0 22.995,-0.481675 22.9798,-0.96314 22.9546,-1.44418 22.9193,-1.92459 22.874,-2.40415 l -0.0554,-0.47851 -0.0653,-0.47725 -0.0754,-0.47577 -0.0853,-0.47409 -0.0952,-0.4722 -0.1051,-0.4701 -0.1149,-0.4678 -0.1247,-0.46529 -0.1344,-0.46257 -0.144,-0.45966 -0.1536,-0.45654 -0.1632,-0.45323 -0.1726,-0.4497 -0.182,-0.446 -0.1914,-0.44208 -0.2005,-0.43798 -0.2096,-0.43368 -0.2187,-0.4292 -0.2276,-0.4245 -0.2365,-0.4197 -0.2452,-0.4146 -0.2539,-0.4094 -0.2623,-0.404 -0.2708,-0.3984 -0.279,-0.3927 -0.2872,-0.3867 -0.2952,-0.3806 -0.3032,-0.3744 -0.3109,-0.3679 -0.3186,-0.3613 -0.326,-0.3546 -0.3334,-0.3477 -0.3406,-0.3406 -0.3477,-0.3334 -0.3546,-0.326 -0.3613,-0.3186 -0.3679,-0.3109 -0.3744,-0.3032 -0.3806,-0.2952 -0.3867,-0.2872 -0.3927,-0.279 -0.3984,-0.2708 -0.404,-0.2623 -0.4094,-0.2539 -0.4146,-0.2452 -0.4197,-0.2365 -0.4245,-0.2276 -0.4292,-0.2187 -0.43368,-0.2096 -0.43798,-0.2005 -0.44208,-0.1914 -0.446,-0.182 -0.4497,-0.1726 -0.45323,-0.1632 -0.45654,-0.1536 -0.45966,-0.144 -0.46257,-0.1344 -0.46529,-0.1247 -0.4678,-0.1149 -0.4701,-0.1051 -0.4722,-0.0952 L 3.83568,-22.6779 3.35991,-22.7533 2.88266,-22.8186 2.40415,-22.874 1.92459,-22.9193 1.44418,-22.9546 0.96314,-22.9798 0.481675,-22.995 0,-23 l -0.481675,0.005 -0.481465,0.0152 -0.48104,0.0252 -0.48041,0.0353 -0.47956,0.0453 -0.47851,0.0554 -0.47725,0.0653 -0.47577,0.0754 -0.47409,0.0853 -0.4722,0.0952 -0.4701,0.1051 -0.4678,0.1149 -0.46529,0.1247 -0.46257,0.1344 -0.45966,0.144 -0.45654,0.1536 -0.45323,0.1632 -0.4497,0.1726 -0.446,0.182 -0.44208,0.1914 -0.43798,0.2005 -0.43368,0.2096 -0.4292,0.2187 -0.4245,0.2276 -0.4197,0.2365 -0.4146,0.2452 -0.4094,0.2539 -0.404,0.2623 -0.3984,0.2708 -0.3927,0.279 -0.3867,0.2872 -0.3806,0.2952 -0.3744,0.3032 -0.3679,0.3109 -0.3613,0.3186 -0.3546,0.326 -0.3477,0.3334 -0.3406,0.3406 -0.3334,0.3477 -0.326,0.3546 -0.3186,0.3613 -0.3109,0.3679 -0.3032,0.3744 -0.2952,0.3806 -0.2872,0.3867 -0.279,0.3927 -0.2708,0.3984 -0.2623,0.404 -0.2539,0.4094 -0.2452,0.4146 -0.2365,0.4197 -0.2276,0.4245 -0.2187,0.4292 -0.2096,0.43368 -0.2005,0.43798 -0.1914,0.44208 -0.182,0.446 -0.1726,0.4497 -0.1632,0.45323 -0.1536,0.45654 -0.144,0.45966 -0.1344,0.46257 -0.1247,0.46529 -0.1149,0.4678 -0.1051,0.4701 -0.0952,0.4722 -0.0853,0.47409 -0.0754,0.47577 -0.0653,0.47725 -0.0554,0.47851 -0.0453,0.47956 -0.0353,0.48041 -0.0252,0.48104 -0.0152,0.481465 z m 3,0 0.0044,-0.418848 0.0131,-0.418665 0.022,-0.418297 0.0306,-0.41775 0.0395,-0.41701 0.0481,-0.41609 0.0569,-0.415 0.0655,-0.41371 0.0742,-0.41226 0.0827,-0.4106 0.0914,-0.40879 0.0999,-0.40678 0.1084,-0.4046 0.1169,-0.40224 0.1253,-0.3997 0.1336,-0.39699 0.1419,-0.39411 0.1501,-0.39105 0.1582,-0.38782 0.1664,-0.38442 0.1744,-0.38086 0.1823,-0.37711 0.1901,-0.37322 0.198,-0.36915 0.2056,-0.36493 0.2132,-0.3605 0.2207,-0.356 0.2282,-0.3513 0.2354,-0.3465 0.2427,-0.3414 0.2497,-0.3363 0.2567,-0.331 0.2636,-0.3255 0.2704,-0.3199 0.277,-0.3142 0.2835,-0.3083 0.2899,-0.3024 0.2962,-0.2962 0.3024,-0.2899 0.3083,-0.2835 0.3142,-0.277 0.3199,-0.2704 0.3255,-0.2636 0.331,-0.2567 0.3363,-0.2497 0.3414,-0.2427 0.3465,-0.2354 0.3513,-0.2282 0.356,-0.2207 0.3605,-0.2132 0.36493,-0.2056 0.36915,-0.198 0.37322,-0.1901 0.37711,-0.1823 0.38086,-0.1744 0.38442,-0.1664 0.38782,-0.1582 0.39105,-0.1501 0.39411,-0.1419 0.39699,-0.1336 0.3997,-0.1253 0.40224,-0.1169 0.4046,-0.1084 0.40678,-0.0999 0.40879,-0.0914 0.4106,-0.0827 0.41226,-0.0742 0.41371,-0.0655 0.415,-0.0569 0.41609,-0.0481 0.41701,-0.0395 0.41775,-0.0306 0.418297,-0.022 0.418665,-0.0131 L 0,-20 l 0.418848,0.0044 0.418665,0.0131 0.418297,0.022 0.41775,0.0306 0.41701,0.0395 0.41609,0.0481 0.415,0.0569 0.41371,0.0655 0.41226,0.0742 0.4106,0.0827 0.40879,0.0914 0.40678,0.0999 0.4046,0.1084 0.40224,0.1169 0.3997,0.1253 0.39699,0.1336 0.39411,0.1419 0.39105,0.1501 0.38782,0.1582 0.38442,0.1664 0.38086,0.1744 0.37711,0.1823 0.37322,0.1901 0.36915,0.198 0.36493,0.2056 0.3605,0.2132 0.356,0.2207 0.3513,0.2282 0.3465,0.2354 0.3414,0.2427 0.3363,0.2497 0.331,0.2567 0.3255,0.2636 0.3199,0.2704 0.3142,0.277 0.3083,0.2835 0.3024,0.2899 0.2962,0.2962 0.2899,0.3024 0.2835,0.3083 0.277,0.3142 0.2704,0.3199 0.2636,0.3255 0.2567,0.331 0.2497,0.3363 0.2427,0.3414 0.2354,0.3465 0.2282,0.3513 0.2207,0.356 0.2132,0.3605 0.2056,0.36493 0.198,0.36915 0.1901,0.37322 0.1823,0.37711 0.1744,0.38086 0.1664,0.38442 0.1582,0.38782 0.1501,0.39105 0.1419,0.39411 0.1336,0.39699 0.1253,0.3997 0.1169,0.40224 0.1084,0.4046 0.0999,0.40678 0.0914,0.40879 0.0827,0.4106 0.0742,0.41226 0.0655,0.41371 0.0569,0.415 0.0481,0.41609 0.0395,0.41701 0.0306,0.41775 0.022,0.418297 0.0131,0.418665 L 20,0 19.9956,0.418848 19.9825,0.837513 19.9605,1.25581 19.9299,1.67356 19.8904,2.09057 19.8423,2.50666 19.7854,2.92166 19.7199,3.33537 19.6457,3.74763 19.563,4.15823 19.4716,4.56702 19.3717,4.9738 19.2633,5.3784 19.1464,5.78064 19.0211,6.18034 18.8875,6.57733 18.7456,6.97144 18.5955,7.36249 18.4373,7.75031 18.2709,8.13473 18.0965,8.51559 17.9142,8.8927 17.7241,9.26592 17.5261,9.63507 17.3205,10 l -0.2132,0.3605 -0.2207,0.356 -0.2282,0.3513 -0.2354,0.3465 -0.2427,0.3414 -0.2497,0.3363 -0.2567,0.331 -0.2636,0.3255 -0.2704,0.3199 -0.277,0.3142 -0.2835,0.3083 -0.2899,0.3024 -0.2962,0.2962 -0.3024,0.2899 -0.3083,0.2835 -0.3142,0.277 -0.3199,0.2704 -0.3255,0.2636 -0.331,0.2567 -0.3363,0.2497 -0.3414,0.2427 -0.3465,0.2354 -0.3513,0.2282 -0.356,0.2207 L 10,17.3205 9.63507,17.5261 9.26592,17.7241 8.8927,17.9142 8.51559,18.0965 8.13473,18.2709 7.75031,18.4373 7.36249,18.5955 6.97144,18.7456 6.57733,18.8875 6.18034,19.0211 5.78064,19.1464 5.3784,19.2633 4.9738,19.3717 4.56702,19.4716 4.15823,19.563 3.74763,19.6457 3.33537,19.7199 2.92166,19.7854 2.50666,19.8423 2.09057,19.8904 1.67356,19.9299 1.25581,19.9605 0.837513,19.9825 0.418848,19.9956 0,20 -0.418848,19.9956 -0.837513,19.9825 -1.25581,19.9605 -1.67356,19.9299 -2.09057,19.8904 -2.50666,19.8423 -2.92166,19.7854 -3.33537,19.7199 -3.74763,19.6457 -4.15823,19.563 -4.56702,19.4716 -4.9738,19.3717 -5.3784,19.2633 -5.78064,19.1464 -6.18034,19.0211 -6.57733,18.8875 -6.97144,18.7456 -7.36249,18.5955 -7.75031,18.4373 -8.13473,18.2709 -8.51559,18.0965 -8.8927,17.9142 -9.26592,17.7241 -9.63507,17.5261 -10,17.3205 l -0.3605,-0.2132 -0.356,-0.2207 -0.3513,-0.2282 -0.3465,-0.2354 -0.3414,-0.2427 -0.3363,-0.2497 -0.331,-0.2567 -0.3255,-0.2636 -0.3199,-0.2704 -0.3142,-0.277 -0.3083,-0.2835 -0.3024,-0.2899 -0.2962,-0.2962 -0.2899,-0.3024 -0.2835,-0.3083 -0.277,-0.3142 -0.2704,-0.3199 -0.2636,-0.3255 -0.2567,-0.331 -0.2497,-0.3363 -0.2427,-0.3414 -0.2354,-0.3465 -0.2282,-0.3513 -0.2207,-0.356 L -17.3205,10 -17.5261,9.63507 -17.7241,9.26592 -17.9142,8.8927 -18.0965,8.51559 -18.2709,8.13473 -18.4373,7.75031 -18.5955,7.36249 -18.7456,6.97144 -18.8875,6.57733 -19.0211,6.18034 -19.1464,5.78064 -19.2633,5.3784 -19.3717,4.9738 -19.4716,4.56702 -19.563,4.15823 l -0.0827,-0.4106 -0.0742,-0.41226 -0.0655,-0.41371 -0.0569,-0.415 -0.0481,-0.41609 -0.0395,-0.41701 -0.0306,-0.41775 -0.022,-0.418297 -0.0131,-0.418665 z"
     stroke="#000000"
     fill="#d3d3d3"
     stroke-width="0.5"
     id="path1"
     style="display:inline" />
</svg>
