<?xml version="1.0" encoding="UTF-8" standalone="no"?>
<svg
   width="220.254mm"
   height="220.254mm"
   viewBox="-60 -60 220.254 220.254"
   version="1.1"
   id="svg1"
   sodipodi:docname="cyclone-bottom-glass-cut.svg"
   inkscape:version="1.3 (0e150ed, 2023-07-21)"
   xmlns:inkscape="http://www.inkscape.org/namespaces/inkscape"
   xmlns:sodipodi="http://sodipodi.sourceforge.net/DTD/sodipodi-0.dtd"
   xmlns="http://www.w3.org/2000/svg"
   xmlns:svg="http://www.w3.org/2000/svg"
   xmlns:rdf="http://www.w3.org/1999/02/22-rdf-syntax-ns#"
   xmlns:cc="http://creativecommons.org/ns#"
   xmlns:dc="http://purl.org/dc/elements/1.1/">
  <defs
     id="defs1" />
  <sodipodi:namedview
     id="namedview1"
     pagecolor="#505050"
     bordercolor="#ffffff"
     borderopacity="1"
     inkscape:showpageshadow="0"
     inkscape:pageopacity="0"
     inkscape:pagecheckerboard="1"
     inkscape:deskcolor="#d1d1d1"
     inkscape:document-units="mm"
     inkscape:zoom="1.0286091"
     inkscape:cx="466.16349"
     inkscape:cy="413.17932"
     inkscape:window-width="1920"
     inkscape:window-height="1052"
     inkscape:window-x="0"
     inkscape:window-y="28"
     inkscape:window-maximized="0"
     inkscape:current-layer="svg1" />
  <title
     id="title1">OpenSCAD Model</title>
  <path
     d="m 98.527,50.127 4e-4,-0.03351 0.001,-0.03349 0.0018,-0.03346 0.0024,-0.03342 0.0032,-0.03336 0.0038,-0.03329 0.0046,-0.0332 0.0052,-0.0331 0.0059,-0.03298 0.0067,-0.03285 0.0073,-0.0327 0.008,-0.03254 0.0086,-0.03237 0.0094,-0.03218 0.01,-0.03198 0.0107,-0.03176 0.0113,-0.03153 0.0121,-0.03128 0.0126,-0.03103 0.0133,-0.03075 0.014,-0.03047 0.0146,-0.03017 0.0152,-0.02986 0.0158,-0.02953 0.0165,-0.02919 0.017,-0.02884 0.0177,-0.02848 0.0182,-0.0281 0.0189,-0.02772 0.0194,-0.02732 0.02,-0.0269 0.0205,-0.02648 0.0211,-0.02604 0.0216,-0.02559 0.0222,-0.02514 0.0227,-0.02466 0.0231,-0.02419 0.0237,-0.0237 0.0242,-0.02319 0.0247,-0.02268 0.0251,-0.02216 0.0256,-0.02163 0.0261,-0.02109 0.0264,-0.02054 0.0269,-0.01998 0.0274,-0.01941 0.0277,-0.01883 0.0281,-0.01825 0.0285,-0.01766 0.0288,-0.01706 0.0292,-0.01645 0.0295,-0.01583 0.0299,-0.01522 0.0302,-0.01458 0.0304,-0.01395 0.0308,-0.01331 0.031,-0.01266 0.0313,-0.01201 0.0315,-0.01135 0.0318,-0.01069 0.0319,-0.01002 0.0322,-0.0093 0.0324,-0.0087 0.0325,-0.008 0.0327,-0.0073 0.0329,-0.0066 0.033,-0.0059 0.0331,-0.0053 0.0332,-0.0045 0.0333,-0.0038 0.0333,-0.0032 0.0334,-0.0024 0.0335,-0.0018 0.0335,-0.001 0.0335,-3.5e-4 0.0335,3.5e-4 0.0335,0.001 0.0335,0.0018 0.0334,0.0024 0.0333,0.0032 0.0333,0.0038 0.0332,0.0045 0.0331,0.0053 0.033,0.0059 0.0329,0.0066 0.0327,0.0073 0.0325,0.008 0.0324,0.0087 0.0322,0.0093 0.0319,0.01002 0.0318,0.01069 0.0315,0.01135 0.0313,0.01201 0.031,0.01266 0.0308,0.01331 0.0304,0.01395 0.0302,0.01458 0.0299,0.01522 0.0295,0.01583 0.0292,0.01645 0.0288,0.01706 0.0285,0.01766 0.0281,0.01825 0.0277,0.01883 0.0274,0.01941 0.0269,0.01998 0.0264,0.02054 0.0261,0.02109 0.0256,0.02163 0.0251,0.02216 0.0247,0.02268 0.0242,0.02319 0.0237,0.0237 0.0231,0.02419 0.0227,0.02466 0.0222,0.02514 0.0216,0.02559 0.0211,0.02604 0.0205,0.02648 0.02,0.0269 0.0194,0.02732 0.0189,0.02772 0.0182,0.0281 0.0177,0.02848 0.017,0.02884 0.0165,0.02919 0.0158,0.02953 0.0152,0.02986 0.0146,0.03017 0.014,0.03047 0.0133,0.03075 0.0126,0.03103 0.0121,0.03128 0.0113,0.03153 0.0107,0.03176 0.01,0.03198 0.009,0.03218 0.009,0.03237 0.008,0.03254 0.007,0.0327 0.007,0.03285 0.006,0.03298 0.005,0.0331 0.005,0.0332 0.004,0.03329 0.003,0.03336 0.002,0.03342 0.002,0.03346 0.001,0.03349 4e-4,0.03351 -4e-4,0.03351 -0.001,0.03349 -0.002,0.03346 -0.002,0.03342 -0.003,0.03336 -0.004,0.03329 -0.005,0.0332 -0.005,0.0331 -0.006,0.03298 -0.007,0.03285 -0.007,0.0327 -0.008,0.03254 -0.009,0.03237 -0.009,0.03218 -0.01,0.03198 -0.0107,0.03176 -0.0113,0.03153 -0.0121,0.03128 -0.0126,0.03103 -0.0133,0.03075 -0.014,0.03047 -0.0146,0.03017 -0.0152,0.02986 -0.0158,0.02953 -0.0165,0.02919 -0.017,0.02884 -0.0177,0.02848 -0.0182,0.0281 -0.0189,0.02772 -0.0194,0.02732 -0.02,0.0269 -0.0205,0.02648 -0.0211,0.02604 -0.0216,0.02559 -0.0222,0.02514 -0.0227,0.02466 -0.0231,0.02419 -0.0237,0.0237 -0.0242,0.02319 -0.0247,0.02268 -0.0251,0.02216 -0.0256,0.02163 -0.0261,0.02109 -0.0264,0.02054 -0.0269,0.01998 -0.0274,0.01941 -0.0277,0.01883 -0.0281,0.01825 -0.0285,0.01766 -0.0288,0.01706 -0.0292,0.01645 -0.0295,0.01583 -0.0299,0.01522 -0.0302,0.01458 -0.0304,0.01395 -0.0308,0.01331 -0.031,0.01266 -0.0313,0.01201 -0.0315,0.01135 -0.0318,0.01069 -0.0319,0.01002 -0.0322,0.0093 -0.0324,0.0087 -0.0325,0.008 -0.0327,0.0073 -0.0329,0.0066 -0.033,0.0059 -0.0331,0.0052 -0.0332,0.0045 -0.0333,0.0038 -0.0333,0.0032 -0.0334,0.0025 -0.0335,0.0018 -0.0335,0.001 -0.0335,3.5e-4 -0.0335,-3.5e-4 -0.0335,-0.001 -0.0335,-0.0018 -0.0334,-0.0025 -0.0333,-0.0032 -0.0333,-0.0038 -0.0332,-0.0045 -0.0331,-0.0052 -0.033,-0.0059 -0.0329,-0.0066 -0.0327,-0.0073 -0.0325,-0.008 -0.0324,-0.0087 -0.0322,-0.0093 -0.0319,-0.01002 -0.0318,-0.01069 -0.0315,-0.01135 -0.0313,-0.01201 -0.031,-0.01266 -0.0308,-0.01331 -0.0304,-0.01395 -0.0302,-0.01458 -0.0299,-0.01522 -0.0295,-0.01583 -0.0292,-0.01645 -0.0288,-0.01706 -0.0285,-0.01766 -0.0281,-0.01825 -0.0277,-0.01883 -0.0274,-0.01941 -0.0269,-0.01998 -0.0264,-0.02054 -0.0261,-0.02109 -0.0256,-0.02163 -0.0251,-0.02216 -0.0247,-0.02268 -0.0242,-0.02319 -0.0237,-0.0237 -0.0231,-0.02419 -0.0227,-0.02466 -0.0222,-0.02514 -0.0216,-0.02559 -0.0211,-0.02604 -0.0205,-0.02648 -0.02,-0.0269 -0.0194,-0.02732 -0.0189,-0.02772 -0.0182,-0.0281 -0.0177,-0.02848 -0.017,-0.02884 -0.0165,-0.02919 -0.0158,-0.02953 -0.0152,-0.02986 -0.0146,-0.03017 -0.014,-0.03047 -0.0133,-0.03075 -0.0126,-0.03103 -0.0121,-0.03128 -0.0113,-0.03153 -0.0107,-0.03176 -0.01,-0.03198 -0.0094,-0.03218 -0.0086,-0.03237 -0.008,-0.03254 -0.0073,-0.0327 -0.0067,-0.03285 -0.0059,-0.03298 -0.0052,-0.0331 -0.0046,-0.0332 -0.0038,-0.03329 -0.0032,-0.03336 -0.0024,-0.03342 -0.0018,-0.03346 -0.001,-0.03349 z"
     id="path19"
     style="fill:none;stroke:#ff0000" />
  <path
     d="m 83.8824,14.7884 v -0.0335 l 7e-4,-0.0335 0.0014,-0.0335 0.0021,-0.0334 0.0028,-0.0334 0.0035,-0.0333 0.0042,-0.0333 0.0049,-0.0331 0.0056,-0.0331 0.0063,-0.0329 0.007,-0.0328 0.0076,-0.0326 0.0084,-0.0324 0.009,-0.0323 0.0097,-0.0321 0.0103,-0.0319 0.011,-0.0316 0.0117,-0.0314 0.0123,-0.0312 0.013,-0.0309 0.0137,-0.0306 0.0142,-0.0303 0.0149,-0.03 0.0156,-0.0297 0.0161,-0.0294 0.0168,-0.029 0.0173,-0.0287 0.018,-0.0283 0.0185,-0.0279 0.0191,-0.0275 0.0197,-0.0271 0.0203,-0.0267 0.0208,-0.0263 0.0214,-0.0258 0.0219,-0.0253 0.0224,-0.0249 0.0229,-0.0245 0.0235,-0.0239 0.0239,-0.0235 0.0244,-0.0229 0.0249,-0.0224 0.0254,-0.0219 0.0258,-0.0214 0.0263,-0.0208 0.0267,-0.0202 0.0271,-0.0197 0.0275,-0.0192 0.0279,-0.0185 0.0283,-0.018 0.0287,-0.0173 0.029,-0.0168 0.0294,-0.0161 0.0297,-0.0155 0.03,-0.0149 0.0303,-0.0143 0.0306,-0.0136 0.0309,-0.013 0.0312,-0.0124 0.0314,-0.0116 0.0316,-0.0111 0.0319,-0.0103 0.0321,-0.0097 0.0322,-0.009 0.0325,-0.0084 0.0326,-0.0076 0.0328,-0.007 0.0329,-0.0063 0.033,-0.0055 0.0332,-0.0049 0.0332,-0.0042 0.0334,-0.0035 0.0334,-0.0028 0.0334,-0.0021 0.0335,-0.0014 0.0335,-8e-4 h 0.0335 l 0.0335,8e-4 0.0335,0.0014 0.0334,0.0021 0.0334,0.0028 0.0333,0.0035 0.0333,0.0042 0.0331,0.0049 0.0331,0.0055 0.0329,0.0063 0.0328,0.007 0.0326,0.0076 0.0324,0.0084 0.0323,0.009 0.0321,0.0097 0.0319,0.0103 0.0316,0.0111 0.0314,0.0116 0.0312,0.0124 0.0309,0.013 0.0306,0.0136 0.0303,0.0143 0.03,0.0149 0.0297,0.0155 0.0294,0.0161 0.029,0.0168 0.0287,0.0173 0.0283,0.018 0.0279,0.0185 0.0275,0.0192 0.0271,0.0197 0.0267,0.0202 0.0263,0.0208 0.0258,0.0214 0.0253,0.0219 0.0249,0.0224 0.0245,0.0229 0.0239,0.0235 0.0235,0.0239 0.0229,0.0245 0.0224,0.0249 0.0219,0.0253 0.0214,0.0258 0.0208,0.0263 0.0202,0.0267 0.0197,0.0271 0.0192,0.0275 0.0185,0.0279 0.018,0.0283 0.0173,0.0287 0.0168,0.029 0.0161,0.0294 0.0155,0.0297 0.0149,0.03 0.0143,0.0303 0.0136,0.0306 0.013,0.0309 0.0124,0.0312 0.0116,0.0314 0.0111,0.0316 0.0103,0.0319 0.0097,0.0321 0.009,0.0323 0.0084,0.0324 0.0076,0.0326 0.007,0.0328 0.0063,0.0329 0.0055,0.0331 0.0049,0.0331 0.0042,0.0333 0.0035,0.0333 0.0028,0.0334 0.0021,0.0334 0.0014,0.0335 8e-4,0.0335 v 0.0335 l -8e-4,0.0335 -0.0014,0.0335 -0.0021,0.0334 -0.0028,0.0334 -0.0035,0.0334 -0.0042,0.0332 -0.0049,0.0332 -0.0055,0.033 -0.0063,0.0329 -0.007,0.0328 -0.0076,0.0326 -0.0084,0.0325 -0.009,0.0322 -0.0097,0.0321 -0.0103,0.0319 -0.0111,0.0316 -0.0116,0.0314 -0.0124,0.0312 -0.013,0.0309 -0.0136,0.0306 -0.0143,0.0303 -0.0149,0.03 -0.0155,0.0297 -0.0161,0.0294 -0.0168,0.029 -0.0173,0.0287 -0.018,0.0283 -0.0185,0.0279 -0.0192,0.0275 -0.0197,0.0271 -0.0202,0.0267 -0.0208,0.0263 -0.0214,0.0258 -0.0219,0.0254 -0.0224,0.0249 -0.0229,0.0244 -0.0235,0.0239 -0.0239,0.0235 -0.0245,0.0229 -0.0249,0.0224 -0.0253,0.0219 -0.0258,0.0214 -0.0263,0.0208 -0.0267,0.0203 -0.0271,0.0197 -0.0275,0.0191 -0.0279,0.0185 -0.0283,0.018 -0.0287,0.0173 -0.029,0.0168 -0.0294,0.0161 -0.0297,0.0156 -0.03,0.0149 -0.0303,0.0142 -0.0306,0.0137 -0.0309,0.013 -0.0312,0.0123 -0.0314,0.0117 -0.0316,0.011 -0.0319,0.0103 -0.0321,0.0097 -0.0323,0.009 -0.0324,0.0084 -0.0326,0.0076 -0.0328,0.007 -0.0329,0.0063 -0.0331,0.0056 -0.0331,0.0049 -0.0333,0.0042 -0.0333,0.0035 -0.0334,0.0028 -0.0334,0.0021 -0.0335,0.0014 -0.0335,7e-4 h -0.0335 l -0.0335,-7e-4 -0.0335,-0.0014 -0.0334,-0.0021 -0.0334,-0.0028 -0.0334,-0.0035 -0.0332,-0.0042 -0.0332,-0.0049 -0.033,-0.0056 -0.0329,-0.0063 -0.0328,-0.007 -0.0326,-0.0076 -0.0325,-0.0084 -0.0322,-0.009 -0.0321,-0.0097 -0.0319,-0.0103 -0.0316,-0.011 -0.0314,-0.0117 -0.0312,-0.0123 -0.0309,-0.013 -0.0306,-0.0137 -0.0303,-0.0142 -0.03,-0.0149 -0.0297,-0.0156 -0.0294,-0.0161 -0.029,-0.0168 -0.0287,-0.0173 -0.0283,-0.018 L 84.583,16.095 84.5555,16.0759 84.5284,16.0562 84.5017,16.0359 84.4754,16.0151 84.4496,15.9937 84.4242,15.9718 84.3993,15.9494 84.3749,15.9265 84.351,15.903 84.3275,15.8791 84.3046,15.8547 84.2822,15.8298 84.2603,15.8044 84.2389,15.7786 84.2181,15.7523 84.1978,15.7256 84.1781,15.6985 84.159,15.671 84.1405,15.6431 84.1225,15.6148 84.1052,15.5861 84.0884,15.5571 84.0723,15.5277 84.0567,15.498 84.0418,15.468 84.0276,15.4377 84.0139,15.4071 84.0009,15.3762 83.9886,15.345 83.9769,15.3136 83.9659,15.282 83.9556,15.2501 83.9459,15.218 83.9369,15.1858 83.9285,15.1533 83.9209,15.1207 83.9139,15.0879 83.9076,15.055 83.902,15.022 83.8971,14.9888 83.8929,14.9556 83.8894,14.9222 83.8866,14.8888 83.8845,14.8554 83.8831,14.8219 Z"
     id="path18"
     style="fill:none;stroke:#ff0000" />
  <path
     d="m 83.8824,85.4991 v -0.0335 l 7e-4,-0.0335 0.0014,-0.0335 0.0021,-0.0334 0.0028,-0.0334 0.0035,-0.0334 0.0042,-0.0332 0.0049,-0.0332 0.0056,-0.033 0.0063,-0.0329 0.007,-0.0328 0.0076,-0.0326 0.0084,-0.0325 0.009,-0.0322 0.0097,-0.0321 0.0103,-0.0319 0.011,-0.0316 0.0117,-0.0314 0.0123,-0.0312 0.013,-0.0309 0.0137,-0.0306 0.0142,-0.0303 0.0149,-0.03 0.0156,-0.0297 0.0161,-0.0294 0.0168,-0.029 0.0173,-0.0287 0.018,-0.0283 0.0185,-0.0279 0.0191,-0.0275 0.0197,-0.0271 0.0203,-0.0267 0.0208,-0.0263 0.0214,-0.0258 0.0219,-0.0254 0.0224,-0.0249 0.0229,-0.0244 0.0235,-0.0239 0.0239,-0.0235 0.0244,-0.0229 0.0249,-0.0224 0.0254,-0.0219 0.0258,-0.0214 0.0263,-0.0208 0.0267,-0.0203 0.0271,-0.0197 0.0275,-0.0191 0.0279,-0.0185 0.0283,-0.018 0.0287,-0.0173 0.029,-0.0168 0.0294,-0.0161 0.0297,-0.0156 0.03,-0.0149 0.0303,-0.0142 0.0306,-0.0137 0.0309,-0.013 0.0312,-0.0123 0.0314,-0.0117 0.0316,-0.011 0.0319,-0.0103 0.0321,-0.0097 0.0322,-0.009 0.0325,-0.0084 0.0326,-0.0076 0.0328,-0.007 0.0329,-0.0063 0.033,-0.0056 0.0332,-0.0049 0.0332,-0.0042 0.0334,-0.0035 0.0334,-0.0028 0.0334,-0.0021 0.0335,-0.0014 0.0335,-7e-4 h 0.0335 l 0.0335,7e-4 0.0335,0.0014 0.0334,0.0021 0.0334,0.0028 0.0333,0.0035 0.0333,0.0042 0.0331,0.0049 0.0331,0.0056 0.0329,0.0063 0.0328,0.007 0.0326,0.0076 0.0324,0.0084 0.0323,0.009 0.0321,0.0097 0.0319,0.0103 0.0316,0.011 0.0314,0.0117 0.0312,0.0123 0.0309,0.013 0.0306,0.0137 0.0303,0.0142 0.03,0.0149 0.0297,0.0156 0.0294,0.0161 0.029,0.0168 0.0287,0.0173 0.0283,0.018 0.0279,0.0185 0.0275,0.0191 0.0271,0.0197 0.0267,0.0203 0.0263,0.0208 0.0258,0.0214 0.0253,0.0219 0.0249,0.0224 0.0245,0.0229 0.0239,0.0235 0.0235,0.0239 0.0229,0.0244 0.0224,0.0249 0.0219,0.0254 0.0214,0.0258 0.0208,0.0263 0.0202,0.0267 0.0197,0.0271 0.0192,0.0275 0.0185,0.0279 0.018,0.0283 0.0173,0.0287 0.0168,0.029 0.0161,0.0294 0.0155,0.0297 0.0149,0.03 0.0143,0.0303 0.0136,0.0306 0.013,0.0309 0.0124,0.0312 0.0116,0.0314 0.0111,0.0316 0.0103,0.0319 0.0097,0.0321 0.009,0.0322 0.0084,0.0325 0.0076,0.0326 0.007,0.0328 0.0063,0.0329 0.0055,0.033 0.0049,0.0332 0.0042,0.0332 0.0035,0.0334 0.0028,0.0334 0.0021,0.0334 0.0014,0.0335 8e-4,0.0335 v 0.0335 l -8e-4,0.0335 -0.0014,0.0335 -0.0021,0.0334 -0.0028,0.0334 -0.0035,0.0333 -0.0042,0.0333 -0.0049,0.0331 -0.0055,0.0331 -0.0063,0.0329 -0.007,0.0328 -0.0076,0.0326 -0.0084,0.0324 -0.009,0.0323 -0.0097,0.0321 -0.0103,0.0319 -0.0111,0.0316 -0.0116,0.0314 -0.0124,0.0312 -0.013,0.0309 -0.0136,0.0306 -0.0143,0.0303 -0.0149,0.03 -0.0155,0.0297 -0.0161,0.0294 -0.0168,0.029 -0.0173,0.0287 -0.018,0.0283 -0.0185,0.0279 -0.0192,0.0275 -0.0197,0.0271 -0.0202,0.0267 -0.0208,0.0263 -0.0214,0.0258 -0.0219,0.0253 -0.0224,0.0249 -0.0229,0.0245 -0.0235,0.0239 -0.0239,0.0235 -0.0245,0.0229 -0.0249,0.0224 -0.0253,0.0219 -0.0258,0.0214 -0.0263,0.0208 -0.0267,0.0202 -0.0271,0.0197 -0.0275,0.0192 -0.0279,0.0185 -0.0283,0.018 -0.0287,0.0173 -0.029,0.0168 -0.0294,0.0161 -0.0297,0.0155 -0.03,0.0149 -0.0303,0.0143 -0.0306,0.0136 -0.0309,0.013 -0.0312,0.0124 -0.0314,0.0116 -0.0316,0.0111 -0.0319,0.0103 -0.0321,0.0097 -0.0323,0.009 -0.0324,0.0084 -0.0326,0.0076 -0.0328,0.007 -0.0329,0.0063 -0.0331,0.0055 -0.0331,0.0049 -0.0333,0.0042 -0.0333,0.0035 -0.0334,0.0028 -0.0334,0.0021 -0.0335,0.0014 -0.0335,8e-4 h -0.0335 l -0.0335,-8e-4 -0.0335,-0.0014 -0.0334,-0.0021 -0.0334,-0.0028 -0.0334,-0.0035 -0.0332,-0.0042 -0.0332,-0.0049 -0.033,-0.0055 -0.0329,-0.0063 -0.0328,-0.007 -0.0326,-0.0076 -0.0325,-0.0084 -0.0322,-0.009 -0.0321,-0.0097 -0.0319,-0.0103 -0.0316,-0.0111 -0.0314,-0.0116 -0.0312,-0.0124 -0.0309,-0.013 -0.0306,-0.0136 -0.0303,-0.0143 -0.03,-0.0149 -0.0297,-0.0155 -0.0294,-0.0161 -0.029,-0.0168 -0.0287,-0.0173 -0.0283,-0.018 -0.0279,-0.0185 -0.0275,-0.0192 -0.0271,-0.0197 -0.0267,-0.0202 -0.0263,-0.0208 -0.0258,-0.0214 -0.0254,-0.0219 -0.0249,-0.0224 -0.0244,-0.0229 -0.0239,-0.0235 -0.0235,-0.0239 -0.0229,-0.0245 -0.0224,-0.0249 -0.0219,-0.0253 -0.0214,-0.0258 -0.0208,-0.0263 -0.0203,-0.0267 -0.0197,-0.0271 -0.0191,-0.0275 -0.0185,-0.0279 -0.018,-0.0283 -0.0173,-0.0287 -0.0168,-0.029 -0.0161,-0.0294 -0.0156,-0.0297 -0.0149,-0.03 -0.0142,-0.0303 -0.0137,-0.0306 -0.013,-0.0309 -0.0123,-0.0312 -0.0117,-0.0314 -0.011,-0.0316 -0.0103,-0.0319 -0.0097,-0.0321 -0.009,-0.0323 -0.0084,-0.0324 -0.0076,-0.0326 -0.007,-0.0328 -0.0063,-0.0329 -0.0056,-0.0331 -0.0049,-0.0331 -0.0042,-0.0333 -0.0035,-0.0333 -0.0028,-0.0334 -0.0021,-0.0334 -0.0014,-0.0335 z"
     id="path17"
     style="fill:none;stroke:#ff0000" />
  <path
     d="m 48.527,0.127 3.5e-4,-0.0335 0.001,-0.0335 0.0018,-0.0335 0.0024,-0.0334 0.0032,-0.0333 0.0038,-0.0333 0.0045,-0.0332 0.0053,-0.0331 0.0059,-0.033 0.0066,-0.0329 0.0073,-0.0327 0.008,-0.0325 0.0087,-0.0324 0.0093,-0.0322 0.01002,-0.0319 0.01069,-0.0318 0.01135,-0.0315 0.01201,-0.0313 0.01266,-0.031 0.01331,-0.0308 0.01395,-0.0304 0.01458,-0.0302 0.01522,-0.0299 0.01583,-0.0295 0.01645,-0.0292 0.01706,-0.0288 0.01766,-0.0285 0.01825,-0.0281 0.01883,-0.0277 0.01941,-0.0274 0.01998,-0.0269 0.02054,-0.0264 0.02109,-0.0261 0.02163,-0.0256 0.02216,-0.0251 0.02268,-0.0247 0.02319,-0.0242 0.0237,-0.0237 0.02419,-0.0231 0.02466,-0.0227 0.02514,-0.0222 0.02559,-0.0216 0.02604,-0.0211 0.02648,-0.0205 0.0269,-0.02 0.02732,-0.0194 0.02772,-0.0189 0.0281,-0.0182 0.02848,-0.0177 0.02884,-0.017 0.02919,-0.0165 0.02953,-0.0158 0.02986,-0.0152 0.03017,-0.0146 0.03047,-0.014 0.03075,-0.0133 0.03103,-0.0126 0.03128,-0.0121 0.03153,-0.0113 0.03176,-0.0107 0.03198,-0.01 0.03218,-0.0094 0.03237,-0.0086 0.03254,-0.008 0.0327,-0.0073 0.03285,-0.0067 0.03298,-0.0059 0.0331,-0.0052 0.0332,-0.0046 0.03329,-0.0038 0.03336,-0.0032 0.03342,-0.0024 0.03346,-0.0018 0.03349,-10e-4 0.03351,-4e-4 0.03351,4e-4 0.03349,10e-4 0.03346,0.0018 0.03342,0.0024 0.03336,0.0032 0.03329,0.0038 0.0332,0.0046 0.0331,0.0052 0.03298,0.0059 0.03285,0.0067 0.0327,0.0073 0.03254,0.008 0.03237,0.0086 0.03218,0.0094 0.03198,0.01 0.03176,0.0107 0.03153,0.0113 0.03128,0.0121 0.03103,0.0126 0.03075,0.0133 0.03047,0.014 0.03017,0.0146 0.02986,0.0152 0.02953,0.0158 0.02919,0.0165 0.02884,0.017 0.02848,0.0177 0.0281,0.0182 0.02772,0.0189 0.02732,0.0194 0.0269,0.02 0.02648,0.0205 0.02604,0.0211 0.02559,0.0216 0.02514,0.0222 0.02466,0.0227 0.02419,0.0231 0.0237,0.0237 0.02319,0.0242 0.02268,0.0247 0.02216,0.0251 0.02163,0.0256 0.02109,0.0261 0.02054,0.0264 0.01998,0.0269 0.01941,0.0274 0.01883,0.0277 0.01825,0.0281 0.01766,0.0285 0.01706,0.0288 0.01645,0.0292 0.01583,0.0295 0.01522,0.0299 0.01458,0.0302 0.01395,0.0304 0.01331,0.0308 0.01266,0.031 0.01201,0.0313 0.01135,0.0315 0.01069,0.0318 0.01002,0.0319 0.0093,0.0322 0.0087,0.0324 0.008,0.0325 0.0073,0.0327 0.0066,0.0329 0.0059,0.033 0.0052,0.0331 0.0045,0.0332 0.0038,0.0333 0.0032,0.0333 0.0025,0.0334 0.0018,0.0335 0.001,0.0335 3.5e-4,0.0335 -3.5e-4,0.0335 -0.001,0.0335 -0.0018,0.0335 -0.0025,0.0334 -0.0032,0.0333 -0.0038,0.0333 -0.0045,0.0332 -0.0052,0.0331 -0.0059,0.033 -0.0066,0.0329 -0.0073,0.0327 -0.008,0.0325 -0.0087,0.0324 -0.0093,0.0322 -0.01002,0.0319 -0.01069,0.0318 -0.01135,0.0315 -0.01201,0.0313 -0.01266,0.031 -0.01331,0.0308 -0.01395,0.0304 -0.01458,0.0302 -0.01522,0.0299 -0.01583,0.0295 -0.01645,0.0292 -0.01706,0.0288 -0.01766,0.0285 -0.01825,0.0281 -0.01883,0.0277 -0.01941,0.0274 -0.01998,0.0269 -0.02054,0.0264 -0.02109,0.0261 -0.02163,0.0256 -0.02216,0.0251 -0.02268,0.0247 -0.02319,0.0242 -0.0237,0.0237 -0.02419,0.0231 -0.02466,0.0227 -0.02514,0.0222 -0.02559,0.0216 -0.02604,0.0211 -0.02648,0.0205 -0.0269,0.02 -0.02732,0.0194 -0.02772,0.0189 -0.0281,0.0182 -0.02848,0.0177 -0.02884,0.017 -0.02919,0.0165 -0.02953,0.0158 -0.02986,0.0152 -0.03017,0.0146 -0.03047,0.014 -0.03075,0.0133 -0.03103,0.0126 -0.03128,0.0121 -0.03153,0.0113 -0.03176,0.0107 -0.03198,0.01 -0.03218,0.0094 -0.03237,0.0086 -0.03254,0.008 -0.0327,0.0073 -0.03285,0.0067 -0.03298,0.0059 -0.0331,0.0052 -0.0332,0.0046 -0.03329,0.0038 -0.03336,0.0032 -0.03342,0.0024 -0.03346,0.0018 -0.03349,10e-4 -0.03351,4e-4 -0.03351,-4e-4 -0.03349,-10e-4 -0.03346,-0.0018 -0.03342,-0.0024 -0.03336,-0.0032 -0.03329,-0.0038 -0.0332,-0.0046 -0.0331,-0.0052 -0.03298,-0.0059 -0.03285,-0.0067 -0.0327,-0.0073 -0.03254,-0.008 -0.03237,-0.0086 -0.03218,-0.0094 -0.03198,-0.01 -0.03176,-0.0107 -0.03153,-0.0113 -0.03128,-0.0121 -0.03103,-0.0126 -0.03075,-0.0133 -0.03047,-0.014 -0.03017,-0.0146 -0.02986,-0.0152 -0.02953,-0.0158 -0.02919,-0.0165 -0.02884,-0.017 -0.02848,-0.0177 -0.0281,-0.0182 -0.02772,-0.0189 -0.02732,-0.0194 -0.0269,-0.02 L 49.133164,1.3809 49.10712,1.3598 49.08153,1.3382 49.05639,1.316 49.03173,1.2933 49.00754,1.2702 48.98384,1.2465 48.96065,1.2223 48.93797,1.1976 48.91581,1.1725 48.89418,1.1469 48.87309,1.1208 48.85255,1.0944 48.83257,1.0675 48.81316,1.0401 48.79433,1.0124 48.77608,0.9843 48.75842,0.9558 48.74136,0.927 48.72491,0.8978 48.70908,0.8683 48.69386,0.8384 48.67928,0.8082 48.66533,0.7778 48.65202,0.747 48.63936,0.716 48.62735,0.6847 48.616,0.6532 48.60531,0.6214 48.59529,0.5895 48.58594,0.5573 48.57727,0.5249 48.56927,0.4924 48.56196,0.4597 48.55534,0.4268 48.54941,0.3938 48.54416,0.3607 48.53962,0.3275 48.53577,0.2942 48.53261,0.2609 48.53016,0.2275 48.5284,0.194 48.52735,0.1605 Z"
     id="path16"
     style="fill:none;stroke:#ff0000" />
  <path
     d="m 48.527,100.127 3.5e-4,-0.0335 0.001,-0.0335 0.0018,-0.0335 0.0024,-0.0334 0.0032,-0.0333 0.0038,-0.0333 0.0045,-0.0332 0.0053,-0.0331 0.0059,-0.033 0.0066,-0.0329 0.0073,-0.0327 0.008,-0.0325 0.0087,-0.0324 0.0093,-0.0322 0.01002,-0.0319 0.01069,-0.0318 0.01135,-0.0315 0.01201,-0.0313 0.01266,-0.031 0.01331,-0.0308 0.01395,-0.0304 0.01458,-0.0302 0.01522,-0.0299 0.01583,-0.0295 0.01645,-0.0292 0.01706,-0.0288 0.01766,-0.0285 0.01825,-0.0281 0.01883,-0.0277 0.01941,-0.0274 0.01998,-0.0269 0.02054,-0.0264 0.02109,-0.0261 0.02163,-0.0256 0.02216,-0.0251 0.02268,-0.0247 0.02319,-0.0242 0.0237,-0.0237 0.02419,-0.0231 0.02466,-0.0227 0.02514,-0.0222 0.02559,-0.0216 0.02604,-0.0211 0.02648,-0.0205 0.0269,-0.02 0.02732,-0.0194 0.02772,-0.0189 0.0281,-0.0182 0.02848,-0.0177 0.02884,-0.017 0.02919,-0.0165 0.02953,-0.0158 0.02986,-0.0152 0.03017,-0.0146 0.03047,-0.014 0.03075,-0.0133 0.03103,-0.0126 0.03128,-0.0121 0.03153,-0.0113 0.03176,-0.0107 0.03198,-0.01 0.03218,-0.0094 0.03237,-0.0086 0.03254,-0.008 0.0327,-0.0073 0.03285,-0.0067 0.03298,-0.0059 0.0331,-0.0052 0.0332,-0.0046 0.03329,-0.0038 0.03336,-0.0032 0.03342,-0.0024 0.03346,-0.0018 0.03349,-0.001 0.03351,-4e-4 0.03351,4e-4 0.03349,0.001 0.03346,0.0018 0.03342,0.0024 0.03336,0.0032 0.03329,0.0038 0.0332,0.0046 0.0331,0.0052 0.03298,0.0059 0.03285,0.0067 0.0327,0.0073 0.03254,0.008 0.03237,0.0086 0.03218,0.0094 0.03198,0.01 0.03176,0.0107 0.03153,0.0113 0.03128,0.0121 0.03103,0.0126 0.03075,0.0133 0.03047,0.014 0.03017,0.0146 0.02986,0.0152 0.02953,0.0158 0.02919,0.0165 0.02884,0.017 0.02848,0.0177 0.0281,0.0182 0.02772,0.0189 0.02732,0.0194 0.0269,0.02 0.02648,0.0205 0.02604,0.0211 0.02559,0.0216 0.02514,0.0222 0.02466,0.0227 0.02419,0.0231 0.0237,0.0237 0.02319,0.0242 0.02268,0.0247 0.02216,0.0251 0.02163,0.0256 0.02109,0.0261 0.02054,0.0264 0.01998,0.0269 0.01941,0.0274 0.01883,0.0277 0.01825,0.0281 0.01766,0.0285 0.01706,0.0288 0.01645,0.0292 0.01583,0.0295 0.01522,0.0299 0.01458,0.0302 0.01395,0.0304 0.01331,0.0308 0.01266,0.031 0.01201,0.0313 0.01135,0.0315 0.01069,0.0318 0.01002,0.0319 0.0093,0.0322 0.0087,0.0324 0.008,0.0325 0.0073,0.0327 0.0066,0.0329 0.0059,0.033 0.0052,0.0331 0.0045,0.0332 0.0038,0.0333 0.0032,0.0333 0.0025,0.0334 0.0018,0.0335 0.001,0.0335 3.5e-4,0.0335 -3.5e-4,0.0335 -0.001,0.0335 -0.0018,0.0335 -0.0025,0.0334 -0.0032,0.0333 -0.0038,0.0333 -0.0045,0.0332 -0.0052,0.0331 -0.0059,0.033 -0.0066,0.0329 -0.0073,0.0327 -0.008,0.0325 -0.0087,0.0324 -0.0093,0.0322 -0.01002,0.0319 -0.01069,0.0318 -0.01135,0.0315 -0.01201,0.0313 -0.01266,0.031 -0.01331,0.0308 -0.01395,0.0304 -0.01458,0.0302 -0.01522,0.0299 -0.01583,0.0295 -0.01645,0.0292 -0.01706,0.0288 -0.01766,0.0285 -0.01825,0.0281 -0.01883,0.0277 -0.01941,0.0274 -0.01998,0.0269 -0.02054,0.0264 -0.02109,0.0261 -0.02163,0.0256 -0.02216,0.0251 -0.02268,0.0247 -0.02319,0.0242 -0.0237,0.0237 -0.02419,0.0231 -0.02466,0.0227 -0.02514,0.0222 -0.02559,0.0216 -0.02604,0.0211 -0.02648,0.0205 -0.0269,0.02 -0.02732,0.0194 -0.02772,0.0189 -0.0281,0.0182 -0.02848,0.0177 -0.02884,0.017 -0.02919,0.0165 -0.02953,0.0158 -0.02986,0.0152 -0.03017,0.0146 -0.03047,0.014 -0.03075,0.0133 -0.03103,0.0126 -0.03128,0.0121 -0.03153,0.0113 -0.03176,0.0107 -0.03198,0.01 -0.03218,0.009 -0.03237,0.009 -0.03254,0.008 -0.0327,0.007 -0.03285,0.007 -0.03298,0.006 -0.0331,0.005 -0.0332,0.005 -0.03329,0.004 -0.03336,0.003 -0.03342,0.002 -0.03346,0.002 -0.03349,0.001 -0.03351,4e-4 -0.03351,-4e-4 -0.03349,-0.001 -0.03346,-0.002 -0.03342,-0.002 -0.03336,-0.003 -0.03329,-0.004 -0.0332,-0.005 -0.0331,-0.005 -0.03298,-0.006 -0.03285,-0.007 -0.0327,-0.007 -0.03254,-0.008 -0.03237,-0.009 -0.03218,-0.009 -0.03198,-0.01 -0.03176,-0.0107 -0.03153,-0.0113 -0.03128,-0.0121 -0.03103,-0.0126 -0.03075,-0.0133 -0.03047,-0.014 -0.03017,-0.0146 -0.02986,-0.0152 -0.02953,-0.0158 -0.02919,-0.0165 -0.02884,-0.017 -0.02848,-0.0177 -0.0281,-0.0182 -0.02772,-0.0189 -0.02732,-0.0194 -0.0269,-0.02 -0.02648,-0.0205 -0.02604,-0.0211 -0.02559,-0.0216 -0.02514,-0.0222 -0.02466,-0.0227 -0.02419,-0.0231 -0.0237,-0.0237 -0.02319,-0.0242 -0.02268,-0.0247 -0.02216,-0.0251 -0.02163,-0.0256 -0.02109,-0.0261 -0.02054,-0.0264 -0.01998,-0.0269 -0.01941,-0.0274 -0.01883,-0.0277 -0.01825,-0.0281 -0.01766,-0.0285 -0.01706,-0.0288 -0.01645,-0.0292 -0.01583,-0.0295 -0.01522,-0.0299 -0.01458,-0.0302 -0.01395,-0.0304 -0.01331,-0.0308 -0.01266,-0.031 -0.01201,-0.0313 -0.01135,-0.0315 -0.01069,-0.0318 -0.01002,-0.0319 -0.0093,-0.0322 -0.0087,-0.0324 -0.008,-0.0325 -0.0073,-0.0327 -0.0066,-0.0329 -0.0059,-0.033 -0.0053,-0.0331 -0.0045,-0.0332 -0.0038,-0.0333 -0.0032,-0.0333 -0.0024,-0.0334 -0.0018,-0.0335 -0.001,-0.0335 z"
     id="path15"
     style="fill:none;stroke:#ff0000" />
  <path
     d="m 29.8014,50.127 0.0044,-0.416753 10e-5,-0.0089 0.0131,-0.416571 2e-4,-0.0089 0.0219,-0.416203 4e-4,-0.0089 0.0306,-0.41566 6e-4,-0.0089 0.0392,-0.41493 9e-4,-0.0089 0.0479,-0.41402 0.001,-0.0089 0.0566,-0.41292 0.0012,-0.0088 0.0652,-0.41165 0.0014,-0.0088 0.0738,-0.41019 0.0015,-0.0088 0.0824,-0.40856 0.0018,-0.0087 0.0909,-0.40673 0.0019,-0.0087 0.0995,-0.40475 0.0021,-0.0087 0.1079,-0.40257 0.0023,-0.0086 0.1162,-0.40023 0.0025,-0.0086 0.1247,-0.3977 0.0026,-0.0085 0.133,-0.39501 0.0028,-0.0084 0.1412,-0.39213 0.003,-0.0084 0.1494,-0.38909 0.0032,-0.0083 0.1574,-0.38588 0.0034,-0.0082 0.1655,-0.3825 0.0036,-0.0082 0.1735,-0.37895 0.0037,-0.0081 0.1814,-0.37523 0.0038,-0.008 0.1893,-0.37135 0.004,-0.0079 0.1969,-0.36731 0.0043,-0.0079 0.2046,-0.36308 0.0043,-0.0078 0.2122,-0.3587 0.0045,-0.0077 0.2196,-0.3542 0.0047,-0.0076 0.227,-0.3495 0.0049,-0.0075 0.2343,-0.3447 0.005,-0.0074 0.2414,-0.3397 0.0052,-0.0073 0.2485,-0.3346 0.0053,-0.0071 0.2554,-0.3293 0.0055,-0.0071 0.2623,-0.3239 0.0056,-0.0069 0.269,-0.3183 0.0057,-0.0069 0.2757,-0.3126 0.0058,-0.0067 0.2822,-0.3068 0.006,-0.0065 0.2885,-0.3008 0.0061,-0.0065 0.301,-0.301 0.3008,-0.2884 0.0065,-0.0062 0.3068,-0.2821 0.0065,-0.0061 0.3127,-0.2756 0.0066,-0.0059 0.3184,-0.269 0.0068,-0.0057 0.3239,-0.2623 0.0069,-0.0056 0.3293,-0.2555 0.0071,-0.0054 0.3346,-0.2485 0.0071,-0.0053 0.3397,-0.2415 0.0073,-0.0051 0.3447,-0.2343 0.0074,-0.005 0.3495,-0.227 0.0075,-0.0049 0.3542,-0.2196 0.0076,-0.0047 0.3587,-0.2121 0.0077,-0.0046 0.36311,-0.2046 0.0078,-0.0043 0.3673,-0.197 0.0079,-0.0042 0.37135,-0.1892 0.0079,-0.0041 0.37523,-0.1814 0.008,-0.0038 0.37895,-0.1735 0.0081,-0.0037 0.3825,-0.1656 0.0082,-0.0035 0.38588,-0.1575 0.0082,-0.0033 0.3891,-0.1494 0.0083,-0.0032 0.39214,-0.1412 0.0084,-0.003 0.39501,-0.1329 0.0084,-0.0029 0.3977,-0.1246 0.0085,-0.0027 0.40023,-0.1163 0.0086,-0.0024 0.40257,-0.1079 0.0086,-0.0023 0.40475,-0.0994 0.0087,-0.0022 0.40673,-0.0909 0.0087,-0.0019 0.40856,-0.0824 0.0087,-0.0018 0.41019,-0.0738 0.0088,-0.0015 0.41164,-0.0652 0.0088,-0.0014 0.41292,-0.0566 0.0088,-0.0012 0.41401,-0.0479 0.0089,-10e-4 0.41493,-0.0393 0.0089,-8e-4 0.41566,-0.0305 0.0089,-7e-4 0.416201,-0.0218 0.0089,-5e-4 0.416571,-0.013 0.0089,-3e-4 0.416752,-0.0044 0.0089,-10e-5 0.416753,0.0044 0.0089,10e-5 0.416571,0.0131 0.0089,2e-4 0.416203,0.0219 0.0089,4e-4 0.41566,0.0306 0.0089,6e-4 0.41493,0.0392 0.0089,9e-4 0.41402,0.0479 0.0089,0.001 0.41292,0.0566 0.0088,0.0012 0.41165,0.0652 0.0088,0.0014 0.41019,0.0738 0.0088,0.0015 0.40856,0.0824 0.0087,0.0018 0.40673,0.0909 0.0087,0.0019 0.40475,0.0995 0.0087,0.0021 0.40257,0.1079 0.0086,0.0023 0.40023,0.1162 0.0086,0.0025 0.3977,0.1247 0.0085,0.0026 0.39501,0.133 0.0085,0.0028 0.39213,0.1412 0.0084,0.003 0.38909,0.1494 0.0083,0.0032 0.38588,0.1574 0.0083,0.0034 0.3825,0.1655 0.0082,0.0036 0.37895,0.1735 0.0081,0.0037 0.37523,0.1814 0.008,0.0038 0.37135,0.1893 0.0079,0.004 0.36731,0.1969 0.0078,0.0043 0.36308,0.2046 0.0078,0.0043 0.3587,0.2122 0.0077,0.0045 0.3542,0.2196 0.0076,0.0047 0.3495,0.227 0.0075,0.0049 0.3447,0.2343 0.0074,0.005 0.3397,0.2414 0.0073,0.0052 0.3346,0.2485 0.0071,0.0053 0.3293,0.2554 0.0071,0.0055 0.3239,0.2623 0.0069,0.0056 0.3183,0.269 0.0069,0.0057 0.3126,0.2757 0.0067,0.0058 0.3068,0.2822 0.0065,0.006 0.3008,0.2885 0.0065,0.0061 0.301,0.301 0.2884,0.3008 0.0062,0.0065 0.2821,0.3068 0.0061,0.0065 0.2756,0.3127 0.0059,0.0066 0.269,0.3184 0.0057,0.0068 0.2623,0.3239 0.0056,0.0069 0.2555,0.3293 0.0054,0.0071 0.2485,0.3346 0.0053,0.0071 0.2415,0.3397 0.0051,0.0073 0.2343,0.3447 0.005,0.0074 0.227,0.3495 0.0049,0.0075 0.2196,0.3542 0.0047,0.0076 0.2121,0.3587 0.0046,0.0077 0.2046,0.36311 0.0043,0.0078 0.197,0.3673 0.0042,0.0079 0.1892,0.37135 0.0041,0.0079 0.1814,0.37523 0.0038,0.008 0.1735,0.37895 0.0037,0.0081 0.1656,0.3825 0.0035,0.0082 0.1575,0.38588 0.0033,0.0082 0.1494,0.3891 0.0032,0.0083 0.1412,0.39214 0.003,0.0084 0.1329,0.39501 0.0029,0.0084 0.1246,0.3977 0.0027,0.0085 0.1163,0.40023 0.0024,0.0086 0.1079,0.40257 0.0023,0.0086 0.0994,0.40475 0.0022,0.0087 0.0909,0.40673 0.0019,0.0087 0.0824,0.40856 0.0018,0.0087 0.0738,0.41019 0.0015,0.0088 0.0652,0.41164 0.0014,0.0088 0.0566,0.41292 0.0012,0.0088 0.0479,0.41401 0.001,0.0089 0.0393,0.41493 8e-4,0.0089 0.0305,0.41566 7e-4,0.0089 0.0218,0.416201 5e-4,0.0089 0.013,0.416571 3e-4,0.0089 0.0044,0.416752 1e-4,0.0089 -0.0044,0.416753 -1e-4,0.0089 -0.0131,0.416571 -2e-4,0.0089 -0.0219,0.416203 -4e-4,0.0089 -0.0306,0.41566 -6e-4,0.0089 -0.0392,0.41493 -9e-4,0.0089 -0.0479,0.41402 -0.001,0.0089 -0.0566,0.41292 -0.0012,0.0088 -0.0652,0.41165 -0.0014,0.0088 -0.0738,0.41019 -0.0015,0.0088 -0.0824,0.40856 -0.0018,0.0087 -0.0909,0.40673 -0.0019,0.0087 -0.0995,0.40475 -0.0021,0.0087 -0.1079,0.40257 -0.0023,0.0086 -0.1162,0.40023 -0.0025,0.0086 -0.1247,0.3977 -0.0026,0.0085 -0.133,0.39501 -0.0028,0.0085 -0.1412,0.39213 -0.003,0.0084 -0.1494,0.38909 -0.0032,0.0083 -0.1574,0.38588 -0.0034,0.0083 -0.1655,0.3825 -0.0036,0.0082 -0.1735,0.37895 -0.0037,0.0081 -0.1814,0.37523 -0.0038,0.008 -0.1893,0.37135 -0.004,0.0079 -0.1969,0.36731 -0.0043,0.0078 -0.2046,0.36308 -0.0043,0.0078 -0.2122,0.3587 -0.0045,0.0077 -0.2196,0.3542 -0.0047,0.0076 -0.227,0.3495 -0.0049,0.0075 -0.2343,0.3447 -0.005,0.0074 -0.2414,0.3397 -0.0052,0.0073 -0.2485,0.3346 -0.0053,0.0071 -0.2554,0.3293 -0.0055,0.0071 -0.2623,0.3239 -0.0056,0.0069 -0.269,0.3183 -0.0057,0.0069 -0.2757,0.3126 -0.0058,0.0067 -0.2822,0.3068 -0.006,0.0065 -0.2885,0.3008 -0.0061,0.0065 -0.301,0.301 -0.3008,0.2884 -0.0065,0.0062 -0.3068,0.2821 -0.0065,0.0061 -0.3127,0.2756 -0.0066,0.0059 -0.3184,0.269 -0.0068,0.0057 -0.3239,0.2623 -0.0069,0.0056 -0.3293,0.2555 -0.0071,0.0054 -0.3346,0.2485 -0.0071,0.0053 -0.3397,0.2415 -0.0073,0.0051 -0.3447,0.2343 -0.0074,0.005 -0.3495,0.227 -0.0075,0.0049 -0.3542,0.2196 -0.0076,0.0047 -0.3587,0.2121 -0.0077,0.0046 -0.36311,0.2046 -0.0078,0.0043 -0.3673,0.197 -0.0079,0.0042 -0.37135,0.1892 -0.0079,0.0041 -0.37523,0.1814 -0.008,0.0038 -0.37895,0.1735 -0.0081,0.0037 -0.3825,0.1656 -0.0082,0.0035 -0.38588,0.1575 -0.0083,0.0033 -0.3891,0.1494 -0.0083,0.0032 -0.39214,0.1412 -0.0084,0.003 -0.39501,0.1329 -0.0085,0.0029 -0.3977,0.1246 -0.0085,0.0027 -0.40023,0.1163 -0.0086,0.0024 -0.40257,0.1079 -0.0086,0.0023 -0.40475,0.0994 -0.0087,0.0022 -0.40673,0.0909 -0.0087,0.0019 -0.40856,0.0824 -0.0087,0.0018 -0.41019,0.0738 -0.0088,0.0015 -0.41164,0.0652 -0.0088,0.0014 -0.41292,0.0566 -0.0088,0.0012 -0.41401,0.0479 -0.0089,0.001 -0.41493,0.0393 -0.0089,8e-4 -0.41566,0.0305 -0.0089,7e-4 -0.416201,0.0218 -0.0089,5e-4 -0.416571,0.013 -0.0089,3e-4 -0.416752,0.0044 -0.0089,1e-4 -0.416753,-0.0044 -0.0089,-1e-4 -0.416571,-0.0131 -0.0089,-2e-4 -0.416203,-0.0219 -0.0089,-4e-4 -0.41566,-0.0306 -0.0089,-6e-4 -0.41493,-0.0392 -0.0089,-9e-4 -0.41402,-0.0479 -0.0089,-0.001 -0.41292,-0.0566 -0.0088,-0.0012 -0.41165,-0.0652 -0.0088,-0.0014 -0.41019,-0.0738 -0.0088,-0.0015 -0.40856,-0.0824 -0.0087,-0.0018 -0.40673,-0.0909 -0.0087,-0.0019 -0.40475,-0.0995 -0.0087,-0.0021 -0.40257,-0.1079 -0.0086,-0.0023 -0.40023,-0.1162 -0.0086,-0.0025 -0.3977,-0.1247 -0.0085,-0.0026 -0.39501,-0.133 -0.0084,-0.0028 -0.39213,-0.1412 -0.0084,-0.003 -0.38909,-0.1494 -0.0083,-0.0032 -0.38588,-0.1574 -0.0082,-0.0034 -0.3825,-0.1655 -0.0082,-0.0036 -0.37895,-0.1735 -0.0081,-0.0037 -0.37523,-0.1814 -0.008,-0.0038 -0.37135,-0.1893 -0.0079,-0.004 -0.36731,-0.1969 -0.0079,-0.0043 -0.36308,-0.2046 -0.0078,-0.0043 -0.3587,-0.2122 -0.0077,-0.0045 -0.3542,-0.2196 -0.0076,-0.0047 -0.3495,-0.227 -0.0075,-0.0049 -0.3447,-0.2343 -0.0074,-0.005 -0.3397,-0.2414 -0.0073,-0.0052 -0.3346,-0.2485 -0.0071,-0.0053 -0.3293,-0.2554 -0.0071,-0.0055 -0.3239,-0.2623 -0.0069,-0.0056 -0.3183,-0.269 -0.0069,-0.0057 -0.3126,-0.2757 -0.0067,-0.0058 -0.3068,-0.2822 -0.0065,-0.006 -0.3008,-0.2885 -0.0065,-0.0061 -0.301,-0.301 -0.2884,-0.3008 -0.0062,-0.0065 -0.2821,-0.3068 -0.0061,-0.0065 -0.2756,-0.3127 -0.0059,-0.0066 -0.269,-0.3184 -0.0057,-0.0068 -0.2623,-0.3239 -0.0056,-0.0069 -0.2555,-0.3293 -0.0054,-0.0071 -0.2485,-0.3346 -0.0053,-0.0071 -0.2415,-0.3397 -0.0051,-0.0073 -0.2343,-0.3447 -0.005,-0.0074 -0.227,-0.3495 -0.0049,-0.0075 -0.2196,-0.3542 -0.0047,-0.0076 -0.2121,-0.3587 -0.0046,-0.0077 -0.2046,-0.36311 -0.0043,-0.0078 -0.197,-0.3673 -0.0042,-0.0079 -0.1892,-0.37135 -0.0041,-0.0079 -0.1814,-0.37523 -0.0038,-0.008 -0.1735,-0.37895 -0.0037,-0.0081 -0.1656,-0.3825 -0.0035,-0.0082 -0.1575,-0.38588 -0.0033,-0.0083 -0.1494,-0.3891 -0.0032,-0.0083 -0.1412,-0.39214 -0.003,-0.0084 -0.1329,-0.39501 -0.0029,-0.0085 -0.1246,-0.3977 -0.0027,-0.0085 -0.1163,-0.40023 -0.0024,-0.0086 -0.1079,-0.40257 -0.0023,-0.0086 -0.0994,-0.40475 -0.0022,-0.0087 -0.0909,-0.40673 -0.0019,-0.0087 -0.0824,-0.40856 -0.0018,-0.0087 -0.0738,-0.41019 -0.0015,-0.0088 -0.0652,-0.41164 -0.0014,-0.0088 -0.0566,-0.41292 -0.0012,-0.0088 -0.0479,-0.41401 -10e-4,-0.0089 -0.0393,-0.41493 -8e-4,-0.0089 -0.0305,-0.41566 -7e-4,-0.0089 -0.0218,-0.416201 -5e-4,-0.0089 -0.013,-0.416571 -3e-4,-0.0089 -0.0044,-0.416752 z"
     id="path14"
     style="fill:none;stroke:#0000ff" />
  <path
     d="m 13.1717,14.7884 v -0.0335 l 8e-4,-0.0335 0.0014,-0.0335 0.0021,-0.0334 0.0028,-0.0334 0.0035,-0.0333 0.0042,-0.0333 0.0049,-0.0331 0.0055,-0.0331 0.0063,-0.0329 0.007,-0.0328 0.0076,-0.0326 0.0084,-0.0324 0.009,-0.0323 0.0097,-0.0321 0.0103,-0.0319 0.0111,-0.0316 0.0116,-0.0314 0.0124,-0.0312 0.013,-0.0309 0.0136,-0.0306 0.0143,-0.0303 0.0149,-0.03 0.0155,-0.0297 0.0161,-0.0294 0.0168,-0.029 0.0173,-0.0287 0.018,-0.0283 0.0185,-0.0279 0.0192,-0.0275 0.0197,-0.0271 0.0202,-0.0267 0.0208,-0.0263 0.0214,-0.0258 0.0219,-0.0253 0.0224,-0.0249 0.0229,-0.0245 0.0235,-0.0239 0.0239,-0.0235 0.0245,-0.0229 0.0249,-0.0224 0.0253,-0.0219 0.0258,-0.0214 0.0263,-0.0208 0.0267,-0.0202 0.0271,-0.0197 0.0275,-0.0192 0.0279,-0.0185 0.0283,-0.018 0.0287,-0.0173 0.029,-0.0168 0.0294,-0.0161 0.0297,-0.0155 0.03,-0.0149 0.0303,-0.0143 0.0306,-0.0136 0.0309,-0.013 0.0312,-0.0124 0.0314,-0.0116 0.0316,-0.0111 0.0319,-0.0103 0.0321,-0.0097 0.0323,-0.009 0.0324,-0.0084 0.0326,-0.0076 0.0328,-0.007 0.0329,-0.0063 0.0331,-0.0055 0.0331,-0.0049 0.0333,-0.0042 0.0333,-0.0035 0.0334,-0.0028 0.0334,-0.0021 0.0335,-0.0014 0.0335,-8e-4 h 0.0335 l 0.0335,8e-4 0.0335,0.0014 0.0334,0.0021 0.0334,0.0028 0.0334,0.0035 0.0332,0.0042 0.0332,0.0049 0.033,0.0055 0.0329,0.0063 0.0328,0.007 0.0326,0.0076 0.0325,0.0084 0.0322,0.009 0.0321,0.0097 0.0319,0.0103 0.0316,0.0111 0.0314,0.0116 0.0312,0.0124 0.0309,0.013 0.0306,0.0136 0.0303,0.0143 0.03,0.0149 0.0297,0.0155 0.0294,0.0161 0.029,0.0168 0.0287,0.0173 0.0283,0.018 0.0279,0.0185 0.0275,0.0192 0.0271,0.0197 0.0267,0.0202 0.0263,0.0208 0.0258,0.0214 0.0254,0.0219 0.0249,0.0224 0.0244,0.0229 0.0239,0.0235 0.0235,0.0239 0.0229,0.0245 0.0224,0.0249 0.0219,0.0253 0.0214,0.0258 0.0208,0.0263 0.0203,0.0267 0.0197,0.0271 0.0191,0.0275 0.0185,0.0279 0.018,0.0283 0.0173,0.0287 0.0168,0.029 0.0161,0.0294 0.0156,0.0297 0.0149,0.03 0.0142,0.0303 0.0137,0.0306 0.013,0.0309 0.0123,0.0312 0.0117,0.0314 0.011,0.0316 0.0103,0.0319 0.0097,0.0321 0.009,0.0323 0.0084,0.0324 0.0076,0.0326 0.007,0.0328 0.0063,0.0329 0.0056,0.0331 0.0049,0.0331 0.0042,0.0333 0.0035,0.0333 0.0028,0.0334 0.0021,0.0334 0.0014,0.0335 7e-4,0.0335 v 0.0335 l -7e-4,0.0335 -0.0014,0.0335 -0.0021,0.0334 -0.0028,0.0334 -0.0035,0.0334 -0.0042,0.0332 -0.0049,0.0332 -0.0056,0.033 -0.0063,0.0329 -0.007,0.0328 -0.0076,0.0326 -0.0084,0.0325 -0.009,0.0322 -0.0097,0.0321 -0.0103,0.0319 -0.011,0.0316 -0.0117,0.0314 -0.0123,0.0312 -0.013,0.0309 -0.0137,0.0306 -0.0142,0.0303 -0.0149,0.03 -0.0156,0.0297 -0.0161,0.0294 -0.0168,0.029 -0.0173,0.0287 -0.018,0.0283 -0.0185,0.0279 -0.0191,0.0275 -0.0197,0.0271 -0.0203,0.0267 -0.0208,0.0263 -0.0214,0.0258 -0.0219,0.0254 -0.0224,0.0249 -0.0229,0.0244 -0.0235,0.0239 -0.0239,0.0235 -0.0244,0.0229 -0.0249,0.0224 -0.0254,0.0219 -0.0258,0.0214 -0.0263,0.0208 -0.0267,0.0203 -0.0271,0.0197 -0.0275,0.0191 -0.0279,0.0185 -0.0283,0.018 -0.0287,0.0173 -0.029,0.0168 -0.0294,0.0161 -0.0297,0.0156 -0.03,0.0149 -0.0303,0.0142 -0.0306,0.0137 -0.0309,0.013 -0.0312,0.0123 -0.0314,0.0117 -0.0316,0.011 -0.0319,0.0103 -0.0321,0.0097 -0.0322,0.009 -0.0325,0.0084 -0.0326,0.0076 -0.0328,0.007 -0.0329,0.0063 -0.033,0.0056 -0.0332,0.0049 -0.0332,0.0042 -0.0334,0.0035 -0.0334,0.0028 -0.0334,0.0021 -0.0335,0.0014 -0.0335,7e-4 h -0.0335 l -0.0335,-7e-4 -0.0335,-0.0014 -0.0334,-0.0021 -0.0334,-0.0028 -0.0333,-0.0035 -0.0333,-0.0042 -0.0331,-0.0049 -0.0331,-0.0056 -0.0329,-0.0063 -0.0328,-0.007 -0.0326,-0.0076 -0.0324,-0.0084 -0.0323,-0.009 -0.0321,-0.0097 -0.0319,-0.0103 -0.0316,-0.011 -0.0314,-0.0117 -0.0312,-0.0123 -0.0309,-0.013 -0.0306,-0.0137 -0.0303,-0.0142 -0.03,-0.0149 -0.0297,-0.0156 -0.0294,-0.0161 -0.029,-0.0168 -0.0287,-0.0173 -0.0283,-0.018 L 13.8723,16.095 13.8448,16.0759 13.8177,16.0562 13.791,16.0359 13.7647,16.0151 13.7389,15.9937 13.7136,15.9718 13.6887,15.9494 13.6642,15.9265 13.6403,15.903 13.6168,15.8791 13.5939,15.8547 13.5715,15.8298 13.5496,15.8044 13.5282,15.7786 13.5074,15.7523 13.4872,15.7256 13.4675,15.6985 13.4483,15.671 13.4298,15.6431 13.4118,15.6148 13.3945,15.5861 13.3777,15.5571 13.3616,15.5277 13.3461,15.498 13.3312,15.468 13.3169,15.4377 13.3033,15.4071 13.2903,15.3762 13.2779,15.345 13.2663,15.3136 13.2552,15.282 13.2449,15.2501 13.2352,15.218 13.2262,15.1858 13.2178,15.1533 13.2102,15.1207 13.2032,15.0879 13.1969,15.055 13.1914,15.022 13.1865,14.9888 13.1823,14.9556 13.1788,14.9222 13.176,14.8888 13.1739,14.8554 13.1725,14.8219 Z"
     id="path13"
     style="fill:none;stroke:#ff0000" />
  <path
     d="m 13.1717,85.4991 v -0.0335 l 8e-4,-0.0335 0.0014,-0.0335 0.0021,-0.0334 0.0028,-0.0334 0.0035,-0.0334 0.0042,-0.0332 0.0049,-0.0332 0.0055,-0.033 0.0063,-0.0329 0.007,-0.0328 0.0076,-0.0326 0.0084,-0.0325 0.009,-0.0322 0.0097,-0.0321 0.0103,-0.0319 0.0111,-0.0316 0.0116,-0.0314 0.0124,-0.0312 0.013,-0.0309 0.0136,-0.0306 0.0143,-0.0303 0.0149,-0.03 0.0155,-0.0297 0.0161,-0.0294 0.0168,-0.029 0.0173,-0.0287 0.018,-0.0283 0.0185,-0.0279 0.0192,-0.0275 0.0197,-0.0271 0.0202,-0.0267 0.0208,-0.0263 0.0214,-0.0258 0.0219,-0.0254 0.0224,-0.0249 0.0229,-0.0244 0.0235,-0.0239 0.0239,-0.0235 0.0245,-0.0229 0.0249,-0.0224 0.0253,-0.0219 0.0258,-0.0214 0.0263,-0.0208 0.0267,-0.0203 0.0271,-0.0197 0.0275,-0.0191 0.0279,-0.0185 0.0283,-0.018 0.0287,-0.0173 0.029,-0.0168 0.0294,-0.0161 0.0297,-0.0156 0.03,-0.0149 0.0303,-0.0142 0.0306,-0.0137 0.0309,-0.013 0.0312,-0.0123 0.0314,-0.0117 0.0316,-0.011 0.0319,-0.0103 0.0321,-0.0097 0.0323,-0.009 0.0324,-0.0084 0.0326,-0.0076 0.0328,-0.007 0.0329,-0.0063 0.0331,-0.0056 0.0331,-0.0049 0.0333,-0.0042 0.0333,-0.0035 0.0334,-0.0028 0.0334,-0.0021 0.0335,-0.0014 0.0335,-7e-4 h 0.0335 l 0.0335,7e-4 0.0335,0.0014 0.0334,0.0021 0.0334,0.0028 0.0334,0.0035 0.0332,0.0042 0.0332,0.0049 0.033,0.0056 0.0329,0.0063 0.0328,0.007 0.0326,0.0076 0.0325,0.0084 0.0322,0.009 0.0321,0.0097 0.0319,0.0103 0.0316,0.011 0.0314,0.0117 0.0312,0.0123 0.0309,0.013 0.0306,0.0137 0.0303,0.0142 0.03,0.0149 0.0297,0.0156 0.0294,0.0161 0.029,0.0168 0.0287,0.0173 0.0283,0.018 0.0279,0.0185 0.0275,0.0191 0.0271,0.0197 0.0267,0.0203 0.0263,0.0208 0.0258,0.0214 0.0254,0.0219 0.0249,0.0224 0.0244,0.0229 0.0239,0.0235 0.0235,0.0239 0.0229,0.0244 0.0224,0.0249 0.0219,0.0254 0.0214,0.0258 0.0208,0.0263 0.0203,0.0267 0.0197,0.0271 0.0191,0.0275 0.0185,0.0279 0.018,0.0283 0.0173,0.0287 0.0168,0.029 0.0161,0.0294 0.0156,0.0297 0.0149,0.03 0.0142,0.0303 0.0137,0.0306 0.013,0.0309 0.0123,0.0312 0.0117,0.0314 0.011,0.0316 0.0103,0.0319 0.0097,0.0321 0.009,0.0322 0.0084,0.0325 0.0076,0.0326 0.007,0.0328 0.0063,0.0329 0.0056,0.033 0.0049,0.0332 0.0042,0.0332 0.0035,0.0334 0.0028,0.0334 0.0021,0.0334 0.0014,0.0335 7e-4,0.0335 v 0.0335 l -7e-4,0.0335 -0.0014,0.0335 -0.0021,0.0334 -0.0028,0.0334 -0.0035,0.0333 -0.0042,0.0333 -0.0049,0.0331 -0.0056,0.0331 -0.0063,0.0329 -0.007,0.0328 -0.0076,0.0326 -0.0084,0.0324 -0.009,0.0323 -0.0097,0.0321 -0.0103,0.0319 -0.011,0.0316 -0.0117,0.0314 -0.0123,0.0312 -0.013,0.0309 -0.0137,0.0306 -0.0142,0.0303 -0.0149,0.03 -0.0156,0.0297 -0.0161,0.0294 -0.0168,0.029 -0.0173,0.0287 -0.018,0.0283 -0.0185,0.0279 -0.0191,0.0275 -0.0197,0.0271 -0.0203,0.0267 -0.0208,0.0263 -0.0214,0.0258 -0.0219,0.0253 -0.0224,0.0249 -0.0229,0.0245 -0.0235,0.0239 -0.0239,0.0235 -0.0244,0.0229 -0.0249,0.0224 -0.0254,0.0219 -0.0258,0.0214 -0.0263,0.0208 -0.0267,0.0202 -0.0271,0.0197 -0.0275,0.0192 -0.0279,0.0185 -0.0283,0.018 -0.0287,0.0173 -0.029,0.0168 -0.0294,0.0161 -0.0297,0.0155 -0.03,0.0149 -0.0303,0.0143 -0.0306,0.0136 -0.0309,0.013 -0.0312,0.0124 -0.0314,0.0116 -0.0316,0.0111 -0.0319,0.0103 -0.0321,0.0097 -0.0322,0.009 -0.0325,0.0084 -0.0326,0.0076 -0.0328,0.007 -0.0329,0.0063 -0.033,0.0055 -0.0332,0.0049 -0.0332,0.0042 -0.0334,0.0035 -0.0334,0.0028 -0.0334,0.0021 -0.0335,0.0014 -0.0335,8e-4 h -0.0335 l -0.0335,-8e-4 -0.0335,-0.0014 -0.0334,-0.0021 -0.0334,-0.0028 -0.0333,-0.0035 -0.0333,-0.0042 -0.0331,-0.0049 -0.0331,-0.0055 -0.0329,-0.0063 -0.0328,-0.007 -0.0326,-0.0076 -0.0324,-0.0084 -0.0323,-0.009 -0.0321,-0.0097 -0.0319,-0.0103 -0.0316,-0.0111 -0.0314,-0.0116 -0.0312,-0.0124 -0.0309,-0.013 -0.0306,-0.0136 -0.0303,-0.0143 -0.03,-0.0149 -0.0297,-0.0155 -0.0294,-0.0161 -0.029,-0.0168 -0.0287,-0.0173 -0.0283,-0.018 -0.0279,-0.0185 -0.0275,-0.0192 -0.0271,-0.0197 -0.0267,-0.0202 -0.0263,-0.0208 -0.0258,-0.0214 -0.0253,-0.0219 -0.0249,-0.0224 -0.0245,-0.0229 -0.0239,-0.0235 -0.0235,-0.0239 -0.0229,-0.0245 -0.0224,-0.0249 -0.0219,-0.0253 -0.0214,-0.0258 -0.0208,-0.0263 -0.0202,-0.0267 -0.0197,-0.0271 -0.0192,-0.0275 -0.0185,-0.0279 -0.018,-0.0283 -0.0173,-0.0287 -0.0168,-0.029 -0.0161,-0.0294 -0.0155,-0.0297 -0.0149,-0.03 -0.0143,-0.0303 -0.0136,-0.0306 -0.013,-0.0309 -0.0124,-0.0312 -0.0116,-0.0314 -0.0111,-0.0316 -0.0103,-0.0319 -0.0097,-0.0321 -0.009,-0.0323 -0.0084,-0.0324 -0.0076,-0.0326 -0.007,-0.0328 -0.0063,-0.0329 -0.0055,-0.0331 -0.0049,-0.0331 -0.0042,-0.0333 -0.0035,-0.0333 -0.0028,-0.0334 -0.0021,-0.0334 -0.0014,-0.0335 z"
     id="path12"
     style="fill:none;stroke:#ff0000" />
  <path
     d="m -1.473,50.127 4e-4,-0.03351 10e-4,-0.03349 0.0018,-0.03346 0.0024,-0.03342 0.0032,-0.03336 0.0038,-0.03329 0.0046,-0.0332 0.0052,-0.0331 0.0059,-0.03298 0.0067,-0.03285 0.0073,-0.0327 0.008,-0.03254 0.0086,-0.03237 0.0094,-0.03218 0.01,-0.03198 0.0107,-0.03176 0.0113,-0.03153 0.0121,-0.03128 0.0126,-0.03103 0.0133,-0.03075 0.014,-0.03047 0.0146,-0.03017 0.0152,-0.02986 0.0158,-0.02953 0.0165,-0.02919 0.017,-0.02884 0.0177,-0.02848 0.0182,-0.0281 0.0189,-0.02772 0.0194,-0.02732 0.02,-0.0269 0.0205,-0.02648 0.0211,-0.02604 0.0216,-0.02559 0.0222,-0.02514 0.0227,-0.02466 0.0231,-0.02419 0.0237,-0.0237 0.0242,-0.02319 0.0247,-0.02268 0.0251,-0.02216 0.0256,-0.02163 0.0261,-0.02109 0.0264,-0.02054 0.0269,-0.01998 0.0274,-0.01941 0.0277,-0.01883 0.0281,-0.01825 0.0285,-0.01766 0.0288,-0.01706 0.0292,-0.01645 0.0295,-0.01583 0.0299,-0.01522 0.0302,-0.01458 0.0304,-0.01395 0.0308,-0.01331 0.031,-0.01266 0.0313,-0.01201 0.0315,-0.01135 0.0318,-0.01069 0.0319,-0.01002 0.0322,-0.0093 0.0324,-0.0087 0.0325,-0.008 0.0327,-0.0073 0.0329,-0.0066 0.033,-0.0059 0.0331,-0.0053 0.0332,-0.0045 0.0333,-0.0038 0.0333,-0.0032 0.0334,-0.0024 0.0335,-0.0018 0.0335,-0.001 0.0335,-3.5e-4 0.0335,3.5e-4 0.0335,0.001 0.0335,0.0018 0.0334,0.0024 0.0333,0.0032 0.0333,0.0038 0.0332,0.0045 0.0331,0.0053 0.033,0.0059 0.0329,0.0066 0.0327,0.0073 0.0325,0.008 0.0324,0.0087 0.0322,0.0093 0.0319,0.01002 0.0318,0.01069 0.0315,0.01135 0.0313,0.01201 0.031,0.01266 0.0308,0.01331 0.0304,0.01395 0.0302,0.01458 0.0299,0.01522 0.0295,0.01583 0.0292,0.01645 0.0288,0.01706 0.0285,0.01766 0.0281,0.01825 0.0277,0.01883 0.0274,0.01941 0.0269,0.01998 0.0264,0.02054 0.0261,0.02109 0.0256,0.02163 0.0251,0.02216 0.0247,0.02268 0.0242,0.02319 0.0237,0.0237 0.0231,0.02419 0.0227,0.02466 0.0222,0.02514 0.0216,0.02559 0.0211,0.02604 0.0205,0.02648 0.02,0.0269 0.0194,0.02732 0.0189,0.02772 0.0182,0.0281 0.0177,0.02848 0.017,0.02884 0.0165,0.02919 0.0158,0.02953 0.0152,0.02986 0.0146,0.03017 0.014,0.03047 0.0133,0.03075 0.0126,0.03103 0.0121,0.03128 0.0113,0.03153 0.0107,0.03176 0.01,0.03198 0.0094,0.03218 0.0086,0.03237 0.008,0.03254 0.0073,0.0327 0.0067,0.03285 0.0059,0.03298 0.0052,0.0331 0.0046,0.0332 0.0038,0.03329 0.0032,0.03336 0.0024,0.03342 0.0018,0.03346 10e-4,0.03349 4e-4,0.03351 -4e-4,0.03351 -10e-4,0.03349 -0.0018,0.03346 -0.0024,0.03342 -0.0032,0.03336 -0.0038,0.03329 -0.0046,0.0332 -0.0052,0.0331 -0.0059,0.03298 -0.0067,0.03285 -0.0073,0.0327 -0.008,0.03254 -0.0086,0.03237 -0.0094,0.03218 -0.01,0.03198 -0.0107,0.03176 -0.0113,0.03153 -0.0121,0.03128 -0.0126,0.03103 -0.0133,0.03075 -0.014,0.03047 -0.0146,0.03017 -0.0152,0.02986 -0.0158,0.02953 -0.0165,0.02919 -0.017,0.02884 -0.0177,0.02848 -0.0182,0.0281 -0.0189,0.02772 -0.0194,0.02732 -0.02,0.0269 -0.0205,0.02648 -0.0211,0.02604 -0.0216,0.02559 -0.0222,0.02514 -0.0227,0.02466 -0.0231,0.02419 -0.0237,0.0237 -0.0242,0.02319 -0.0247,0.02268 -0.0251,0.02216 -0.0256,0.02163 -0.0261,0.02109 -0.0264,0.02054 -0.0269,0.01998 -0.0274,0.01941 -0.0277,0.01883 -0.0281,0.01825 -0.0285,0.01766 -0.0288,0.01706 -0.0292,0.01645 -0.0295,0.01583 -0.0299,0.01522 -0.0302,0.01458 -0.0304,0.01395 -0.0308,0.01331 -0.031,0.01266 -0.0313,0.01201 -0.0315,0.01135 -0.0318,0.01069 -0.0319,0.01002 -0.0322,0.0093 -0.0324,0.0087 -0.0325,0.008 -0.0327,0.0073 -0.0329,0.0066 -0.033,0.0059 -0.0331,0.0052 -0.0332,0.0045 -0.0333,0.0038 -0.0333,0.0032 -0.0334,0.0025 -0.0335,0.0018 -0.0335,0.001 -0.0335,3.5e-4 -0.0335,-3.5e-4 -0.0335,-0.001 -0.0335,-0.0018 -0.0334,-0.0025 -0.0333,-0.0032 -0.0333,-0.0038 -0.0332,-0.0045 -0.0331,-0.0052 -0.033,-0.0059 -0.0329,-0.0066 -0.0327,-0.0073 -0.0325,-0.008 -0.0324,-0.0087 -0.0322,-0.0093 -0.0319,-0.01002 -0.0318,-0.01069 -0.0315,-0.01135 -0.0313,-0.01201 -0.031,-0.01266 -0.0308,-0.01331 -0.0304,-0.01395 -0.0302,-0.01458 -0.0299,-0.01522 -0.0295,-0.01583 -0.0292,-0.01645 -0.0288,-0.01706 -0.0285,-0.01766 -0.0281,-0.01825 -0.0277,-0.01883 -0.0274,-0.01941 -0.0269,-0.01998 -0.0264,-0.02054 -0.0261,-0.02109 -0.0256,-0.02163 -0.0251,-0.02216 -0.0247,-0.02268 -0.0242,-0.02319 -0.0237,-0.0237 -0.0231,-0.02419 -0.0227,-0.02466 -0.0222,-0.02514 -0.0216,-0.02559 -0.0211,-0.02604 -0.0205,-0.02648 -0.02,-0.0269 -0.0194,-0.02732 -0.0189,-0.02772 -0.0182,-0.0281 -0.0177,-0.02848 -0.017,-0.02884 -0.0165,-0.02919 -0.0158,-0.02953 -0.0152,-0.02986 -0.0146,-0.03017 -0.014,-0.03047 -0.0133,-0.03075 -0.0126,-0.03103 -0.0121,-0.03128 -0.0113,-0.03153 -0.0107,-0.03176 -0.01,-0.03198 -0.0094,-0.03218 -0.0086,-0.03237 -0.008,-0.03254 -0.0073,-0.0327 -0.0067,-0.03285 -0.0059,-0.03298 -0.0052,-0.0331 -0.0046,-0.0332 -0.0038,-0.03329 -0.0032,-0.03336 -0.0024,-0.03342 -0.0018,-0.03346 -10e-4,-0.03349 z"
     id="path11"
     style="fill:none;stroke:#ff0000" />
  <path
     d="m -9.873,50.127 0.0132,1.25655 0.0394,1.25599 0.0658,1.25489 0.092,1.25324 0.1183,1.25104 0.1444,1.24828 0.1706,1.24499 0.1965,1.24112 0.2226,1.2368 0.2483,1.2318 0.2742,1.2264 0.2997,1.2203 0.3252,1.2138 0.3506,1.2067 0.3758,1.1991 0.4008,1.191 0.4257,1.1823 0.4503,1.1732 0.4748,1.1634 0.4991,1.1533 0.5231,1.1426 0.5469,1.1313 0.5705,1.1197 0.5938,1.1074 0.6169,1.0948 0.6396,1.0816 0.6622,1.068 0.6844,1.0539 0.7063,1.0393 0.728,1.0243 0.7492,1.0088 0.7702,0.993 0.7908,0.9765 0.8111,0.9598 0.831,0.9426 0.8506,0.925 0.8697,0.907 0.8886,0.8886 0.907,0.8697 0.925,0.8506 0.9426,0.831 0.9598,0.8111 0.9765,0.7908 0.993,0.7702 1.0088,0.7492 1.0243,0.728 1.0393,0.7063 1.0539,0.6844 1.068,0.6622 1.0816,0.6396 1.0948,0.6169 1.1074,0.5938 1.1197,0.5705 1.1313,0.5469 1.1426,0.5231 1.1533,0.4991 1.1634,0.4748 1.1732,0.4503 1.1823,0.4257 1.191,0.4008 1.1991,0.3758 1.2067,0.3506 1.2138,0.3252 1.2203,0.2997 1.2264,0.2742 1.2318,0.2483 1.2368,0.2226 1.24112,0.1965 1.24499,0.1706 1.24828,0.1444 1.25104,0.1183 1.25324,0.092 1.25489,0.0658 1.25599,0.0394 1.25655,0.0132 1.25655,-0.0132 1.25599,-0.0394 1.25489,-0.0658 1.25324,-0.092 1.25104,-0.1183 1.24828,-0.1444 1.24499,-0.1706 1.24112,-0.1965 1.2368,-0.2226 1.2318,-0.2483 1.2264,-0.2742 1.2203,-0.2997 1.2138,-0.3252 1.2067,-0.3506 1.1991,-0.3758 1.191,-0.4008 1.1823,-0.4257 1.1732,-0.4503 1.1634,-0.4748 1.1533,-0.4991 1.1426,-0.5231 1.1313,-0.5469 1.1197,-0.5705 1.1074,-0.5938 1.0948,-0.6169 1.0816,-0.6396 1.068,-0.6622 1.0539,-0.6844 1.0393,-0.7063 1.0243,-0.728 1.0088,-0.7492 0.993,-0.7702 0.9765,-0.7908 0.9598,-0.8111 0.9426,-0.831 0.925,-0.8506 0.907,-0.8697 0.8886,-0.8886 0.8697,-0.907 0.8506,-0.925 0.831,-0.9426 0.8111,-0.9598 0.7908,-0.9765 0.7702,-0.993 0.7492,-1.0088 0.728,-1.0243 0.7063,-1.0393 0.6844,-1.0539 0.6622,-1.068 0.6396,-1.0816 0.6169,-1.0948 0.5938,-1.1074 0.5705,-1.1197 0.5469,-1.1313 0.5231,-1.1426 0.4991,-1.1533 0.4748,-1.1634 0.4503,-1.1732 0.4257,-1.1823 0.4008,-1.191 0.3758,-1.1991 0.3506,-1.2067 0.3252,-1.2138 0.2997,-1.2203 0.2742,-1.2264 0.2483,-1.2318 0.2226,-1.2368 0.1965,-1.24112 0.1706,-1.24499 0.1444,-1.24828 0.1183,-1.25104 0.092,-1.25324 0.0658,-1.25489 0.0394,-1.25599 0.0132,-1.25655 -0.0132,-1.25655 -0.0394,-1.25599 -0.0658,-1.25489 -0.092,-1.25324 -0.1183,-1.25104 -0.1444,-1.24828 -0.1706,-1.24499 -0.1965,-1.24112 -0.2226,-1.2368 -0.2483,-1.2318 -0.2742,-1.2264 -0.2997,-1.2203 -0.3252,-1.2138 -0.3506,-1.2067 -0.3758,-1.1991 -0.4008,-1.191 -0.4257,-1.1823 -0.4503,-1.1732 -0.4748,-1.1634 -0.4991,-1.1533 -0.5231,-1.1426 -0.5469,-1.1313 -0.5705,-1.1197 -0.5938,-1.1074 -0.6169,-1.0948 -0.6396,-1.0816 -0.6622,-1.068 -0.6844,-1.0539 L 99.396,15.8842 98.668,14.8599 97.9188,13.8511 97.1486,12.8581 96.3578,11.8816 95.5467,10.9218 94.7157,9.9792 93.8651,9.0542 92.9954,8.1472 92.1068,7.2586 91.1998,6.3889 90.2748,5.5383 89.3322,4.7073 88.3724,3.8962 87.3959,3.1054 86.4029,2.3352 85.3941,1.586 84.3698,0.858 83.3305,0.1517 82.2766,-0.5327 81.2086,-1.1949 80.127,-1.8345 79.0322,-2.4514 77.9248,-3.0452 76.8051,-3.6157 75.6738,-4.1626 74.5312,-4.6857 73.3779,-5.1848 72.2145,-5.6596 71.0413,-6.1099 69.859,-6.5356 68.668,-6.9364 67.4689,-7.3122 66.2622,-7.6628 65.0484,-7.988 63.8281,-8.2877 62.6017,-8.5619 61.3699,-8.8102 60.1331,-9.0328 58.89198,-9.2293 57.64699,-9.3999 56.39871,-9.5443 55.14767,-9.6626 53.89443,-9.7546 52.63954,-9.8204 51.38355,-9.8598 50.127,-9.873 l -1.25655,0.0132 -1.25599,0.0394 -1.25489,0.0658 -1.25324,0.092 -1.25104,0.1183 -1.24828,0.1444 -1.24499,0.1706 -1.24112,0.1965 -1.2368,0.2226 -1.2318,0.2483 -1.2264,0.2742 -1.2203,0.2997 -1.2138,0.3252 -1.2067,0.3506 -1.1991,0.3758 -1.191,0.4008 -1.1823,0.4257 -1.1732,0.4503 -1.1634,0.4748 -1.1533,0.4991 -1.1426,0.5231 -1.1313,0.5469 -1.1197,0.5705 -1.1074,0.5938 -1.0948,0.6169 -1.0816,0.6396 -1.068,0.6622 -1.0539,0.6844 -1.0393,0.7063 -1.0243,0.728 -1.0088,0.7492 -0.993,0.7702 -0.9765,0.7908 -0.9598,0.8111 -0.9426,0.831 -0.925,0.8506 -0.907,0.8697 -0.8886,0.8886 -0.8697,0.907 -0.8506,0.925 -0.831,0.9426 -0.8111,0.9598 -0.7908,0.9765 -0.7702,0.993 -0.7492,1.0088 -0.728,1.0243 -0.7063,1.0393 -0.6844,1.0539 -0.6622,1.068 -0.6396,1.0816 -0.6169,1.0948 -0.5938,1.1074 -0.5705,1.1197 -0.5469,1.1313 -0.5231,1.1426 -0.4991,1.1533 -0.4748,1.1634 -0.4503,1.1732 -0.4257,1.1823 -0.4008,1.191 -0.3758,1.1991 -0.3506,1.2067 -0.3252,1.2138 -0.2997,1.2203 -0.2742,1.2264 -0.2483,1.2318 -0.2226,1.2368 -0.1965,1.24112 -0.1706,1.24499 -0.1444,1.24828 -0.1183,1.25104 -0.092,1.25324 -0.0658,1.25489 -0.0394,1.25599 z"
     id="path1"
     style="fill:none;stroke:#00ff00" />
  <metadata
     id="metadata11">
    <rdf:RDF>
      <cc:Work
         rdf:about="">
        <dc:title>OpenSCAD Model</dc:title>
      </cc:Work>
    </rdf:RDF>
  </metadata>
  <circle
     style="fill:none;stroke:#336699;stroke-width:0.254"
     id="path11-2"
     cx="50.126999"
     cy="50.126999"
     r="110" />
</svg>
