<?xml version="1.0" standalone="no"?>
<!DOCTYPE svg PUBLIC "-//W3C//DTD SVG 1.1//EN" "http://www.w3.org/Graphics/SVG/1.1/DTD/svg11.dtd">
<svg width="180mm" height="180mm" viewBox="-90 -90 180 180" xmlns="http://www.w3.org/2000/svg" version="1.1">
<title>OpenSCAD Model</title>
<path d="
M -90,-0 L -89.9556,2.82697 L -89.8224,5.65115 L -89.6006,8.46975 L -89.2903,11.28 L -88.892,14.0791
 L -88.4059,16.8643 L -87.8325,19.6329 L -87.1725,22.3821 L -86.4264,25.1092 L -85.5951,27.8115 L -84.6793,30.4864
 L -83.6799,33.1312 L -82.5979,35.7433 L -81.4344,38.3201 L -80.1906,40.8591 L -78.8676,43.3578 L -77.4668,45.8137
 L -75.9895,48.2244 L -74.4373,50.5875 L -72.8115,52.9007 L -71.114,55.1616 L -69.3462,57.3682 L -67.51,59.5181
 L -65.6072,61.6092 L -63.6396,63.6396 L -61.6092,65.6072 L -59.5181,67.51 L -57.3682,69.3462 L -55.1616,71.114
 L -52.9007,72.8115 L -50.5875,74.4373 L -48.2244,75.9895 L -45.8137,77.4668 L -43.3578,78.8676 L -40.8591,80.1906
 L -38.3201,81.4344 L -35.7433,82.5979 L -33.1312,83.6799 L -30.4864,84.6793 L -27.8115,85.5951 L -25.1092,86.4264
 L -22.3821,87.1725 L -19.6329,87.8325 L -16.8643,88.4059 L -14.0791,88.892 L -11.28,89.2903 L -8.46975,89.6006
 L -5.65115,89.8224 L -2.82697,89.9556 L 0,90 L 2.82697,89.9556 L 5.65115,89.8224 L 8.46975,89.6006
 L 11.28,89.2903 L 14.0791,88.892 L 16.8643,88.4059 L 19.6329,87.8325 L 22.3821,87.1725 L 25.1092,86.4264
 L 27.8115,85.5951 L 30.4864,84.6793 L 33.1312,83.6799 L 35.7433,82.5979 L 38.3201,81.4344 L 40.8591,80.1906
 L 43.3578,78.8676 L 45.8137,77.4668 L 48.2244,75.9895 L 50.5875,74.4373 L 52.9007,72.8115 L 55.1616,71.114
 L 57.3682,69.3462 L 59.5181,67.51 L 61.6092,65.6072 L 63.6396,63.6396 L 65.6072,61.6092 L 67.51,59.5181
 L 69.3462,57.3682 L 71.114,55.1616 L 72.8115,52.9007 L 74.4373,50.5875 L 75.9895,48.2244 L 77.4668,45.8137
 L 78.8676,43.3578 L 80.1906,40.8591 L 81.4344,38.3201 L 82.5979,35.7433 L 83.6799,33.1312 L 84.6793,30.4864
 L 85.5951,27.8115 L 86.4264,25.1092 L 87.1725,22.3821 L 87.8325,19.6329 L 88.4059,16.8643 L 88.892,14.0791
 L 89.2903,11.28 L 89.6006,8.46975 L 89.8224,5.65115 L 89.9556,2.82697 L 90,-0 L 89.9556,-2.82697
 L 89.8224,-5.65115 L 89.6006,-8.46975 L 89.2903,-11.28 L 88.892,-14.0791 L 88.4059,-16.8643 L 87.8325,-19.6329
 L 87.1725,-22.3821 L 86.4264,-25.1092 L 85.5951,-27.8115 L 84.6793,-30.4864 L 83.6799,-33.1312 L 82.5979,-35.7433
 L 81.4344,-38.3201 L 80.1906,-40.8591 L 78.8676,-43.3578 L 77.4668,-45.8137 L 75.9895,-48.2244 L 74.4373,-50.5875
 L 72.8115,-52.9007 L 71.114,-55.1616 L 69.3462,-57.3682 L 67.51,-59.5181 L 65.6072,-61.6092 L 63.6396,-63.6396
 L 61.6092,-65.6072 L 59.5181,-67.51 L 57.3682,-69.3462 L 55.1616,-71.114 L 52.9007,-72.8115 L 50.5875,-74.4373
 L 48.2244,-75.9895 L 45.8137,-77.4668 L 43.3578,-78.8676 L 40.8591,-80.1906 L 38.3201,-81.4344 L 35.7433,-82.5979
 L 33.1312,-83.6799 L 30.4864,-84.6793 L 27.8115,-85.5951 L 25.1092,-86.4264 L 22.3821,-87.1725 L 19.6329,-87.8325
 L 16.8643,-88.4059 L 14.0791,-88.892 L 11.28,-89.2903 L 8.46975,-89.6006 L 5.65115,-89.8224 L 2.82697,-89.9556
 L 0,-90 L -2.82697,-89.9556 L -5.65115,-89.8224 L -8.46975,-89.6006 L -11.28,-89.2903 L -14.0791,-88.892
 L -16.8643,-88.4059 L -19.6329,-87.8325 L -22.3821,-87.1725 L -25.1092,-86.4264 L -27.8115,-85.5951 L -30.4864,-84.6793
 L -33.1312,-83.6799 L -35.7433,-82.5979 L -38.3201,-81.4344 L -40.8591,-80.1906 L -43.3578,-78.8676 L -45.8137,-77.4668
 L -48.2244,-75.9895 L -50.5875,-74.4373 L -52.9007,-72.8115 L -55.1616,-71.114 L -57.3682,-69.3462 L -59.5181,-67.51
 L -61.6092,-65.6072 L -63.6396,-63.6396 L -65.6072,-61.6092 L -67.51,-59.5181 L -69.3462,-57.3682 L -71.114,-55.1616
 L -72.8115,-52.9007 L -74.4373,-50.5875 L -75.9895,-48.2244 L -77.4668,-45.8137 L -78.8676,-43.3578 L -80.1906,-40.8591
 L -81.4344,-38.3201 L -82.5979,-35.7433 L -83.6799,-33.1312 L -84.6793,-30.4864 L -85.5951,-27.8115 L -86.4264,-25.1092
 L -87.1725,-22.3821 L -87.8325,-19.6329 L -88.4059,-16.8643 L -88.892,-14.0791 L -89.2903,-11.28 L -89.6006,-8.46975
 L -89.8224,-5.65115 L -89.9556,-2.82697 z
M -82,-0 L -81.9595,-2.57568 L -81.8382,-5.14882 L -81.6361,-7.71688 L -81.3534,-10.2773 L -80.9904,-12.8276
 L -80.5476,-15.3653 L -80.0252,-17.8877 L -79.4238,-20.3926 L -78.7441,-22.8773 L -77.9866,-25.3394 L -77.1522,-27.7765
 L -76.2417,-30.1862 L -75.2559,-32.5661 L -74.1958,-34.9139 L -73.0625,-37.2272 L -71.8571,-39.5038 L -70.5808,-41.7414
 L -69.2349,-43.9378 L -67.8206,-46.0908 L -66.3394,-48.1984 L -64.7927,-50.2584 L -63.1821,-52.2688 L -61.5091,-54.2276
 L -59.7754,-56.1329 L -57.9828,-57.9828 L -56.1329,-59.7754 L -54.2276,-61.5091 L -52.2688,-63.1821 L -50.2584,-64.7927
 L -48.1984,-66.3394 L -46.0908,-67.8206 L -43.9378,-69.2349 L -41.7414,-70.5808 L -39.5038,-71.8571 L -37.2272,-73.0625
 L -34.9139,-74.1958 L -32.5661,-75.2559 L -30.1862,-76.2417 L -27.7765,-77.1522 L -25.3394,-77.9866 L -22.8773,-78.7441
 L -20.3926,-79.4238 L -17.8877,-80.0252 L -15.3653,-80.5476 L -12.8276,-80.9904 L -10.2773,-81.3534 L -7.71688,-81.6361
 L -5.14882,-81.8382 L -2.57568,-81.9595 L 0,-82 L 2.57568,-81.9595 L 5.14882,-81.8382 L 7.71688,-81.6361
 L 10.2773,-81.3534 L 12.8276,-80.9904 L 15.3653,-80.5476 L 17.8877,-80.0252 L 20.3926,-79.4238 L 22.8773,-78.7441
 L 25.3394,-77.9866 L 27.7765,-77.1522 L 30.1862,-76.2417 L 32.5661,-75.2559 L 34.9139,-74.1958 L 37.2272,-73.0625
 L 39.5038,-71.8571 L 41.7414,-70.5808 L 43.9378,-69.2349 L 46.0908,-67.8206 L 48.1984,-66.3394 L 50.2584,-64.7927
 L 52.2688,-63.1821 L 54.2276,-61.5091 L 56.1329,-59.7754 L 57.9828,-57.9828 L 59.7754,-56.1329 L 61.5091,-54.2276
 L 63.1821,-52.2688 L 64.7927,-50.2584 L 66.3394,-48.1984 L 67.8206,-46.0908 L 69.2349,-43.9378 L 70.5808,-41.7414
 L 71.8571,-39.5038 L 73.0625,-37.2272 L 74.1958,-34.9139 L 75.2559,-32.5661 L 76.2417,-30.1862 L 77.1522,-27.7765
 L 77.9866,-25.3394 L 78.7441,-22.8773 L 79.4238,-20.3926 L 80.0252,-17.8877 L 80.5476,-15.3653 L 80.9904,-12.8276
 L 81.3534,-10.2773 L 81.6361,-7.71688 L 81.8382,-5.14882 L 81.9595,-2.57568 L 82,-0 L 81.9595,2.57568
 L 81.8382,5.14882 L 81.6361,7.71688 L 81.3534,10.2773 L 80.9904,12.8276 L 80.5476,15.3653 L 80.0252,17.8877
 L 79.4238,20.3926 L 78.7441,22.8773 L 77.9866,25.3394 L 77.1522,27.7765 L 76.2417,30.1862 L 75.2559,32.5661
 L 74.1958,34.9139 L 73.0625,37.2272 L 71.8571,39.5038 L 70.5808,41.7414 L 69.2349,43.9378 L 67.8206,46.0908
 L 66.3394,48.1984 L 64.7927,50.2584 L 63.1821,52.2688 L 61.5091,54.2276 L 59.7754,56.1329 L 57.9828,57.9828
 L 56.1329,59.7754 L 54.2276,61.5091 L 52.2688,63.1821 L 50.2584,64.7927 L 48.1984,66.3394 L 46.0908,67.8206
 L 43.9378,69.2349 L 41.7414,70.5808 L 39.5038,71.8571 L 37.2272,73.0625 L 34.9139,74.1958 L 32.5661,75.2559
 L 30.1862,76.2417 L 27.7765,77.1522 L 25.3394,77.9866 L 22.8773,78.7441 L 20.3926,79.4238 L 17.8877,80.0252
 L 15.3653,80.5476 L 12.8276,80.9904 L 10.2773,81.3534 L 7.71688,81.6361 L 5.14882,81.8382 L 2.57568,81.9595
 L 0,82 L -2.57568,81.9595 L -5.14882,81.8382 L -7.71688,81.6361 L -10.2773,81.3534 L -12.8276,80.9904
 L -15.3653,80.5476 L -17.8877,80.0252 L -20.3926,79.4238 L -22.8773,78.7441 L -25.3394,77.9866 L -27.7765,77.1522
 L -30.1862,76.2417 L -32.5661,75.2559 L -34.9139,74.1958 L -37.2272,73.0625 L -39.5038,71.8571 L -41.7414,70.5808
 L -43.9378,69.2349 L -46.0908,67.8206 L -48.1984,66.3394 L -50.2584,64.7927 L -52.2688,63.1821 L -54.2276,61.5091
 L -56.1329,59.7754 L -57.9828,57.9828 L -59.7754,56.1329 L -61.5091,54.2276 L -63.1821,52.2688 L -64.7927,50.2584
 L -66.3394,48.1984 L -67.8206,46.0908 L -69.2349,43.9378 L -70.5808,41.7414 L -71.8571,39.5038 L -73.0625,37.2272
 L -74.1958,34.9139 L -75.2559,32.5661 L -76.2417,30.1862 L -77.1522,27.7765 L -77.9866,25.3394 L -78.7441,22.8773
 L -79.4238,20.3926 L -80.0252,17.8877 L -80.5476,15.3653 L -80.9904,12.8276 L -81.3534,10.2773 L -81.6361,7.71688
 L -81.8382,5.14882 L -81.9595,2.57568 z
M -81.0534,32.9359 L -81.0534,32.8856 L -81.0519,32.8354 L -81.0487,32.7852 L -81.044,32.7352 L -81.0377,32.6853
 L -81.0298,32.6357 L -81.0204,32.5863 L -81.0094,32.5373 L -80.9969,32.4886 L -80.9829,32.4403 L -80.9674,32.3925
 L -80.9503,32.3452 L -80.9318,32.2985 L -80.9119,32.2524 L -80.8905,32.2069 L -80.8677,32.1621 L -80.8434,32.118
 L -80.8179,32.0748 L -80.7909,32.0323 L -80.7627,31.9908 L -80.7331,31.9501 L -80.7023,31.9104 L -80.6703,31.8717
 L -80.637,31.834 L -80.6026,31.7973 L -80.5671,31.7618 L -80.5305,31.7274 L -80.4928,31.6941 L -80.454,31.6621
 L -80.4143,31.6313 L -80.3736,31.6017 L -80.3321,31.5735 L -80.2896,31.5466 L -80.2464,31.521 L -80.2023,31.4968
 L -80.1575,31.4739 L -80.1121,31.4525 L -80.0659,31.4326 L -80.0192,31.4141 L -79.9719,31.397 L -79.9241,31.3815
 L -79.8758,31.3675 L -79.8272,31.355 L -79.7781,31.344 L -79.7287,31.3346 L -79.6791,31.3267 L -79.6292,31.3204
 L -79.5792,31.3157 L -79.529,31.3126 L -79.4788,31.311 L -79.4285,31.311 L -79.3783,31.3126 L -79.3281,31.3157
 L -79.2781,31.3204 L -79.2282,31.3267 L -79.1786,31.3346 L -79.1292,31.344 L -79.0801,31.355 L -79.0314,31.3675
 L -78.9832,31.3815 L -78.9354,31.397 L -78.8881,31.4141 L -78.8413,31.4326 L -78.7952,31.4525 L -78.7497,31.4739
 L -78.705,31.4968 L -78.6609,31.521 L -78.6176,31.5466 L -78.5752,31.5735 L -78.5336,31.6017 L -78.493,31.6313
 L -78.4533,31.6621 L -78.4145,31.6941 L -78.3768,31.7274 L -78.3402,31.7618 L -78.3046,31.7973 L -78.2702,31.834
 L -78.237,31.8717 L -78.205,31.9104 L -78.1741,31.9501 L -78.1446,31.9908 L -78.1163,32.0323 L -78.0894,32.0748
 L -78.0638,32.118 L -78.0396,32.1621 L -78.0168,32.2069 L -77.9954,32.2524 L -77.9754,32.2985 L -77.9569,32.3452
 L -77.9399,32.3925 L -77.9244,32.4403 L -77.9103,32.4886 L -77.8978,32.5373 L -77.8869,32.5863 L -77.8775,32.6357
 L -77.8696,32.6853 L -77.8633,32.7352 L -77.8586,32.7852 L -77.8554,32.8354 L -77.8538,32.8856 L -77.8538,32.9359
 L -77.8554,32.9861 L -77.8586,33.0363 L -77.8633,33.0863 L -77.8696,33.1362 L -77.8775,33.1859 L -77.8869,33.2352
 L -77.8978,33.2843 L -77.9103,33.333 L -77.9244,33.3812 L -77.9399,33.429 L -77.9569,33.4763 L -77.9754,33.5231
 L -77.9954,33.5692 L -78.0168,33.6147 L -78.0396,33.6595 L -78.0638,33.7035 L -78.0894,33.7468 L -78.1163,33.7892
 L -78.1446,33.8308 L -78.1741,33.8714 L -78.205,33.9112 L -78.237,33.9499 L -78.2702,33.9876 L -78.3046,34.0242
 L -78.3402,34.0598 L -78.3768,34.0942 L -78.4145,34.1274 L -78.4533,34.1595 L -78.493,34.1903 L -78.5336,34.2198
 L -78.5752,34.2481 L -78.6176,34.275 L -78.6609,34.3006 L -78.705,34.3248 L -78.7497,34.3476 L -78.7952,34.369
 L -78.8413,34.389 L -78.8881,34.4075 L -78.9354,34.4245 L -78.9832,34.44 L -79.0314,34.4541 L -79.0801,34.4666
 L -79.1292,34.4775 L -79.1786,34.4869 L -79.2282,34.4948 L -79.2781,34.5011 L -79.3281,34.5058 L -79.3783,34.509
 L -79.4285,34.5106 L -79.4788,34.5106 L -79.529,34.509 L -79.5792,34.5058 L -79.6292,34.5011 L -79.6791,34.4948
 L -79.7287,34.4869 L -79.7781,34.4775 L -79.8272,34.4666 L -79.8758,34.4541 L -79.9241,34.44 L -79.9719,34.4245
 L -80.0192,34.4075 L -80.0659,34.389 L -80.1121,34.369 L -80.1575,34.3476 L -80.2023,34.3248 L -80.2464,34.3006
 L -80.2896,34.275 L -80.3321,34.2481 L -80.3736,34.2198 L -80.4143,34.1903 L -80.454,34.1595 L -80.4928,34.1274
 L -80.5305,34.0942 L -80.5671,34.0598 L -80.6026,34.0242 L -80.637,33.9876 L -80.6703,33.9499 L -80.7023,33.9112
 L -80.7331,33.8714 L -80.7627,33.8308 L -80.7909,33.7892 L -80.8179,33.7468 L -80.8435,33.7035 L -80.8677,33.6595
 L -80.8905,33.6147 L -80.9119,33.5692 L -80.9318,33.5231 L -80.9503,33.4763 L -80.9674,33.429 L -80.9829,33.3812
 L -80.9969,33.333 L -81.0094,33.2843 L -81.0204,33.2352 L -81.0298,33.1859 L -81.0377,33.1362 L -81.044,33.0864
 L -81.0487,33.0363 L -81.0519,32.9861 z
M -81.0534,-32.9359 L -81.0519,-32.9861 L -81.0487,-33.0363 L -81.044,-33.0864 L -81.0377,-33.1362 L -81.0298,-33.1859
 L -81.0204,-33.2352 L -81.0094,-33.2843 L -80.9969,-33.333 L -80.9829,-33.3812 L -80.9674,-33.429 L -80.9503,-33.4763
 L -80.9318,-33.5231 L -80.9119,-33.5692 L -80.8905,-33.6147 L -80.8677,-33.6595 L -80.8435,-33.7035 L -80.8179,-33.7468
 L -80.7909,-33.7892 L -80.7627,-33.8308 L -80.7331,-33.8714 L -80.7023,-33.9112 L -80.6703,-33.9499 L -80.637,-33.9876
 L -80.6026,-34.0242 L -80.5671,-34.0598 L -80.5305,-34.0942 L -80.4928,-34.1274 L -80.454,-34.1595 L -80.4143,-34.1903
 L -80.3736,-34.2198 L -80.3321,-34.2481 L -80.2896,-34.275 L -80.2464,-34.3006 L -80.2023,-34.3248 L -80.1575,-34.3476
 L -80.1121,-34.369 L -80.0659,-34.389 L -80.0192,-34.4075 L -79.9719,-34.4245 L -79.9241,-34.44 L -79.8758,-34.4541
 L -79.8272,-34.4666 L -79.7781,-34.4775 L -79.7287,-34.4869 L -79.6791,-34.4948 L -79.6292,-34.5011 L -79.5792,-34.5058
 L -79.529,-34.509 L -79.4788,-34.5106 L -79.4285,-34.5106 L -79.3783,-34.509 L -79.3281,-34.5058 L -79.2781,-34.5011
 L -79.2282,-34.4948 L -79.1786,-34.4869 L -79.1292,-34.4775 L -79.0801,-34.4666 L -79.0314,-34.4541 L -78.9832,-34.44
 L -78.9354,-34.4245 L -78.8881,-34.4075 L -78.8413,-34.389 L -78.7952,-34.369 L -78.7497,-34.3476 L -78.705,-34.3248
 L -78.6609,-34.3006 L -78.6176,-34.275 L -78.5752,-34.2481 L -78.5336,-34.2198 L -78.493,-34.1903 L -78.4533,-34.1595
 L -78.4145,-34.1274 L -78.3768,-34.0942 L -78.3402,-34.0598 L -78.3046,-34.0242 L -78.2702,-33.9876 L -78.237,-33.9499
 L -78.205,-33.9112 L -78.1741,-33.8714 L -78.1446,-33.8308 L -78.1163,-33.7892 L -78.0894,-33.7468 L -78.0638,-33.7035
 L -78.0396,-33.6595 L -78.0168,-33.6147 L -77.9954,-33.5692 L -77.9754,-33.5231 L -77.9569,-33.4763 L -77.9399,-33.429
 L -77.9244,-33.3812 L -77.9103,-33.333 L -77.8978,-33.2843 L -77.8869,-33.2352 L -77.8775,-33.1859 L -77.8696,-33.1362
 L -77.8633,-33.0863 L -77.8586,-33.0363 L -77.8554,-32.9861 L -77.8538,-32.9359 L -77.8538,-32.8856 L -77.8554,-32.8354
 L -77.8586,-32.7852 L -77.8633,-32.7352 L -77.8696,-32.6853 L -77.8775,-32.6357 L -77.8869,-32.5863 L -77.8978,-32.5373
 L -77.9103,-32.4886 L -77.9244,-32.4403 L -77.9399,-32.3925 L -77.9569,-32.3452 L -77.9754,-32.2985 L -77.9954,-32.2524
 L -78.0168,-32.2069 L -78.0396,-32.1621 L -78.0638,-32.118 L -78.0894,-32.0748 L -78.1163,-32.0323 L -78.1446,-31.9908
 L -78.1741,-31.9501 L -78.205,-31.9104 L -78.237,-31.8717 L -78.2702,-31.834 L -78.3046,-31.7973 L -78.3402,-31.7618
 L -78.3768,-31.7274 L -78.4145,-31.6941 L -78.4533,-31.6621 L -78.493,-31.6313 L -78.5336,-31.6017 L -78.5752,-31.5735
 L -78.6176,-31.5466 L -78.6609,-31.521 L -78.705,-31.4968 L -78.7497,-31.4739 L -78.7952,-31.4525 L -78.8413,-31.4326
 L -78.8881,-31.4141 L -78.9354,-31.397 L -78.9832,-31.3815 L -79.0314,-31.3675 L -79.0801,-31.355 L -79.1292,-31.344
 L -79.1786,-31.3346 L -79.2282,-31.3267 L -79.2781,-31.3204 L -79.3281,-31.3157 L -79.3783,-31.3126 L -79.4285,-31.311
 L -79.4788,-31.311 L -79.529,-31.3126 L -79.5792,-31.3157 L -79.6292,-31.3204 L -79.6791,-31.3267 L -79.7287,-31.3346
 L -79.7781,-31.344 L -79.8272,-31.355 L -79.8758,-31.3675 L -79.9241,-31.3815 L -79.9719,-31.397 L -80.0192,-31.4141
 L -80.0659,-31.4326 L -80.1121,-31.4525 L -80.1575,-31.4739 L -80.2023,-31.4968 L -80.2464,-31.521 L -80.2896,-31.5466
 L -80.3321,-31.5735 L -80.3736,-31.6017 L -80.4143,-31.6313 L -80.454,-31.6621 L -80.4928,-31.6941 L -80.5305,-31.7274
 L -80.5671,-31.7618 L -80.6026,-31.7973 L -80.637,-31.834 L -80.6703,-31.8717 L -80.7023,-31.9104 L -80.7331,-31.9501
 L -80.7627,-31.9908 L -80.7909,-32.0323 L -80.8179,-32.0748 L -80.8434,-32.118 L -80.8677,-32.1621 L -80.8905,-32.2069
 L -80.9119,-32.2524 L -80.9318,-32.2985 L -80.9503,-32.3452 L -80.9674,-32.3925 L -80.9829,-32.4403 L -80.9969,-32.4886
 L -81.0094,-32.5373 L -81.0204,-32.5863 L -81.0298,-32.6357 L -81.0377,-32.6853 L -81.044,-32.7352 L -81.0487,-32.7852
 L -81.0519,-32.8354 L -81.0534,-32.8856 z
M -34.5106,79.4285 L -34.509,79.3783 L -34.5058,79.3281 L -34.5011,79.2781 L -34.4948,79.2282 L -34.4869,79.1786
 L -34.4775,79.1292 L -34.4666,79.0801 L -34.4541,79.0314 L -34.44,78.9832 L -34.4245,78.9354 L -34.4075,78.8881
 L -34.389,78.8413 L -34.369,78.7952 L -34.3476,78.7497 L -34.3248,78.705 L -34.3006,78.6609 L -34.275,78.6176
 L -34.2481,78.5752 L -34.2198,78.5336 L -34.1903,78.493 L -34.1595,78.4533 L -34.1274,78.4145 L -34.0942,78.3768
 L -34.0598,78.3402 L -34.0242,78.3046 L -33.9876,78.2702 L -33.9499,78.237 L -33.9112,78.205 L -33.8714,78.1741
 L -33.8308,78.1446 L -33.7892,78.1163 L -33.7468,78.0894 L -33.7035,78.0638 L -33.6595,78.0396 L -33.6147,78.0168
 L -33.5692,77.9954 L -33.5231,77.9754 L -33.4763,77.9569 L -33.429,77.9399 L -33.3812,77.9244 L -33.333,77.9103
 L -33.2843,77.8978 L -33.2352,77.8869 L -33.1859,77.8775 L -33.1362,77.8696 L -33.0863,77.8633 L -33.0363,77.8586
 L -32.9861,77.8554 L -32.9359,77.8538 L -32.8856,77.8538 L -32.8354,77.8554 L -32.7852,77.8586 L -32.7352,77.8633
 L -32.6853,77.8696 L -32.6357,77.8775 L -32.5863,77.8869 L -32.5373,77.8978 L -32.4886,77.9103 L -32.4403,77.9244
 L -32.3925,77.9399 L -32.3452,77.9569 L -32.2985,77.9754 L -32.2524,77.9954 L -32.2069,78.0168 L -32.1621,78.0396
 L -32.118,78.0638 L -32.0748,78.0894 L -32.0323,78.1163 L -31.9908,78.1446 L -31.9501,78.1741 L -31.9104,78.205
 L -31.8717,78.237 L -31.834,78.2702 L -31.7973,78.3046 L -31.7618,78.3402 L -31.7274,78.3768 L -31.6941,78.4145
 L -31.6621,78.4533 L -31.6313,78.493 L -31.6017,78.5336 L -31.5735,78.5752 L -31.5466,78.6176 L -31.521,78.6609
 L -31.4968,78.705 L -31.4739,78.7497 L -31.4525,78.7952 L -31.4326,78.8413 L -31.4141,78.8881 L -31.397,78.9354
 L -31.3815,78.9832 L -31.3675,79.0314 L -31.355,79.0801 L -31.344,79.1292 L -31.3346,79.1786 L -31.3267,79.2282
 L -31.3204,79.2781 L -31.3157,79.3281 L -31.3126,79.3783 L -31.311,79.4285 L -31.311,79.4788 L -31.3126,79.529
 L -31.3157,79.5792 L -31.3204,79.6292 L -31.3267,79.6791 L -31.3346,79.7287 L -31.344,79.7781 L -31.355,79.8272
 L -31.3675,79.8758 L -31.3815,79.9241 L -31.397,79.9719 L -31.4141,80.0192 L -31.4326,80.0659 L -31.4525,80.1121
 L -31.4739,80.1575 L -31.4968,80.2023 L -31.521,80.2464 L -31.5466,80.2896 L -31.5735,80.3321 L -31.6017,80.3736
 L -31.6313,80.4143 L -31.6621,80.454 L -31.6941,80.4928 L -31.7274,80.5305 L -31.7618,80.5671 L -31.7973,80.6026
 L -31.834,80.637 L -31.8717,80.6703 L -31.9104,80.7023 L -31.9501,80.7331 L -31.9908,80.7627 L -32.0323,80.7909
 L -32.0748,80.8179 L -32.118,80.8434 L -32.1621,80.8677 L -32.2069,80.8905 L -32.2524,80.9119 L -32.2985,80.9318
 L -32.3452,80.9503 L -32.3925,80.9674 L -32.4403,80.9829 L -32.4886,80.9969 L -32.5373,81.0094 L -32.5863,81.0204
 L -32.6357,81.0298 L -32.6853,81.0377 L -32.7352,81.044 L -32.7852,81.0487 L -32.8354,81.0519 L -32.8856,81.0534
 L -32.9359,81.0534 L -32.9861,81.0519 L -33.0363,81.0487 L -33.0864,81.044 L -33.1362,81.0377 L -33.1859,81.0298
 L -33.2352,81.0204 L -33.2843,81.0094 L -33.333,80.9969 L -33.3812,80.9829 L -33.429,80.9674 L -33.4763,80.9503
 L -33.5231,80.9318 L -33.5692,80.9119 L -33.6147,80.8905 L -33.6595,80.8677 L -33.7035,80.8435 L -33.7468,80.8179
 L -33.7892,80.7909 L -33.8308,80.7627 L -33.8714,80.7331 L -33.9112,80.7023 L -33.9499,80.6703 L -33.9876,80.637
 L -34.0242,80.6026 L -34.0598,80.5671 L -34.0942,80.5305 L -34.1274,80.4928 L -34.1595,80.454 L -34.1903,80.4143
 L -34.2198,80.3736 L -34.2481,80.3321 L -34.275,80.2896 L -34.3006,80.2464 L -34.3248,80.2023 L -34.3476,80.1575
 L -34.369,80.1121 L -34.389,80.0659 L -34.4075,80.0192 L -34.4245,79.9719 L -34.44,79.9241 L -34.4541,79.8758
 L -34.4666,79.8272 L -34.4775,79.7781 L -34.4869,79.7287 L -34.4948,79.6791 L -34.5011,79.6292 L -34.5058,79.5792
 L -34.509,79.529 L -34.5106,79.4788 z
M -34.5106,-79.4285 L -34.5106,-79.4788 L -34.509,-79.529 L -34.5058,-79.5792 L -34.5011,-79.6292 L -34.4948,-79.6791
 L -34.4869,-79.7287 L -34.4775,-79.7781 L -34.4666,-79.8272 L -34.4541,-79.8758 L -34.44,-79.9241 L -34.4245,-79.9719
 L -34.4075,-80.0192 L -34.389,-80.0659 L -34.369,-80.1121 L -34.3476,-80.1575 L -34.3248,-80.2023 L -34.3006,-80.2464
 L -34.275,-80.2896 L -34.2481,-80.3321 L -34.2198,-80.3736 L -34.1903,-80.4143 L -34.1595,-80.454 L -34.1274,-80.4928
 L -34.0942,-80.5305 L -34.0598,-80.5671 L -34.0242,-80.6026 L -33.9876,-80.637 L -33.9499,-80.6703 L -33.9112,-80.7023
 L -33.8714,-80.7331 L -33.8308,-80.7627 L -33.7892,-80.7909 L -33.7468,-80.8179 L -33.7035,-80.8435 L -33.6595,-80.8677
 L -33.6147,-80.8905 L -33.5692,-80.9119 L -33.5231,-80.9318 L -33.4763,-80.9503 L -33.429,-80.9674 L -33.3812,-80.9829
 L -33.333,-80.9969 L -33.2843,-81.0094 L -33.2352,-81.0204 L -33.1859,-81.0298 L -33.1362,-81.0377 L -33.0864,-81.044
 L -33.0363,-81.0487 L -32.9861,-81.0519 L -32.9359,-81.0534 L -32.8856,-81.0534 L -32.8354,-81.0519 L -32.7852,-81.0487
 L -32.7352,-81.044 L -32.6853,-81.0377 L -32.6357,-81.0298 L -32.5863,-81.0204 L -32.5373,-81.0094 L -32.4886,-80.9969
 L -32.4403,-80.9829 L -32.3925,-80.9674 L -32.3452,-80.9503 L -32.2985,-80.9318 L -32.2524,-80.9119 L -32.2069,-80.8905
 L -32.1621,-80.8677 L -32.118,-80.8434 L -32.0748,-80.8179 L -32.0323,-80.7909 L -31.9908,-80.7627 L -31.9501,-80.7331
 L -31.9104,-80.7023 L -31.8717,-80.6703 L -31.834,-80.637 L -31.7973,-80.6026 L -31.7618,-80.5671 L -31.7274,-80.5305
 L -31.6941,-80.4928 L -31.6621,-80.454 L -31.6313,-80.4143 L -31.6017,-80.3736 L -31.5735,-80.3321 L -31.5466,-80.2896
 L -31.521,-80.2464 L -31.4968,-80.2023 L -31.4739,-80.1575 L -31.4525,-80.1121 L -31.4326,-80.0659 L -31.4141,-80.0192
 L -31.397,-79.9719 L -31.3815,-79.9241 L -31.3675,-79.8758 L -31.355,-79.8272 L -31.344,-79.7781 L -31.3346,-79.7287
 L -31.3267,-79.6791 L -31.3204,-79.6292 L -31.3157,-79.5792 L -31.3126,-79.529 L -31.311,-79.4788 L -31.311,-79.4285
 L -31.3126,-79.3783 L -31.3157,-79.3281 L -31.3204,-79.2781 L -31.3267,-79.2282 L -31.3346,-79.1786 L -31.344,-79.1292
 L -31.355,-79.0801 L -31.3675,-79.0314 L -31.3815,-78.9832 L -31.397,-78.9354 L -31.4141,-78.8881 L -31.4326,-78.8413
 L -31.4525,-78.7952 L -31.4739,-78.7497 L -31.4968,-78.705 L -31.521,-78.6609 L -31.5466,-78.6176 L -31.5735,-78.5752
 L -31.6017,-78.5336 L -31.6313,-78.493 L -31.6621,-78.4533 L -31.6941,-78.4145 L -31.7274,-78.3768 L -31.7618,-78.3402
 L -31.7973,-78.3046 L -31.834,-78.2702 L -31.8717,-78.237 L -31.9104,-78.205 L -31.9501,-78.1741 L -31.9908,-78.1446
 L -32.0323,-78.1163 L -32.0748,-78.0894 L -32.118,-78.0638 L -32.1621,-78.0396 L -32.2069,-78.0168 L -32.2524,-77.9954
 L -32.2985,-77.9754 L -32.3452,-77.9569 L -32.3925,-77.9399 L -32.4403,-77.9244 L -32.4886,-77.9103 L -32.5373,-77.8978
 L -32.5863,-77.8869 L -32.6357,-77.8775 L -32.6853,-77.8696 L -32.7352,-77.8633 L -32.7852,-77.8586 L -32.8354,-77.8554
 L -32.8856,-77.8538 L -32.9359,-77.8538 L -32.9861,-77.8554 L -33.0363,-77.8586 L -33.0863,-77.8633 L -33.1362,-77.8696
 L -33.1859,-77.8775 L -33.2352,-77.8869 L -33.2843,-77.8978 L -33.333,-77.9103 L -33.3812,-77.9244 L -33.429,-77.9399
 L -33.4763,-77.9569 L -33.5231,-77.9754 L -33.5692,-77.9954 L -33.6147,-78.0168 L -33.6595,-78.0396 L -33.7035,-78.0638
 L -33.7468,-78.0894 L -33.7892,-78.1163 L -33.8308,-78.1446 L -33.8714,-78.1741 L -33.9112,-78.205 L -33.9499,-78.237
 L -33.9876,-78.2702 L -34.0242,-78.3046 L -34.0598,-78.3402 L -34.0942,-78.3768 L -34.1274,-78.4145 L -34.1595,-78.4533
 L -34.1903,-78.493 L -34.2198,-78.5336 L -34.2481,-78.5752 L -34.275,-78.6176 L -34.3006,-78.6609 L -34.3248,-78.705
 L -34.3476,-78.7497 L -34.369,-78.7952 L -34.389,-78.8413 L -34.4075,-78.8881 L -34.4245,-78.9354 L -34.44,-78.9832
 L -34.4541,-79.0314 L -34.4666,-79.0801 L -34.4775,-79.1292 L -34.4869,-79.1786 L -34.4948,-79.2282 L -34.5011,-79.2781
 L -34.5058,-79.3281 L -34.509,-79.3783 z
M 31.311,79.4788 L 31.311,79.4285 L 31.3126,79.3783 L 31.3157,79.3281 L 31.3204,79.2781 L 31.3267,79.2282
 L 31.3346,79.1786 L 31.344,79.1292 L 31.355,79.0801 L 31.3675,79.0314 L 31.3815,78.9832 L 31.397,78.9354
 L 31.4141,78.8881 L 31.4326,78.8413 L 31.4525,78.7952 L 31.4739,78.7497 L 31.4968,78.705 L 31.521,78.6609
 L 31.5466,78.6176 L 31.5735,78.5752 L 31.6017,78.5336 L 31.6313,78.493 L 31.6621,78.4533 L 31.6941,78.4145
 L 31.7274,78.3768 L 31.7618,78.3402 L 31.7973,78.3046 L 31.834,78.2702 L 31.8717,78.237 L 31.9104,78.205
 L 31.9501,78.1741 L 31.9908,78.1446 L 32.0323,78.1163 L 32.0748,78.0894 L 32.118,78.0638 L 32.1621,78.0396
 L 32.2069,78.0168 L 32.2524,77.9954 L 32.2985,77.9754 L 32.3452,77.9569 L 32.3925,77.9399 L 32.4403,77.9244
 L 32.4886,77.9103 L 32.5373,77.8978 L 32.5863,77.8869 L 32.6357,77.8775 L 32.6853,77.8696 L 32.7352,77.8633
 L 32.7852,77.8586 L 32.8354,77.8554 L 32.8856,77.8538 L 32.9359,77.8538 L 32.9861,77.8554 L 33.0363,77.8586
 L 33.0863,77.8633 L 33.1362,77.8696 L 33.1859,77.8775 L 33.2352,77.8869 L 33.2843,77.8978 L 33.333,77.9103
 L 33.3812,77.9244 L 33.429,77.9399 L 33.4763,77.9569 L 33.5231,77.9754 L 33.5692,77.9954 L 33.6147,78.0168
 L 33.6595,78.0396 L 33.7035,78.0638 L 33.7468,78.0894 L 33.7892,78.1163 L 33.8308,78.1446 L 33.8714,78.1741
 L 33.9112,78.205 L 33.9499,78.237 L 33.9876,78.2702 L 34.0242,78.3046 L 34.0598,78.3402 L 34.0942,78.3768
 L 34.1274,78.4145 L 34.1595,78.4533 L 34.1903,78.493 L 34.2198,78.5336 L 34.2481,78.5752 L 34.275,78.6176
 L 34.3006,78.6609 L 34.3248,78.705 L 34.3476,78.7497 L 34.369,78.7952 L 34.389,78.8413 L 34.4075,78.8881
 L 34.4245,78.9354 L 34.44,78.9832 L 34.4541,79.0314 L 34.4666,79.0801 L 34.4775,79.1292 L 34.4869,79.1786
 L 34.4948,79.2282 L 34.5011,79.2781 L 34.5058,79.3281 L 34.509,79.3783 L 34.5106,79.4285 L 34.5106,79.4788
 L 34.509,79.529 L 34.5058,79.5792 L 34.5011,79.6292 L 34.4948,79.6791 L 34.4869,79.7287 L 34.4775,79.7781
 L 34.4666,79.8272 L 34.4541,79.8758 L 34.44,79.9241 L 34.4245,79.9719 L 34.4075,80.0192 L 34.389,80.0659
 L 34.369,80.1121 L 34.3476,80.1575 L 34.3248,80.2023 L 34.3006,80.2464 L 34.275,80.2896 L 34.2481,80.3321
 L 34.2198,80.3736 L 34.1903,80.4143 L 34.1595,80.454 L 34.1274,80.4928 L 34.0942,80.5305 L 34.0598,80.5671
 L 34.0242,80.6026 L 33.9876,80.637 L 33.9499,80.6703 L 33.9112,80.7023 L 33.8714,80.7331 L 33.8308,80.7627
 L 33.7892,80.7909 L 33.7468,80.8179 L 33.7035,80.8435 L 33.6595,80.8677 L 33.6147,80.8905 L 33.5692,80.9119
 L 33.5231,80.9318 L 33.4763,80.9503 L 33.429,80.9674 L 33.3812,80.9829 L 33.333,80.9969 L 33.2843,81.0094
 L 33.2352,81.0204 L 33.1859,81.0298 L 33.1362,81.0377 L 33.0864,81.044 L 33.0363,81.0487 L 32.9861,81.0519
 L 32.9359,81.0534 L 32.8856,81.0534 L 32.8354,81.0519 L 32.7852,81.0487 L 32.7352,81.044 L 32.6853,81.0377
 L 32.6357,81.0298 L 32.5863,81.0204 L 32.5373,81.0094 L 32.4886,80.9969 L 32.4403,80.9829 L 32.3925,80.9674
 L 32.3452,80.9503 L 32.2985,80.9318 L 32.2524,80.9119 L 32.2069,80.8905 L 32.1621,80.8677 L 32.118,80.8434
 L 32.0748,80.8179 L 32.0323,80.7909 L 31.9908,80.7627 L 31.9501,80.7331 L 31.9104,80.7023 L 31.8717,80.6703
 L 31.834,80.637 L 31.7973,80.6026 L 31.7618,80.5671 L 31.7274,80.5305 L 31.6941,80.4928 L 31.6621,80.454
 L 31.6313,80.4143 L 31.6017,80.3736 L 31.5735,80.3321 L 31.5466,80.2896 L 31.521,80.2464 L 31.4968,80.2023
 L 31.4739,80.1575 L 31.4525,80.1121 L 31.4326,80.0659 L 31.4141,80.0192 L 31.397,79.9719 L 31.3815,79.9241
 L 31.3675,79.8758 L 31.355,79.8272 L 31.344,79.7781 L 31.3346,79.7287 L 31.3267,79.6791 L 31.3204,79.6292
 L 31.3157,79.5792 L 31.3126,79.529 z
M 31.311,-79.4788 L 31.3126,-79.529 L 31.3157,-79.5792 L 31.3204,-79.6292 L 31.3267,-79.6791 L 31.3346,-79.7287
 L 31.344,-79.7781 L 31.355,-79.8272 L 31.3675,-79.8758 L 31.3815,-79.9241 L 31.397,-79.9719 L 31.4141,-80.0192
 L 31.4326,-80.0659 L 31.4525,-80.1121 L 31.4739,-80.1575 L 31.4968,-80.2023 L 31.521,-80.2464 L 31.5466,-80.2896
 L 31.5735,-80.3321 L 31.6017,-80.3736 L 31.6313,-80.4143 L 31.6621,-80.454 L 31.6941,-80.4928 L 31.7274,-80.5305
 L 31.7618,-80.5671 L 31.7973,-80.6026 L 31.834,-80.637 L 31.8717,-80.6703 L 31.9104,-80.7023 L 31.9501,-80.7331
 L 31.9908,-80.7627 L 32.0323,-80.7909 L 32.0748,-80.8179 L 32.118,-80.8434 L 32.1621,-80.8677 L 32.2069,-80.8905
 L 32.2524,-80.9119 L 32.2985,-80.9318 L 32.3452,-80.9503 L 32.3925,-80.9674 L 32.4403,-80.9829 L 32.4886,-80.9969
 L 32.5373,-81.0094 L 32.5863,-81.0204 L 32.6357,-81.0298 L 32.6853,-81.0377 L 32.7352,-81.044 L 32.7852,-81.0487
 L 32.8354,-81.0519 L 32.8856,-81.0534 L 32.9359,-81.0534 L 32.9861,-81.0519 L 33.0363,-81.0487 L 33.0864,-81.044
 L 33.1362,-81.0377 L 33.1859,-81.0298 L 33.2352,-81.0204 L 33.2843,-81.0094 L 33.333,-80.9969 L 33.3812,-80.9829
 L 33.429,-80.9674 L 33.4763,-80.9503 L 33.5231,-80.9318 L 33.5692,-80.9119 L 33.6147,-80.8905 L 33.6595,-80.8677
 L 33.7035,-80.8435 L 33.7468,-80.8179 L 33.7892,-80.7909 L 33.8308,-80.7627 L 33.8714,-80.7331 L 33.9112,-80.7023
 L 33.9499,-80.6703 L 33.9876,-80.637 L 34.0242,-80.6026 L 34.0598,-80.5671 L 34.0942,-80.5305 L 34.1274,-80.4928
 L 34.1595,-80.454 L 34.1903,-80.4143 L 34.2198,-80.3736 L 34.2481,-80.3321 L 34.275,-80.2896 L 34.3006,-80.2464
 L 34.3248,-80.2023 L 34.3476,-80.1575 L 34.369,-80.1121 L 34.389,-80.0659 L 34.4075,-80.0192 L 34.4245,-79.9719
 L 34.44,-79.9241 L 34.4541,-79.8758 L 34.4666,-79.8272 L 34.4775,-79.7781 L 34.4869,-79.7287 L 34.4948,-79.6791
 L 34.5011,-79.6292 L 34.5058,-79.5792 L 34.509,-79.529 L 34.5106,-79.4788 L 34.5106,-79.4285 L 34.509,-79.3783
 L 34.5058,-79.3281 L 34.5011,-79.2781 L 34.4948,-79.2282 L 34.4869,-79.1786 L 34.4775,-79.1292 L 34.4666,-79.0801
 L 34.4541,-79.0314 L 34.44,-78.9832 L 34.4245,-78.9354 L 34.4075,-78.8881 L 34.389,-78.8413 L 34.369,-78.7952
 L 34.3476,-78.7497 L 34.3248,-78.705 L 34.3006,-78.6609 L 34.275,-78.6176 L 34.2481,-78.5752 L 34.2198,-78.5336
 L 34.1903,-78.493 L 34.1595,-78.4533 L 34.1274,-78.4145 L 34.0942,-78.3768 L 34.0598,-78.3402 L 34.0242,-78.3046
 L 33.9876,-78.2702 L 33.9499,-78.237 L 33.9112,-78.205 L 33.8714,-78.1741 L 33.8308,-78.1446 L 33.7892,-78.1163
 L 33.7468,-78.0894 L 33.7035,-78.0638 L 33.6595,-78.0396 L 33.6147,-78.0168 L 33.5692,-77.9954 L 33.5231,-77.9754
 L 33.4763,-77.9569 L 33.429,-77.9399 L 33.3812,-77.9244 L 33.333,-77.9103 L 33.2843,-77.8978 L 33.2352,-77.8869
 L 33.1859,-77.8775 L 33.1362,-77.8696 L 33.0863,-77.8633 L 33.0363,-77.8586 L 32.9861,-77.8554 L 32.9359,-77.8538
 L 32.8856,-77.8538 L 32.8354,-77.8554 L 32.7852,-77.8586 L 32.7352,-77.8633 L 32.6853,-77.8696 L 32.6357,-77.8775
 L 32.5863,-77.8869 L 32.5373,-77.8978 L 32.4886,-77.9103 L 32.4403,-77.9244 L 32.3925,-77.9399 L 32.3452,-77.9569
 L 32.2985,-77.9754 L 32.2524,-77.9954 L 32.2069,-78.0168 L 32.1621,-78.0396 L 32.118,-78.0638 L 32.0748,-78.0894
 L 32.0323,-78.1163 L 31.9908,-78.1446 L 31.9501,-78.1741 L 31.9104,-78.205 L 31.8717,-78.237 L 31.834,-78.2702
 L 31.7973,-78.3046 L 31.7618,-78.3402 L 31.7274,-78.3768 L 31.6941,-78.4145 L 31.6621,-78.4533 L 31.6313,-78.493
 L 31.6017,-78.5336 L 31.5735,-78.5752 L 31.5466,-78.6176 L 31.521,-78.6609 L 31.4968,-78.705 L 31.4739,-78.7497
 L 31.4525,-78.7952 L 31.4326,-78.8413 L 31.4141,-78.8881 L 31.397,-78.9354 L 31.3815,-78.9832 L 31.3675,-79.0314
 L 31.355,-79.0801 L 31.344,-79.1292 L 31.3346,-79.1786 L 31.3267,-79.2282 L 31.3204,-79.2781 L 31.3157,-79.3281
 L 31.3126,-79.3783 L 31.311,-79.4285 z
M 77.8538,32.8856 L 77.8554,32.8354 L 77.8586,32.7852 L 77.8633,32.7352 L 77.8696,32.6853 L 77.8775,32.6357
 L 77.8869,32.5863 L 77.8978,32.5373 L 77.9103,32.4886 L 77.9244,32.4403 L 77.9399,32.3925 L 77.9569,32.3452
 L 77.9754,32.2985 L 77.9954,32.2524 L 78.0168,32.2069 L 78.0396,32.1621 L 78.0638,32.118 L 78.0894,32.0748
 L 78.1163,32.0323 L 78.1446,31.9908 L 78.1741,31.9501 L 78.205,31.9104 L 78.237,31.8717 L 78.2702,31.834
 L 78.3046,31.7973 L 78.3402,31.7618 L 78.3768,31.7274 L 78.4145,31.6941 L 78.4533,31.6621 L 78.493,31.6313
 L 78.5336,31.6017 L 78.5752,31.5735 L 78.6176,31.5466 L 78.6609,31.521 L 78.705,31.4968 L 78.7497,31.4739
 L 78.7952,31.4525 L 78.8413,31.4326 L 78.8881,31.4141 L 78.9354,31.397 L 78.9832,31.3815 L 79.0314,31.3675
 L 79.0801,31.355 L 79.1292,31.344 L 79.1786,31.3346 L 79.2282,31.3267 L 79.2781,31.3204 L 79.3281,31.3157
 L 79.3783,31.3126 L 79.4285,31.311 L 79.4788,31.311 L 79.529,31.3126 L 79.5792,31.3157 L 79.6292,31.3204
 L 79.6791,31.3267 L 79.7287,31.3346 L 79.7781,31.344 L 79.8272,31.355 L 79.8758,31.3675 L 79.9241,31.3815
 L 79.9719,31.397 L 80.0192,31.4141 L 80.0659,31.4326 L 80.1121,31.4525 L 80.1575,31.4739 L 80.2023,31.4968
 L 80.2464,31.521 L 80.2896,31.5466 L 80.3321,31.5735 L 80.3736,31.6017 L 80.4143,31.6313 L 80.454,31.6621
 L 80.4928,31.6941 L 80.5305,31.7274 L 80.5671,31.7618 L 80.6026,31.7973 L 80.637,31.834 L 80.6703,31.8717
 L 80.7023,31.9104 L 80.7331,31.9501 L 80.7627,31.9908 L 80.7909,32.0323 L 80.8179,32.0748 L 80.8434,32.118
 L 80.8677,32.1621 L 80.8905,32.2069 L 80.9119,32.2524 L 80.9318,32.2985 L 80.9503,32.3452 L 80.9674,32.3925
 L 80.9829,32.4403 L 80.9969,32.4886 L 81.0094,32.5373 L 81.0204,32.5863 L 81.0298,32.6357 L 81.0377,32.6853
 L 81.044,32.7352 L 81.0487,32.7852 L 81.0519,32.8354 L 81.0534,32.8856 L 81.0534,32.9359 L 81.0519,32.9861
 L 81.0487,33.0363 L 81.044,33.0864 L 81.0377,33.1362 L 81.0298,33.1859 L 81.0204,33.2352 L 81.0094,33.2843
 L 80.9969,33.333 L 80.9829,33.3812 L 80.9674,33.429 L 80.9503,33.4763 L 80.9318,33.5231 L 80.9119,33.5692
 L 80.8905,33.6147 L 80.8677,33.6595 L 80.8435,33.7035 L 80.8179,33.7468 L 80.7909,33.7892 L 80.7627,33.8308
 L 80.7331,33.8714 L 80.7023,33.9112 L 80.6703,33.9499 L 80.637,33.9876 L 80.6026,34.0242 L 80.5671,34.0598
 L 80.5305,34.0942 L 80.4928,34.1274 L 80.454,34.1595 L 80.4143,34.1903 L 80.3736,34.2198 L 80.3321,34.2481
 L 80.2896,34.275 L 80.2464,34.3006 L 80.2023,34.3248 L 80.1575,34.3476 L 80.1121,34.369 L 80.0659,34.389
 L 80.0192,34.4075 L 79.9719,34.4245 L 79.9241,34.44 L 79.8758,34.4541 L 79.8272,34.4666 L 79.7781,34.4775
 L 79.7287,34.4869 L 79.6791,34.4948 L 79.6292,34.5011 L 79.5792,34.5058 L 79.529,34.509 L 79.4788,34.5106
 L 79.4285,34.5106 L 79.3783,34.509 L 79.3281,34.5058 L 79.2781,34.5011 L 79.2282,34.4948 L 79.1786,34.4869
 L 79.1292,34.4775 L 79.0801,34.4666 L 79.0314,34.4541 L 78.9832,34.44 L 78.9354,34.4245 L 78.8881,34.4075
 L 78.8413,34.389 L 78.7952,34.369 L 78.7497,34.3476 L 78.705,34.3248 L 78.6609,34.3006 L 78.6176,34.275
 L 78.5752,34.2481 L 78.5336,34.2198 L 78.493,34.1903 L 78.4533,34.1595 L 78.4145,34.1274 L 78.3768,34.0942
 L 78.3402,34.0598 L 78.3046,34.0242 L 78.2702,33.9876 L 78.237,33.9499 L 78.205,33.9112 L 78.1741,33.8714
 L 78.1446,33.8308 L 78.1163,33.7892 L 78.0894,33.7468 L 78.0638,33.7035 L 78.0396,33.6595 L 78.0168,33.6147
 L 77.9954,33.5692 L 77.9754,33.5231 L 77.9569,33.4763 L 77.9399,33.429 L 77.9244,33.3812 L 77.9103,33.333
 L 77.8978,33.2843 L 77.8869,33.2352 L 77.8775,33.1859 L 77.8696,33.1362 L 77.8633,33.0863 L 77.8586,33.0363
 L 77.8554,32.9861 L 77.8538,32.9359 z
M 77.8538,-32.8856 L 77.8538,-32.9359 L 77.8554,-32.9861 L 77.8586,-33.0363 L 77.8633,-33.0863 L 77.8696,-33.1362
 L 77.8775,-33.1859 L 77.8869,-33.2352 L 77.8978,-33.2843 L 77.9103,-33.333 L 77.9244,-33.3812 L 77.9399,-33.429
 L 77.9569,-33.4763 L 77.9754,-33.5231 L 77.9954,-33.5692 L 78.0168,-33.6147 L 78.0396,-33.6595 L 78.0638,-33.7035
 L 78.0894,-33.7468 L 78.1163,-33.7892 L 78.1446,-33.8308 L 78.1741,-33.8714 L 78.205,-33.9112 L 78.237,-33.9499
 L 78.2702,-33.9876 L 78.3046,-34.0242 L 78.3402,-34.0598 L 78.3768,-34.0942 L 78.4145,-34.1274 L 78.4533,-34.1595
 L 78.493,-34.1903 L 78.5336,-34.2198 L 78.5752,-34.2481 L 78.6176,-34.275 L 78.6609,-34.3006 L 78.705,-34.3248
 L 78.7497,-34.3476 L 78.7952,-34.369 L 78.8413,-34.389 L 78.8881,-34.4075 L 78.9354,-34.4245 L 78.9832,-34.44
 L 79.0314,-34.4541 L 79.0801,-34.4666 L 79.1292,-34.4775 L 79.1786,-34.4869 L 79.2282,-34.4948 L 79.2781,-34.5011
 L 79.3281,-34.5058 L 79.3783,-34.509 L 79.4285,-34.5106 L 79.4788,-34.5106 L 79.529,-34.509 L 79.5792,-34.5058
 L 79.6292,-34.5011 L 79.6791,-34.4948 L 79.7287,-34.4869 L 79.7781,-34.4775 L 79.8272,-34.4666 L 79.8758,-34.4541
 L 79.9241,-34.44 L 79.9719,-34.4245 L 80.0192,-34.4075 L 80.0659,-34.389 L 80.1121,-34.369 L 80.1575,-34.3476
 L 80.2023,-34.3248 L 80.2464,-34.3006 L 80.2896,-34.275 L 80.3321,-34.2481 L 80.3736,-34.2198 L 80.4143,-34.1903
 L 80.454,-34.1595 L 80.4928,-34.1274 L 80.5305,-34.0942 L 80.5671,-34.0598 L 80.6026,-34.0242 L 80.637,-33.9876
 L 80.6703,-33.9499 L 80.7023,-33.9112 L 80.7331,-33.8714 L 80.7627,-33.8308 L 80.7909,-33.7892 L 80.8179,-33.7468
 L 80.8435,-33.7035 L 80.8677,-33.6595 L 80.8905,-33.6147 L 80.9119,-33.5692 L 80.9318,-33.5231 L 80.9503,-33.4763
 L 80.9674,-33.429 L 80.9829,-33.3812 L 80.9969,-33.333 L 81.0094,-33.2843 L 81.0204,-33.2352 L 81.0298,-33.1859
 L 81.0377,-33.1362 L 81.044,-33.0864 L 81.0487,-33.0363 L 81.0519,-32.9861 L 81.0534,-32.9359 L 81.0534,-32.8856
 L 81.0519,-32.8354 L 81.0487,-32.7852 L 81.044,-32.7352 L 81.0377,-32.6853 L 81.0298,-32.6357 L 81.0204,-32.5863
 L 81.0094,-32.5373 L 80.9969,-32.4886 L 80.9829,-32.4403 L 80.9674,-32.3925 L 80.9503,-32.3452 L 80.9318,-32.2985
 L 80.9119,-32.2524 L 80.8905,-32.2069 L 80.8677,-32.1621 L 80.8434,-32.118 L 80.8179,-32.0748 L 80.7909,-32.0323
 L 80.7627,-31.9908 L 80.7331,-31.9501 L 80.7023,-31.9104 L 80.6703,-31.8717 L 80.637,-31.834 L 80.6026,-31.7973
 L 80.5671,-31.7618 L 80.5305,-31.7274 L 80.4928,-31.6941 L 80.454,-31.6621 L 80.4143,-31.6313 L 80.3736,-31.6017
 L 80.3321,-31.5735 L 80.2896,-31.5466 L 80.2464,-31.521 L 80.2023,-31.4968 L 80.1575,-31.4739 L 80.1121,-31.4525
 L 80.0659,-31.4326 L 80.0192,-31.4141 L 79.9719,-31.397 L 79.9241,-31.3815 L 79.8758,-31.3675 L 79.8272,-31.355
 L 79.7781,-31.344 L 79.7287,-31.3346 L 79.6791,-31.3267 L 79.6292,-31.3204 L 79.5792,-31.3157 L 79.529,-31.3126
 L 79.4788,-31.311 L 79.4285,-31.311 L 79.3783,-31.3126 L 79.3281,-31.3157 L 79.2781,-31.3204 L 79.2282,-31.3267
 L 79.1786,-31.3346 L 79.1292,-31.344 L 79.0801,-31.355 L 79.0314,-31.3675 L 78.9832,-31.3815 L 78.9354,-31.397
 L 78.8881,-31.4141 L 78.8413,-31.4326 L 78.7952,-31.4525 L 78.7497,-31.4739 L 78.705,-31.4968 L 78.6609,-31.521
 L 78.6176,-31.5466 L 78.5752,-31.5735 L 78.5336,-31.6017 L 78.493,-31.6313 L 78.4533,-31.6621 L 78.4145,-31.6941
 L 78.3768,-31.7274 L 78.3402,-31.7618 L 78.3046,-31.7973 L 78.2702,-31.834 L 78.237,-31.8717 L 78.205,-31.9104
 L 78.1741,-31.9501 L 78.1446,-31.9908 L 78.1163,-32.0323 L 78.0894,-32.0748 L 78.0638,-32.118 L 78.0396,-32.1621
 L 78.0168,-32.2069 L 77.9954,-32.2524 L 77.9754,-32.2985 L 77.9569,-32.3452 L 77.9399,-32.3925 L 77.9244,-32.4403
 L 77.9103,-32.4886 L 77.8978,-32.5373 L 77.8869,-32.5863 L 77.8775,-32.6357 L 77.8696,-32.6853 L 77.8633,-32.7352
 L 77.8586,-32.7852 L 77.8554,-32.8354 z
" stroke="black" fill="lightgray" stroke-width="0.5"/>
</svg>
