<?xml version="1.0" encoding="UTF-8" standalone="no"?>
<svg
   width="120mm"
   height="120mm"
   viewBox="-60 -60 120 120"
   version="1.1"
   id="svg1"
   sodipodi:docname="cyclone-bottom-glass.svg"
   inkscape:version="1.3 (0e150ed, 2023-07-21)"
   xmlns:inkscape="http://www.inkscape.org/namespaces/inkscape"
   xmlns:sodipodi="http://sodipodi.sourceforge.net/DTD/sodipodi-0.dtd"
   xmlns="http://www.w3.org/2000/svg"
   xmlns:svg="http://www.w3.org/2000/svg">
  <defs
     id="defs1" />
  <sodipodi:namedview
     id="namedview1"
     pagecolor="#505050"
     bordercolor="#ffffff"
     borderopacity="1"
     inkscape:showpageshadow="0"
     inkscape:pageopacity="0"
     inkscape:pagecheckerboard="1"
     inkscape:deskcolor="#d1d1d1"
     inkscape:document-units="mm"
     inkscape:zoom="0.95407444"
     inkscape:cx="290.85781"
     inkscape:cy="345.88496"
     inkscape:window-width="1920"
     inkscape:window-height="1052"
     inkscape:window-x="0"
     inkscape:window-y="28"
     inkscape:window-maximized="0"
     inkscape:current-layer="svg1" />
  <title
     id="title1">OpenSCAD Model</title>
  <path
     d=" M -60,-0 L -59.9868,1.25655 L -59.9474,2.51254 L -59.8816,3.76743 L -59.7896,5.02067 L -59.6713,6.27171  L -59.5269,7.51999 L -59.3563,8.76498 L -59.1598,10.0061 L -58.9372,11.2429 L -58.6889,12.4747 L -58.4147,13.7011  L -58.115,14.9214 L -57.7898,16.1352 L -57.4392,17.3419 L -57.0634,18.541 L -56.6626,19.732 L -56.2369,20.9143  L -55.7866,22.0875 L -55.3118,23.2509 L -54.8127,24.4042 L -54.2896,25.5468 L -53.7427,26.6781 L -53.1722,27.7978  L -52.5784,28.9052 L -51.9615,30 L -51.3219,31.0816 L -50.6597,32.1496 L -49.9753,33.2035 L -49.269,34.2428  L -48.541,35.2671 L -47.7918,36.2759 L -47.0216,37.2689 L -46.2308,38.2454 L -45.4197,39.2052 L -44.5887,40.1478  L -43.7381,41.0728 L -42.8684,41.9798 L -41.9798,42.8684 L -41.0728,43.7381 L -40.1478,44.5887 L -39.2052,45.4197  L -38.2454,46.2308 L -37.2689,47.0216 L -36.2759,47.7918 L -35.2671,48.541 L -34.2428,49.269 L -33.2035,49.9753  L -32.1496,50.6597 L -31.0816,51.3219 L -30,51.9615 L -28.9052,52.5784 L -27.7978,53.1722 L -26.6781,53.7427  L -25.5468,54.2896 L -24.4042,54.8127 L -23.2509,55.3118 L -22.0875,55.7866 L -20.9143,56.2369 L -19.732,56.6626  L -18.541,57.0634 L -17.3419,57.4392 L -16.1352,57.7898 L -14.9214,58.115 L -13.7011,58.4147 L -12.4747,58.6889  L -11.2429,58.9372 L -10.0061,59.1598 L -8.76498,59.3563 L -7.51999,59.5269 L -6.27171,59.6713 L -5.02067,59.7896  L -3.76743,59.8816 L -2.51254,59.9474 L -1.25655,59.9868 L 0,60 L 1.25655,59.9868 L 2.51254,59.9474  L 3.76743,59.8816 L 5.02067,59.7896 L 6.27171,59.6713 L 7.51999,59.5269 L 8.76498,59.3563 L 10.0061,59.1598  L 11.2429,58.9372 L 12.4747,58.6889 L 13.7011,58.4147 L 14.9214,58.115 L 16.1352,57.7898 L 17.3419,57.4392  L 18.541,57.0634 L 19.732,56.6626 L 20.9143,56.2369 L 22.0875,55.7866 L 23.2509,55.3118 L 24.4042,54.8127  L 25.5468,54.2896 L 26.6781,53.7427 L 27.7978,53.1722 L 28.9052,52.5784 L 30,51.9615 L 31.0816,51.3219  L 32.1496,50.6597 L 33.2035,49.9753 L 34.2428,49.269 L 35.2671,48.541 L 36.2759,47.7918 L 37.2689,47.0216  L 38.2454,46.2308 L 39.2052,45.4197 L 40.1478,44.5887 L 41.0728,43.7381 L 41.9798,42.8684 L 42.8684,41.9798  L 43.7381,41.0728 L 44.5887,40.1478 L 45.4197,39.2052 L 46.2308,38.2454 L 47.0216,37.2689 L 47.7918,36.2759  L 48.541,35.2671 L 49.269,34.2428 L 49.9753,33.2035 L 50.6597,32.1496 L 51.3219,31.0816 L 51.9615,30  L 52.5784,28.9052 L 53.1722,27.7978 L 53.7427,26.6781 L 54.2896,25.5468 L 54.8127,24.4042 L 55.3118,23.2509  L 55.7866,22.0875 L 56.2369,20.9143 L 56.6626,19.732 L 57.0634,18.541 L 57.4392,17.3419 L 57.7898,16.1352  L 58.115,14.9214 L 58.4147,13.7011 L 58.6889,12.4747 L 58.9372,11.2429 L 59.1598,10.0061 L 59.3563,8.76498  L 59.5269,7.51999 L 59.6713,6.27171 L 59.7896,5.02067 L 59.8816,3.76743 L 59.9474,2.51254 L 59.9868,1.25655  L 60,-0 L 59.9868,-1.25655 L 59.9474,-2.51254 L 59.8816,-3.76743 L 59.7896,-5.02067 L 59.6713,-6.27171  L 59.5269,-7.51999 L 59.3563,-8.76498 L 59.1598,-10.0061 L 58.9372,-11.2429 L 58.6889,-12.4747 L 58.4147,-13.7011  L 58.115,-14.9214 L 57.7898,-16.1352 L 57.4392,-17.3419 L 57.0634,-18.541 L 56.6626,-19.732 L 56.2369,-20.9143  L 55.7866,-22.0875 L 55.3118,-23.2509 L 54.8127,-24.4042 L 54.2896,-25.5468 L 53.7427,-26.6781 L 53.1722,-27.7978  L 52.5784,-28.9052 L 51.9615,-30 L 51.3219,-31.0816 L 50.6597,-32.1496 L 49.9753,-33.2035 L 49.269,-34.2428  L 48.541,-35.2671 L 47.7918,-36.2759 L 47.0216,-37.2689 L 46.2308,-38.2454 L 45.4197,-39.2052 L 44.5887,-40.1478  L 43.7381,-41.0728 L 42.8684,-41.9798 L 41.9798,-42.8684 L 41.0728,-43.7381 L 40.1478,-44.5887 L 39.2052,-45.4197  L 38.2454,-46.2308 L 37.2689,-47.0216 L 36.2759,-47.7918 L 35.2671,-48.541 L 34.2428,-49.269 L 33.2035,-49.9753  L 32.1496,-50.6597 L 31.0816,-51.3219 L 30,-51.9615 L 28.9052,-52.5784 L 27.7978,-53.1722 L 26.6781,-53.7427  L 25.5468,-54.2896 L 24.4042,-54.8127 L 23.2509,-55.3118 L 22.0875,-55.7866 L 20.9143,-56.2369 L 19.732,-56.6626  L 18.541,-57.0634 L 17.3419,-57.4392 L 16.1352,-57.7898 L 14.9214,-58.115 L 13.7011,-58.4147 L 12.4747,-58.6889  L 11.2429,-58.9372 L 10.0061,-59.1598 L 8.76498,-59.3563 L 7.51999,-59.5269 L 6.27171,-59.6713 L 5.02067,-59.7896  L 3.76743,-59.8816 L 2.51254,-59.9474 L 1.25655,-59.9868 L 0,-60 L -1.25655,-59.9868 L -2.51254,-59.9474  L -3.76743,-59.8816 L -5.02067,-59.7896 L -6.27171,-59.6713 L -7.51999,-59.5269 L -8.76498,-59.3563 L -10.0061,-59.1598  L -11.2429,-58.9372 L -12.4747,-58.6889 L -13.7011,-58.4147 L -14.9214,-58.115 L -16.1352,-57.7898 L -17.3419,-57.4392  L -18.541,-57.0634 L -19.732,-56.6626 L -20.9143,-56.2369 L -22.0875,-55.7866 L -23.2509,-55.3118 L -24.4042,-54.8127  L -25.5468,-54.2896 L -26.6781,-53.7427 L -27.7978,-53.1722 L -28.9052,-52.5784 L -30,-51.9615 L -31.0816,-51.3219  L -32.1496,-50.6597 L -33.2035,-49.9753 L -34.2428,-49.269 L -35.2671,-48.541 L -36.2759,-47.7918 L -37.2689,-47.0216  L -38.2454,-46.2308 L -39.2052,-45.4197 L -40.1478,-44.5887 L -41.0728,-43.7381 L -41.9798,-42.8684 L -42.8684,-41.9798  L -43.7381,-41.0728 L -44.5887,-40.1478 L -45.4197,-39.2052 L -46.2308,-38.2454 L -47.0216,-37.2689 L -47.7918,-36.2759  L -48.541,-35.2671 L -49.269,-34.2428 L -49.9753,-33.2035 L -50.6597,-32.1496 L -51.3219,-31.0816 L -51.9615,-30  L -52.5784,-28.9052 L -53.1722,-27.7978 L -53.7427,-26.6781 L -54.2896,-25.5468 L -54.8127,-24.4042 L -55.3118,-23.2509  L -55.7866,-22.0875 L -56.2369,-20.9143 L -56.6626,-19.732 L -57.0634,-18.541 L -57.4392,-17.3419 L -57.7898,-16.1352  L -58.115,-14.9214 L -58.4147,-13.7011 L -58.6889,-12.4747 L -58.9372,-11.2429 L -59.1598,-10.0061 L -59.3563,-8.76498  L -59.5269,-7.51999 L -59.6713,-6.27171 L -59.7896,-5.02067 L -59.8816,-3.76743 L -59.9474,-2.51254 L -59.9868,-1.25655  z M -51.6,-0 L -51.5996,-0.0335073 L -51.5986,-0.0670004 L -51.5968,-0.100465 L -51.5944,-0.133884 L -51.5912,-0.167245  L -51.5874,-0.200533 L -51.5828,-0.233732 L -51.5776,-0.266829 L -51.5717,-0.299809 L -51.565,-0.332658 L -51.5577,-0.365361  L -51.5497,-0.397903 L -51.5411,-0.430271 L -51.5317,-0.46245 L -51.5217,-0.494427 L -51.511,-0.526186 L -51.4997,-0.557714  L -51.4876,-0.588999 L -51.475,-0.620025 L -51.4617,-0.650778 L -51.4477,-0.681247 L -51.4331,-0.711416 L -51.4179,-0.741273  L -51.4021,-0.770805 L -51.3856,-0.799999 L -51.3686,-0.828843 L -51.3509,-0.857323 L -51.3327,-0.885426 L -51.3138,-0.913141  L -51.2944,-0.940456 L -51.2744,-0.967358 L -51.2539,-0.993836 L -51.2328,-1.01988 L -51.2112,-1.04547 L -51.189,-1.07061  L -51.1663,-1.09527 L -51.1432,-1.11946 L -51.1195,-1.14316 L -51.0953,-1.16635 L -51.0706,-1.18903 L -51.0455,-1.21119  L -51.0199,-1.23282 L -50.9938,-1.25391 L -50.9674,-1.27445 L -50.9405,-1.29443 L -50.9131,-1.31384 L -50.8854,-1.33267  L -50.8573,-1.35092 L -50.8288,-1.36858 L -50.8,-1.38564 L -50.7708,-1.40209 L -50.7413,-1.41792 L -50.7114,-1.43314  L -50.6812,-1.44772 L -50.6508,-1.46167 L -50.62,-1.47498 L -50.589,-1.48764 L -50.5577,-1.49965 L -50.5262,-1.511  L -50.4944,-1.52169 L -50.4625,-1.53171 L -50.4303,-1.54106 L -50.3979,-1.54973 L -50.3654,-1.55773 L -50.3327,-1.56504  L -50.2998,-1.57166 L -50.2668,-1.57759 L -50.2337,-1.58284 L -50.2005,-1.58738 L -50.1672,-1.59123 L -50.1339,-1.59439  L -50.1005,-1.59684 L -50.067,-1.5986 L -50.0335,-1.59965 L -50,-1.6 L -49.9665,-1.59965 L -49.933,-1.5986  L -49.8995,-1.59684 L -49.8661,-1.59439 L -49.8328,-1.59123 L -49.7995,-1.58738 L -49.7663,-1.58284 L -49.7332,-1.57759  L -49.7002,-1.57166 L -49.6673,-1.56504 L -49.6346,-1.55773 L -49.6021,-1.54973 L -49.5697,-1.54106 L -49.5375,-1.53171  L -49.5056,-1.52169 L -49.4738,-1.511 L -49.4423,-1.49965 L -49.411,-1.48764 L -49.38,-1.47498 L -49.3492,-1.46167  L -49.3188,-1.44772 L -49.2886,-1.43314 L -49.2587,-1.41792 L -49.2292,-1.40209 L -49.2,-1.38564 L -49.1712,-1.36858  L -49.1427,-1.35092 L -49.1146,-1.33267 L -49.0869,-1.31384 L -49.0595,-1.29443 L -49.0326,-1.27445 L -49.0062,-1.25391  L -48.9801,-1.23282 L -48.9545,-1.21119 L -48.9294,-1.18903 L -48.9047,-1.16635 L -48.8805,-1.14316 L -48.8568,-1.11946  L -48.8337,-1.09527 L -48.811,-1.07061 L -48.7888,-1.04547 L -48.7672,-1.01988 L -48.7461,-0.993836 L -48.7256,-0.967358  L -48.7056,-0.940456 L -48.6862,-0.913141 L -48.6673,-0.885426 L -48.6491,-0.857323 L -48.6314,-0.828843 L -48.6144,-0.799999  L -48.5979,-0.770805 L -48.5821,-0.741273 L -48.5669,-0.711416 L -48.5523,-0.681247 L -48.5383,-0.650778 L -48.525,-0.620025  L -48.5124,-0.588999 L -48.5003,-0.557714 L -48.489,-0.526186 L -48.4783,-0.494427 L -48.4683,-0.46245 L -48.4589,-0.430271  L -48.4503,-0.397903 L -48.4423,-0.365361 L -48.435,-0.332658 L -48.4283,-0.299809 L -48.4224,-0.266829 L -48.4172,-0.233732  L -48.4126,-0.200533 L -48.4088,-0.167245 L -48.4056,-0.133884 L -48.4032,-0.100465 L -48.4014,-0.0670004 L -48.4004,-0.0335073  L -48.4,-0 L -48.4004,0.0335073 L -48.4014,0.0670004 L -48.4032,0.100465 L -48.4056,0.133884 L -48.4088,0.167245  L -48.4126,0.200533 L -48.4172,0.233732 L -48.4224,0.266829 L -48.4283,0.299809 L -48.435,0.332658 L -48.4423,0.365361  L -48.4503,0.397903 L -48.4589,0.430271 L -48.4683,0.46245 L -48.4783,0.494427 L -48.489,0.526186 L -48.5003,0.557714  L -48.5124,0.588999 L -48.525,0.620025 L -48.5383,0.650778 L -48.5523,0.681247 L -48.5669,0.711416 L -48.5821,0.741273  L -48.5979,0.770805 L -48.6144,0.799999 L -48.6314,0.828843 L -48.6491,0.857323 L -48.6673,0.885426 L -48.6862,0.913141  L -48.7056,0.940456 L -48.7256,0.967358 L -48.7461,0.993836 L -48.7672,1.01988 L -48.7888,1.04547 L -48.811,1.07061  L -48.8337,1.09527 L -48.8568,1.11946 L -48.8805,1.14316 L -48.9047,1.16635 L -48.9294,1.18903 L -48.9545,1.21119  L -48.9801,1.23282 L -49.0062,1.25391 L -49.0326,1.27445 L -49.0595,1.29443 L -49.0869,1.31384 L -49.1146,1.33267  L -49.1427,1.35092 L -49.1712,1.36858 L -49.2,1.38564 L -49.2292,1.40209 L -49.2587,1.41792 L -49.2886,1.43314  L -49.3188,1.44772 L -49.3492,1.46167 L -49.38,1.47498 L -49.411,1.48764 L -49.4423,1.49965 L -49.4738,1.511  L -49.5056,1.52169 L -49.5375,1.53171 L -49.5697,1.54106 L -49.6021,1.54973 L -49.6346,1.55773 L -49.6673,1.56504  L -49.7002,1.57166 L -49.7332,1.57759 L -49.7663,1.58284 L -49.7995,1.58738 L -49.8328,1.59123 L -49.8661,1.59439  L -49.8995,1.59684 L -49.933,1.5986 L -49.9665,1.59965 L -50,1.6 L -50.0335,1.59965 L -50.067,1.5986  L -50.1005,1.59684 L -50.1339,1.59439 L -50.1672,1.59123 L -50.2005,1.58738 L -50.2337,1.58284 L -50.2668,1.57759  L -50.2998,1.57166 L -50.3327,1.56504 L -50.3654,1.55773 L -50.3979,1.54973 L -50.4303,1.54106 L -50.4625,1.53171  L -50.4944,1.52169 L -50.5262,1.511 L -50.5577,1.49965 L -50.589,1.48764 L -50.62,1.47498 L -50.6508,1.46167  L -50.6812,1.44772 L -50.7114,1.43314 L -50.7413,1.41792 L -50.7708,1.40209 L -50.8,1.38564 L -50.8288,1.36858  L -50.8573,1.35092 L -50.8854,1.33267 L -50.9131,1.31384 L -50.9405,1.29443 L -50.9674,1.27445 L -50.9938,1.25391  L -51.0199,1.23282 L -51.0455,1.21119 L -51.0706,1.18903 L -51.0953,1.16635 L -51.1195,1.14316 L -51.1432,1.11946  L -51.1663,1.09527 L -51.189,1.07061 L -51.2112,1.04547 L -51.2328,1.01988 L -51.2539,0.993836 L -51.2744,0.967358  L -51.2944,0.940456 L -51.3138,0.913141 L -51.3327,0.885426 L -51.3509,0.857323 L -51.3686,0.828843 L -51.3856,0.799999  L -51.4021,0.770805 L -51.4179,0.741273 L -51.4331,0.711416 L -51.4477,0.681247 L -51.4617,0.650778 L -51.475,0.620025  L -51.4876,0.588999 L -51.4997,0.557714 L -51.511,0.526186 L -51.5217,0.494427 L -51.5317,0.46245 L -51.5411,0.430271  L -51.5497,0.397903 L -51.5577,0.365361 L -51.565,0.332658 L -51.5717,0.299809 L -51.5776,0.266829 L -51.5828,0.233732  L -51.5874,0.200533 L -51.5912,0.167245 L -51.5944,0.133884 L -51.5968,0.100465 L -51.5986,0.0670004 L -51.5996,0.0335073  z M -36.9553,35.3721 L -36.9553,35.3386 L -36.9545,35.3051 L -36.9531,35.2716 L -36.951,35.2382 L -36.9482,35.2048  L -36.9447,35.1714 L -36.9405,35.1382 L -36.9356,35.105 L -36.9301,35.072 L -36.9238,35.0391 L -36.9168,35.0063  L -36.9092,34.9737 L -36.9008,34.9412 L -36.8918,34.909 L -36.8821,34.8769 L -36.8718,34.845 L -36.8607,34.8134  L -36.8491,34.782 L -36.8367,34.7508 L -36.8237,34.7199 L -36.8101,34.6893 L -36.7958,34.659 L -36.7809,34.629  L -36.7654,34.5993 L -36.7493,34.5699 L -36.7325,34.5409 L -36.7152,34.5122 L -36.6972,34.4839 L -36.6787,34.456  L -36.6595,34.4285 L -36.6398,34.4014 L -36.6196,34.3747 L -36.5988,34.3484 L -36.5774,34.3226 L -36.5555,34.2972  L -36.5331,34.2723 L -36.5102,34.2479 L -36.4867,34.224 L -36.4628,34.2005 L -36.4383,34.1776 L -36.4134,34.1552  L -36.3881,34.1333 L -36.3623,34.1119 L -36.336,34.0911 L -36.3093,34.0708 L -36.2822,34.0511 L -36.2547,34.032  L -36.2268,34.0135 L -36.1985,33.9955 L -36.1698,33.9782 L -36.1408,33.9614 L -36.1114,33.9453 L -36.0817,33.9297  L -36.0517,33.9148 L -36.0214,33.9006 L -35.9908,33.8869 L -35.9599,33.8739 L -35.9287,33.8616 L -35.8973,33.8499  L -35.8657,33.8389 L -35.8338,33.8286 L -35.8017,33.8189 L -35.7694,33.8099 L -35.737,33.8015 L -35.7044,33.7939  L -35.6716,33.7869 L -35.6387,33.7806 L -35.6056,33.775 L -35.5725,33.7701 L -35.5392,33.7659 L -35.5059,33.7624  L -35.4725,33.7596 L -35.4391,33.7575 L -35.4056,33.7561 L -35.3721,33.7554 L -35.3386,33.7554 L -35.3051,33.7561  L -35.2716,33.7575 L -35.2382,33.7596 L -35.2048,33.7624 L -35.1714,33.7659 L -35.1382,33.7701 L -35.105,33.775  L -35.072,33.7806 L -35.0391,33.7869 L -35.0063,33.7939 L -34.9737,33.8015 L -34.9412,33.8099 L -34.909,33.8189  L -34.8769,33.8286 L -34.845,33.8389 L -34.8134,33.8499 L -34.782,33.8616 L -34.7508,33.8739 L -34.7199,33.8869  L -34.6893,33.9006 L -34.659,33.9148 L -34.629,33.9297 L -34.5993,33.9453 L -34.5699,33.9614 L -34.5409,33.9782  L -34.5122,33.9955 L -34.4839,34.0135 L -34.456,34.032 L -34.4285,34.0511 L -34.4014,34.0708 L -34.3747,34.0911  L -34.3484,34.1119 L -34.3226,34.1333 L -34.2972,34.1552 L -34.2723,34.1776 L -34.2479,34.2005 L -34.224,34.224  L -34.2005,34.2479 L -34.1776,34.2723 L -34.1552,34.2972 L -34.1333,34.3226 L -34.1119,34.3484 L -34.0911,34.3747  L -34.0708,34.4014 L -34.0511,34.4285 L -34.032,34.456 L -34.0135,34.4839 L -33.9955,34.5122 L -33.9782,34.5409  L -33.9614,34.5699 L -33.9453,34.5993 L -33.9297,34.629 L -33.9148,34.659 L -33.9006,34.6893 L -33.8869,34.7199  L -33.8739,34.7508 L -33.8616,34.782 L -33.8499,34.8134 L -33.8389,34.845 L -33.8286,34.8769 L -33.8189,34.909  L -33.8099,34.9412 L -33.8015,34.9737 L -33.7939,35.0063 L -33.7869,35.0391 L -33.7806,35.072 L -33.775,35.105  L -33.7701,35.1382 L -33.7659,35.1714 L -33.7624,35.2048 L -33.7596,35.2382 L -33.7575,35.2716 L -33.7561,35.3051  L -33.7554,35.3386 L -33.7554,35.3721 L -33.7561,35.4056 L -33.7575,35.4391 L -33.7596,35.4725 L -33.7624,35.5059  L -33.7659,35.5392 L -33.7701,35.5725 L -33.775,35.6056 L -33.7806,35.6387 L -33.7869,35.6716 L -33.7939,35.7044  L -33.8015,35.737 L -33.8099,35.7694 L -33.8189,35.8017 L -33.8286,35.8338 L -33.8389,35.8657 L -33.8499,35.8973  L -33.8616,35.9287 L -33.8739,35.9599 L -33.8869,35.9908 L -33.9006,36.0214 L -33.9148,36.0517 L -33.9297,36.0817  L -33.9453,36.1114 L -33.9614,36.1408 L -33.9782,36.1698 L -33.9955,36.1985 L -34.0135,36.2268 L -34.032,36.2547  L -34.0511,36.2822 L -34.0708,36.3093 L -34.0911,36.336 L -34.1119,36.3623 L -34.1333,36.3881 L -34.1552,36.4134  L -34.1776,36.4383 L -34.2005,36.4628 L -34.224,36.4867 L -34.2479,36.5102 L -34.2723,36.5331 L -34.2972,36.5555  L -34.3226,36.5774 L -34.3484,36.5988 L -34.3747,36.6196 L -34.4014,36.6398 L -34.4285,36.6595 L -34.456,36.6787  L -34.4839,36.6972 L -34.5122,36.7152 L -34.5409,36.7325 L -34.5699,36.7493 L -34.5993,36.7654 L -34.629,36.7809  L -34.659,36.7958 L -34.6893,36.8101 L -34.7199,36.8237 L -34.7508,36.8367 L -34.782,36.8491 L -34.8134,36.8607  L -34.845,36.8718 L -34.8769,36.8821 L -34.909,36.8918 L -34.9412,36.9008 L -34.9737,36.9092 L -35.0063,36.9168  L -35.0391,36.9238 L -35.072,36.9301 L -35.105,36.9356 L -35.1382,36.9405 L -35.1714,36.9447 L -35.2048,36.9482  L -35.2382,36.951 L -35.2716,36.9531 L -35.3051,36.9545 L -35.3386,36.9553 L -35.3721,36.9553 L -35.4056,36.9545  L -35.4391,36.9531 L -35.4725,36.951 L -35.5059,36.9482 L -35.5392,36.9447 L -35.5725,36.9405 L -35.6056,36.9356  L -35.6387,36.9301 L -35.6716,36.9238 L -35.7044,36.9168 L -35.737,36.9092 L -35.7694,36.9008 L -35.8017,36.8918  L -35.8338,36.8821 L -35.8657,36.8718 L -35.8973,36.8607 L -35.9287,36.8491 L -35.9599,36.8367 L -35.9908,36.8237  L -36.0214,36.8101 L -36.0517,36.7958 L -36.0817,36.7809 L -36.1114,36.7654 L -36.1408,36.7493 L -36.1698,36.7325  L -36.1985,36.7152 L -36.2268,36.6972 L -36.2547,36.6787 L -36.2822,36.6595 L -36.3093,36.6398 L -36.336,36.6196  L -36.3623,36.5988 L -36.3881,36.5774 L -36.4134,36.5555 L -36.4383,36.5331 L -36.4628,36.5102 L -36.4867,36.4867  L -36.5102,36.4628 L -36.5331,36.4383 L -36.5555,36.4134 L -36.5774,36.3881 L -36.5988,36.3623 L -36.6196,36.336  L -36.6398,36.3093 L -36.6595,36.2822 L -36.6787,36.2547 L -36.6972,36.2268 L -36.7152,36.1985 L -36.7325,36.1698  L -36.7493,36.1408 L -36.7654,36.1114 L -36.7809,36.0817 L -36.7958,36.0517 L -36.8101,36.0214 L -36.8237,35.9908  L -36.8367,35.9599 L -36.8491,35.9287 L -36.8607,35.8973 L -36.8718,35.8657 L -36.8821,35.8338 L -36.8918,35.8017  L -36.9008,35.7694 L -36.9092,35.737 L -36.9168,35.7044 L -36.9238,35.6716 L -36.9301,35.6387 L -36.9356,35.6056  L -36.9405,35.5725 L -36.9447,35.5392 L -36.9482,35.5059 L -36.951,35.4725 L -36.9531,35.4391 L -36.9545,35.4056  z M -36.9553,-35.3386 L -36.9553,-35.3721 L -36.9545,-35.4056 L -36.9531,-35.4391 L -36.951,-35.4725 L -36.9482,-35.5059  L -36.9447,-35.5392 L -36.9405,-35.5725 L -36.9356,-35.6056 L -36.9301,-35.6387 L -36.9238,-35.6716 L -36.9168,-35.7044  L -36.9092,-35.737 L -36.9008,-35.7694 L -36.8918,-35.8017 L -36.8821,-35.8338 L -36.8718,-35.8657 L -36.8607,-35.8973  L -36.8491,-35.9287 L -36.8367,-35.9599 L -36.8237,-35.9908 L -36.8101,-36.0214 L -36.7958,-36.0517 L -36.7809,-36.0817  L -36.7654,-36.1114 L -36.7493,-36.1408 L -36.7325,-36.1698 L -36.7152,-36.1985 L -36.6972,-36.2268 L -36.6787,-36.2547  L -36.6595,-36.2822 L -36.6398,-36.3093 L -36.6196,-36.336 L -36.5988,-36.3623 L -36.5774,-36.3881 L -36.5555,-36.4134  L -36.5331,-36.4383 L -36.5102,-36.4628 L -36.4867,-36.4867 L -36.4628,-36.5102 L -36.4383,-36.5331 L -36.4134,-36.5555  L -36.3881,-36.5774 L -36.3623,-36.5988 L -36.336,-36.6196 L -36.3093,-36.6398 L -36.2822,-36.6595 L -36.2547,-36.6787  L -36.2268,-36.6972 L -36.1985,-36.7152 L -36.1698,-36.7325 L -36.1408,-36.7493 L -36.1114,-36.7654 L -36.0817,-36.7809  L -36.0517,-36.7958 L -36.0214,-36.8101 L -35.9908,-36.8237 L -35.9599,-36.8367 L -35.9287,-36.8491 L -35.8973,-36.8607  L -35.8657,-36.8718 L -35.8338,-36.8821 L -35.8017,-36.8918 L -35.7694,-36.9008 L -35.737,-36.9092 L -35.7044,-36.9168  L -35.6716,-36.9238 L -35.6387,-36.9301 L -35.6056,-36.9356 L -35.5725,-36.9405 L -35.5392,-36.9447 L -35.5059,-36.9482  L -35.4725,-36.951 L -35.4391,-36.9531 L -35.4056,-36.9545 L -35.3721,-36.9553 L -35.3386,-36.9553 L -35.3051,-36.9545  L -35.2716,-36.9531 L -35.2382,-36.951 L -35.2048,-36.9482 L -35.1714,-36.9447 L -35.1382,-36.9405 L -35.105,-36.9356  L -35.072,-36.9301 L -35.0391,-36.9238 L -35.0063,-36.9168 L -34.9737,-36.9092 L -34.9412,-36.9008 L -34.909,-36.8918  L -34.8769,-36.8821 L -34.845,-36.8718 L -34.8134,-36.8607 L -34.782,-36.8491 L -34.7508,-36.8367 L -34.7199,-36.8237  L -34.6893,-36.8101 L -34.659,-36.7958 L -34.629,-36.7809 L -34.5993,-36.7654 L -34.5699,-36.7493 L -34.5409,-36.7325  L -34.5122,-36.7152 L -34.4839,-36.6972 L -34.456,-36.6787 L -34.4285,-36.6595 L -34.4014,-36.6398 L -34.3747,-36.6196  L -34.3484,-36.5988 L -34.3226,-36.5774 L -34.2972,-36.5555 L -34.2723,-36.5331 L -34.2479,-36.5102 L -34.224,-36.4867  L -34.2005,-36.4628 L -34.1776,-36.4383 L -34.1552,-36.4134 L -34.1333,-36.3881 L -34.1119,-36.3623 L -34.0911,-36.336  L -34.0708,-36.3093 L -34.0511,-36.2822 L -34.032,-36.2547 L -34.0135,-36.2268 L -33.9955,-36.1985 L -33.9782,-36.1698  L -33.9614,-36.1408 L -33.9453,-36.1114 L -33.9297,-36.0817 L -33.9148,-36.0517 L -33.9006,-36.0214 L -33.8869,-35.9908  L -33.8739,-35.9599 L -33.8616,-35.9287 L -33.8499,-35.8973 L -33.8389,-35.8657 L -33.8286,-35.8338 L -33.8189,-35.8017  L -33.8099,-35.7694 L -33.8015,-35.737 L -33.7939,-35.7044 L -33.7869,-35.6716 L -33.7806,-35.6387 L -33.775,-35.6056  L -33.7701,-35.5725 L -33.7659,-35.5392 L -33.7624,-35.5059 L -33.7596,-35.4725 L -33.7575,-35.4391 L -33.7561,-35.4056  L -33.7554,-35.3721 L -33.7554,-35.3386 L -33.7561,-35.3051 L -33.7575,-35.2716 L -33.7596,-35.2382 L -33.7624,-35.2048  L -33.7659,-35.1714 L -33.7701,-35.1382 L -33.775,-35.105 L -33.7806,-35.072 L -33.7869,-35.0391 L -33.7939,-35.0063  L -33.8015,-34.9737 L -33.8099,-34.9412 L -33.8189,-34.909 L -33.8286,-34.8769 L -33.8389,-34.845 L -33.8499,-34.8134  L -33.8616,-34.782 L -33.8739,-34.7508 L -33.8869,-34.7199 L -33.9006,-34.6893 L -33.9148,-34.659 L -33.9297,-34.629  L -33.9453,-34.5993 L -33.9614,-34.5699 L -33.9782,-34.5409 L -33.9955,-34.5122 L -34.0135,-34.4839 L -34.032,-34.456  L -34.0511,-34.4285 L -34.0708,-34.4014 L -34.0911,-34.3747 L -34.1119,-34.3484 L -34.1333,-34.3226 L -34.1552,-34.2972  L -34.1776,-34.2723 L -34.2005,-34.2479 L -34.224,-34.224 L -34.2479,-34.2005 L -34.2723,-34.1776 L -34.2972,-34.1552  L -34.3226,-34.1333 L -34.3484,-34.1119 L -34.3747,-34.0911 L -34.4014,-34.0708 L -34.4285,-34.0511 L -34.456,-34.032  L -34.4839,-34.0135 L -34.5122,-33.9955 L -34.5409,-33.9782 L -34.5699,-33.9614 L -34.5993,-33.9453 L -34.629,-33.9297  L -34.659,-33.9148 L -34.6893,-33.9006 L -34.7199,-33.8869 L -34.7508,-33.8739 L -34.782,-33.8616 L -34.8134,-33.8499  L -34.845,-33.8389 L -34.8769,-33.8286 L -34.909,-33.8189 L -34.9412,-33.8099 L -34.9737,-33.8015 L -35.0063,-33.7939  L -35.0391,-33.7869 L -35.072,-33.7806 L -35.105,-33.775 L -35.1382,-33.7701 L -35.1714,-33.7659 L -35.2048,-33.7624  L -35.2382,-33.7596 L -35.2716,-33.7575 L -35.3051,-33.7561 L -35.3386,-33.7554 L -35.3721,-33.7554 L -35.4056,-33.7561  L -35.4391,-33.7575 L -35.4725,-33.7596 L -35.5059,-33.7624 L -35.5392,-33.7659 L -35.5725,-33.7701 L -35.6056,-33.775  L -35.6387,-33.7806 L -35.6716,-33.7869 L -35.7044,-33.7939 L -35.737,-33.8015 L -35.7694,-33.8099 L -35.8017,-33.8189  L -35.8338,-33.8286 L -35.8657,-33.8389 L -35.8973,-33.8499 L -35.9287,-33.8616 L -35.9599,-33.8739 L -35.9908,-33.8869  L -36.0214,-33.9006 L -36.0517,-33.9148 L -36.0817,-33.9297 L -36.1114,-33.9453 L -36.1408,-33.9614 L -36.1698,-33.9782  L -36.1985,-33.9955 L -36.2268,-34.0135 L -36.2547,-34.032 L -36.2822,-34.0511 L -36.3093,-34.0708 L -36.336,-34.0911  L -36.3623,-34.1119 L -36.3881,-34.1333 L -36.4134,-34.1552 L -36.4383,-34.1776 L -36.4628,-34.2005 L -36.4867,-34.224  L -36.5102,-34.2479 L -36.5331,-34.2723 L -36.5555,-34.2972 L -36.5774,-34.3226 L -36.5988,-34.3484 L -36.6196,-34.3747  L -36.6398,-34.4014 L -36.6595,-34.4285 L -36.6787,-34.456 L -36.6972,-34.4839 L -36.7152,-34.5122 L -36.7325,-34.5409  L -36.7493,-34.5699 L -36.7654,-34.5993 L -36.7809,-34.629 L -36.7958,-34.659 L -36.8101,-34.6893 L -36.8237,-34.7199  L -36.8367,-34.7508 L -36.8491,-34.782 L -36.8607,-34.8134 L -36.8718,-34.845 L -36.8821,-34.8769 L -36.8918,-34.909  L -36.9008,-34.9412 L -36.9092,-34.9737 L -36.9168,-35.0063 L -36.9238,-35.0391 L -36.9301,-35.072 L -36.9356,-35.105  L -36.9405,-35.1382 L -36.9447,-35.1714 L -36.9482,-35.2048 L -36.951,-35.2382 L -36.9531,-35.2716 L -36.9545,-35.3051  z M -20.3256,-0 L -20.3212,-0.416753 L -20.3211,-0.425666 L -20.308,-0.842237 L -20.3078,-0.851147 L -20.2859,-1.26735  L -20.2855,-1.27625 L -20.2549,-1.69191 L -20.2543,-1.7008 L -20.2151,-2.11573 L -20.2142,-2.1246 L -20.1663,-2.53862  L -20.1653,-2.54747 L -20.1087,-2.96039 L -20.1075,-2.96922 L -20.0423,-3.38087 L -20.0409,-3.38967 L -19.9671,-3.79986  L -19.9656,-3.80863 L -19.8832,-4.21719 L -19.8814,-4.22593 L -19.7905,-4.63266 L -19.7886,-4.64136 L -19.6891,-5.04611  L -19.687,-5.05477 L -19.5791,-5.45734 L -19.5768,-5.46595 L -19.4606,-5.86618 L -19.4581,-5.87474 L -19.3334,-6.27244  L -19.3308,-6.28095 L -19.1978,-6.67596 L -19.195,-6.68441 L -19.0538,-7.07654 L -19.0508,-7.08493 L -18.9014,-7.47402  L -18.8982,-7.48235 L -18.7408,-7.86823 L -18.7374,-7.87648 L -18.5719,-8.25898 L -18.5683,-8.26716 L -18.3948,-8.64611  L -18.3911,-8.65421 L -18.2097,-9.02944 L -18.2059,-9.03747 L -18.0166,-9.40882 L -18.0126,-9.41676 L -17.8157,-9.78407  L -17.8114,-9.79192 L -17.6068,-10.155 L -17.6025,-10.1628 L -17.3903,-10.5215 L -17.3858,-10.5292 L -17.1662,-10.8834  L -17.1615,-10.891 L -16.9345,-11.2405 L -16.9296,-11.248 L -16.6953,-11.5927 L -16.6903,-11.6001 L -16.4489,-11.9398  L -16.4437,-11.9471 L -16.1952,-12.2817 L -16.1899,-12.2888 L -15.9345,-12.6181 L -15.929,-12.6252 L -15.6667,-12.9491  L -15.6611,-12.956 L -15.3921,-13.2743 L -15.3864,-13.2812 L -15.1107,-13.5938 L -15.1049,-13.6005 L -14.8227,-13.9073  L -14.8167,-13.9138 L -14.5282,-14.2146 L -14.5221,-14.2211 L -14.2211,-14.5221 L -13.9203,-14.8105 L -13.9138,-14.8167  L -13.607,-15.0988 L -13.6005,-15.1049 L -13.2878,-15.3805 L -13.2812,-15.3864 L -12.9628,-15.6554 L -12.956,-15.6611  L -12.6321,-15.9234 L -12.6252,-15.929 L -12.2959,-16.1845 L -12.2888,-16.1899 L -11.9542,-16.4384 L -11.9471,-16.4437  L -11.6074,-16.6852 L -11.6001,-16.6903 L -11.2554,-16.9246 L -11.248,-16.9296 L -10.8985,-17.1566 L -10.891,-17.1615  L -10.5368,-17.3811 L -10.5292,-17.3858 L -10.1705,-17.5979 L -10.1628,-17.6025 L -9.79969,-17.8071 L -9.79192,-17.8114  L -9.42462,-18.0084 L -9.41676,-18.0126 L -9.04541,-18.2018 L -9.03747,-18.2059 L -8.66224,-18.3873 L -8.65421,-18.3911  L -8.27526,-18.5646 L -8.26716,-18.5683 L -7.88466,-18.7339 L -7.87648,-18.7374 L -7.4906,-18.8949 L -7.48235,-18.8982  L -7.09325,-19.0476 L -7.08493,-19.0508 L -6.69279,-19.192 L -6.68441,-19.195 L -6.2894,-19.3279 L -6.28095,-19.3308  L -5.88325,-19.4554 L -5.87474,-19.4581 L -5.47451,-19.5744 L -5.46595,-19.5768 L -5.06338,-19.6847 L -5.05477,-19.687  L -4.65002,-19.7864 L -4.64136,-19.7886 L -4.23463,-19.8795 L -4.22593,-19.8814 L -3.81737,-19.9638 L -3.80863,-19.9656  L -3.39844,-20.0394 L -3.38967,-20.0409 L -2.97803,-20.1061 L -2.96922,-20.1075 L -2.5563,-20.1641 L -2.54747,-20.1653  L -2.13346,-20.2132 L -2.1246,-20.2142 L -1.70967,-20.2535 L -1.7008,-20.2543 L -1.28514,-20.2848 L -1.27625,-20.2855  L -0.860049,-20.3073 L -0.851147,-20.3078 L -0.434576,-20.3208 L -0.425666,-20.3211 L -0.00891364,-20.3255 L 0,-20.3256  L 0.416753,-20.3212 L 0.425666,-20.3211 L 0.842237,-20.308 L 0.851147,-20.3078 L 1.26735,-20.2859 L 1.27625,-20.2855  L 1.69191,-20.2549 L 1.7008,-20.2543 L 2.11573,-20.2151 L 2.1246,-20.2142 L 2.53862,-20.1663 L 2.54747,-20.1653  L 2.96039,-20.1087 L 2.96922,-20.1075 L 3.38087,-20.0423 L 3.38967,-20.0409 L 3.79986,-19.9671 L 3.80863,-19.9656  L 4.21719,-19.8832 L 4.22593,-19.8814 L 4.63266,-19.7905 L 4.64136,-19.7886 L 5.04611,-19.6891 L 5.05477,-19.687  L 5.45734,-19.5791 L 5.46595,-19.5768 L 5.86618,-19.4606 L 5.87474,-19.4581 L 6.27244,-19.3334 L 6.28095,-19.3308  L 6.67596,-19.1978 L 6.68441,-19.195 L 7.07654,-19.0538 L 7.08493,-19.0508 L 7.47402,-18.9014 L 7.48235,-18.8982  L 7.86823,-18.7408 L 7.87648,-18.7374 L 8.25898,-18.5719 L 8.26716,-18.5683 L 8.64611,-18.3948 L 8.65421,-18.3911  L 9.02944,-18.2097 L 9.03747,-18.2059 L 9.40882,-18.0166 L 9.41676,-18.0126 L 9.78407,-17.8157 L 9.79192,-17.8114  L 10.155,-17.6068 L 10.1628,-17.6025 L 10.5215,-17.3903 L 10.5292,-17.3858 L 10.8834,-17.1662 L 10.891,-17.1615  L 11.2405,-16.9345 L 11.248,-16.9296 L 11.5927,-16.6953 L 11.6001,-16.6903 L 11.9398,-16.4489 L 11.9471,-16.4437  L 12.2817,-16.1952 L 12.2888,-16.1899 L 12.6181,-15.9345 L 12.6252,-15.929 L 12.9491,-15.6667 L 12.956,-15.6611  L 13.2743,-15.3921 L 13.2812,-15.3864 L 13.5938,-15.1107 L 13.6005,-15.1049 L 13.9073,-14.8227 L 13.9138,-14.8167  L 14.2146,-14.5282 L 14.2211,-14.5221 L 14.5221,-14.2211 L 14.8105,-13.9203 L 14.8167,-13.9138 L 15.0988,-13.607  L 15.1049,-13.6005 L 15.3805,-13.2878 L 15.3864,-13.2812 L 15.6554,-12.9628 L 15.6611,-12.956 L 15.9234,-12.6321  L 15.929,-12.6252 L 16.1845,-12.2959 L 16.1899,-12.2888 L 16.4384,-11.9542 L 16.4437,-11.9471 L 16.6852,-11.6074  L 16.6903,-11.6001 L 16.9246,-11.2554 L 16.9296,-11.248 L 17.1566,-10.8985 L 17.1615,-10.891 L 17.3811,-10.5368  L 17.3858,-10.5292 L 17.5979,-10.1705 L 17.6025,-10.1628 L 17.8071,-9.79969 L 17.8114,-9.79192 L 18.0084,-9.42462  L 18.0126,-9.41676 L 18.2018,-9.04541 L 18.2059,-9.03747 L 18.3873,-8.66224 L 18.3911,-8.65421 L 18.5646,-8.27526  L 18.5683,-8.26716 L 18.7339,-7.88466 L 18.7374,-7.87648 L 18.8949,-7.4906 L 18.8982,-7.48235 L 19.0476,-7.09325  L 19.0508,-7.08493 L 19.192,-6.69279 L 19.195,-6.68441 L 19.3279,-6.2894 L 19.3308,-6.28095 L 19.4554,-5.88325  L 19.4581,-5.87474 L 19.5744,-5.47451 L 19.5768,-5.46595 L 19.6847,-5.06338 L 19.687,-5.05477 L 19.7864,-4.65002  L 19.7886,-4.64136 L 19.8795,-4.23463 L 19.8814,-4.22593 L 19.9638,-3.81737 L 19.9656,-3.80863 L 20.0394,-3.39844  L 20.0409,-3.38967 L 20.1061,-2.97803 L 20.1075,-2.96922 L 20.1641,-2.5563 L 20.1653,-2.54747 L 20.2132,-2.13346  L 20.2142,-2.1246 L 20.2535,-1.70967 L 20.2543,-1.7008 L 20.2848,-1.28514 L 20.2855,-1.27625 L 20.3073,-0.860049  L 20.3078,-0.851147 L 20.3208,-0.434576 L 20.3211,-0.425666 L 20.3255,-0.00891364 L 20.3256,-0 L 20.3212,0.416753  L 20.3211,0.425666 L 20.308,0.842237 L 20.3078,0.851147 L 20.2859,1.26735 L 20.2855,1.27625 L 20.2549,1.69191  L 20.2543,1.7008 L 20.2151,2.11573 L 20.2142,2.1246 L 20.1663,2.53862 L 20.1653,2.54747 L 20.1087,2.96039  L 20.1075,2.96922 L 20.0423,3.38087 L 20.0409,3.38967 L 19.9671,3.79986 L 19.9656,3.80863 L 19.8832,4.21719  L 19.8814,4.22593 L 19.7905,4.63266 L 19.7886,4.64136 L 19.6891,5.04611 L 19.687,5.05477 L 19.5791,5.45734  L 19.5768,5.46595 L 19.4606,5.86618 L 19.4581,5.87474 L 19.3334,6.27244 L 19.3308,6.28095 L 19.1978,6.67596  L 19.195,6.68441 L 19.0538,7.07654 L 19.0508,7.08493 L 18.9014,7.47402 L 18.8982,7.48235 L 18.7408,7.86823  L 18.7374,7.87648 L 18.5719,8.25898 L 18.5683,8.26716 L 18.3948,8.64611 L 18.3911,8.65421 L 18.2097,9.02944  L 18.2059,9.03747 L 18.0166,9.40882 L 18.0126,9.41676 L 17.8157,9.78407 L 17.8114,9.79192 L 17.6068,10.155  L 17.6025,10.1628 L 17.3903,10.5215 L 17.3858,10.5292 L 17.1662,10.8834 L 17.1615,10.891 L 16.9345,11.2405  L 16.9296,11.248 L 16.6953,11.5927 L 16.6903,11.6001 L 16.4489,11.9398 L 16.4437,11.9471 L 16.1952,12.2817  L 16.1899,12.2888 L 15.9345,12.6181 L 15.929,12.6252 L 15.6667,12.9491 L 15.6611,12.956 L 15.3921,13.2743  L 15.3864,13.2812 L 15.1107,13.5938 L 15.1049,13.6005 L 14.8227,13.9073 L 14.8167,13.9138 L 14.5282,14.2146  L 14.5221,14.2211 L 14.2211,14.5221 L 13.9203,14.8105 L 13.9138,14.8167 L 13.607,15.0988 L 13.6005,15.1049  L 13.2878,15.3805 L 13.2812,15.3864 L 12.9628,15.6554 L 12.956,15.6611 L 12.6321,15.9234 L 12.6252,15.929  L 12.2959,16.1845 L 12.2888,16.1899 L 11.9542,16.4384 L 11.9471,16.4437 L 11.6074,16.6852 L 11.6001,16.6903  L 11.2554,16.9246 L 11.248,16.9296 L 10.8985,17.1566 L 10.891,17.1615 L 10.5368,17.3811 L 10.5292,17.3858  L 10.1705,17.5979 L 10.1628,17.6025 L 9.79969,17.8071 L 9.79192,17.8114 L 9.42462,18.0084 L 9.41676,18.0126  L 9.04541,18.2018 L 9.03747,18.2059 L 8.66224,18.3873 L 8.65421,18.3911 L 8.27526,18.5646 L 8.26716,18.5683  L 7.88466,18.7339 L 7.87648,18.7374 L 7.4906,18.8949 L 7.48235,18.8982 L 7.09325,19.0476 L 7.08493,19.0508  L 6.69279,19.192 L 6.68441,19.195 L 6.2894,19.3279 L 6.28095,19.3308 L 5.88325,19.4554 L 5.87474,19.4581  L 5.47451,19.5744 L 5.46595,19.5768 L 5.06338,19.6847 L 5.05477,19.687 L 4.65002,19.7864 L 4.64136,19.7886  L 4.23463,19.8795 L 4.22593,19.8814 L 3.81737,19.9638 L 3.80863,19.9656 L 3.39844,20.0394 L 3.38967,20.0409  L 2.97803,20.1061 L 2.96922,20.1075 L 2.5563,20.1641 L 2.54747,20.1653 L 2.13346,20.2132 L 2.1246,20.2142  L 1.70967,20.2535 L 1.7008,20.2543 L 1.28514,20.2848 L 1.27625,20.2855 L 0.860049,20.3073 L 0.851147,20.3078  L 0.434576,20.3208 L 0.425666,20.3211 L 0.00891364,20.3255 L 0,20.3256 L -0.416753,20.3212 L -0.425666,20.3211  L -0.842237,20.308 L -0.851147,20.3078 L -1.26735,20.2859 L -1.27625,20.2855 L -1.69191,20.2549 L -1.7008,20.2543  L -2.11573,20.2151 L -2.1246,20.2142 L -2.53862,20.1663 L -2.54747,20.1653 L -2.96039,20.1087 L -2.96922,20.1075  L -3.38087,20.0423 L -3.38967,20.0409 L -3.79986,19.9671 L -3.80863,19.9656 L -4.21719,19.8832 L -4.22593,19.8814  L -4.63266,19.7905 L -4.64136,19.7886 L -5.04611,19.6891 L -5.05477,19.687 L -5.45734,19.5791 L -5.46595,19.5768  L -5.86618,19.4606 L -5.87474,19.4581 L -6.27244,19.3334 L -6.28095,19.3308 L -6.67596,19.1978 L -6.68441,19.195  L -7.07654,19.0538 L -7.08493,19.0508 L -7.47402,18.9014 L -7.48235,18.8982 L -7.86823,18.7408 L -7.87648,18.7374  L -8.25898,18.5719 L -8.26716,18.5683 L -8.64611,18.3948 L -8.65421,18.3911 L -9.02944,18.2097 L -9.03747,18.2059  L -9.40882,18.0166 L -9.41676,18.0126 L -9.78407,17.8157 L -9.79192,17.8114 L -10.155,17.6068 L -10.1628,17.6025  L -10.5215,17.3903 L -10.5292,17.3858 L -10.8834,17.1662 L -10.891,17.1615 L -11.2405,16.9345 L -11.248,16.9296  L -11.5927,16.6953 L -11.6001,16.6903 L -11.9398,16.4489 L -11.9471,16.4437 L -12.2817,16.1952 L -12.2888,16.1899  L -12.6181,15.9345 L -12.6252,15.929 L -12.9491,15.6667 L -12.956,15.6611 L -13.2743,15.3921 L -13.2812,15.3864  L -13.5938,15.1107 L -13.6005,15.1049 L -13.9073,14.8227 L -13.9138,14.8167 L -14.2146,14.5282 L -14.2211,14.5221  L -14.5221,14.2211 L -14.8105,13.9203 L -14.8167,13.9138 L -15.0988,13.607 L -15.1049,13.6005 L -15.3805,13.2878  L -15.3864,13.2812 L -15.6554,12.9628 L -15.6611,12.956 L -15.9234,12.6321 L -15.929,12.6252 L -16.1845,12.2959  L -16.1899,12.2888 L -16.4384,11.9542 L -16.4437,11.9471 L -16.6852,11.6074 L -16.6903,11.6001 L -16.9246,11.2554  L -16.9296,11.248 L -17.1566,10.8985 L -17.1615,10.891 L -17.3811,10.5368 L -17.3858,10.5292 L -17.5979,10.1705  L -17.6025,10.1628 L -17.8071,9.79969 L -17.8114,9.79192 L -18.0084,9.42462 L -18.0126,9.41676 L -18.2018,9.04541  L -18.2059,9.03747 L -18.3873,8.66224 L -18.3911,8.65421 L -18.5646,8.27526 L -18.5683,8.26716 L -18.7339,7.88466  L -18.7374,7.87648 L -18.8949,7.4906 L -18.8982,7.48235 L -19.0476,7.09325 L -19.0508,7.08493 L -19.192,6.69279  L -19.195,6.68441 L -19.3279,6.2894 L -19.3308,6.28095 L -19.4554,5.88325 L -19.4581,5.87474 L -19.5744,5.47451  L -19.5768,5.46595 L -19.6847,5.06338 L -19.687,5.05477 L -19.7864,4.65002 L -19.7886,4.64136 L -19.8795,4.23463  L -19.8814,4.22593 L -19.9638,3.81737 L -19.9656,3.80863 L -20.0394,3.39844 L -20.0409,3.38967 L -20.1061,2.97803  L -20.1075,2.96922 L -20.1641,2.5563 L -20.1653,2.54747 L -20.2132,2.13346 L -20.2142,2.1246 L -20.2535,1.70967  L -20.2543,1.7008 L -20.2848,1.28514 L -20.2855,1.27625 L -20.3073,0.860049 L -20.3078,0.851147 L -20.3208,0.434576  L -20.3211,0.425666 L -20.3255,0.00891364 z M -1.6,50 L -1.59965,49.9665 L -1.5986,49.933 L -1.59684,49.8995 L -1.59439,49.8661 L -1.59123,49.8328  L -1.58738,49.7995 L -1.58284,49.7663 L -1.57759,49.7332 L -1.57166,49.7002 L -1.56504,49.6673 L -1.55773,49.6346  L -1.54973,49.6021 L -1.54106,49.5697 L -1.53171,49.5375 L -1.52169,49.5056 L -1.511,49.4738 L -1.49965,49.4423  L -1.48764,49.411 L -1.47498,49.38 L -1.46167,49.3492 L -1.44772,49.3188 L -1.43314,49.2886 L -1.41792,49.2587  L -1.40209,49.2292 L -1.38564,49.2 L -1.36858,49.1712 L -1.35092,49.1427 L -1.33267,49.1146 L -1.31384,49.0869  L -1.29443,49.0595 L -1.27445,49.0326 L -1.25391,49.0062 L -1.23282,48.9801 L -1.21119,48.9545 L -1.18903,48.9294  L -1.16635,48.9047 L -1.14316,48.8805 L -1.11946,48.8568 L -1.09527,48.8337 L -1.07061,48.811 L -1.04547,48.7888  L -1.01988,48.7672 L -0.993836,48.7461 L -0.967358,48.7256 L -0.940456,48.7056 L -0.913141,48.6862 L -0.885426,48.6673  L -0.857323,48.6491 L -0.828843,48.6314 L -0.799999,48.6144 L -0.770805,48.5979 L -0.741273,48.5821 L -0.711416,48.5669  L -0.681247,48.5523 L -0.650778,48.5383 L -0.620025,48.525 L -0.588999,48.5124 L -0.557714,48.5003 L -0.526186,48.489  L -0.494427,48.4783 L -0.46245,48.4683 L -0.430271,48.4589 L -0.397903,48.4503 L -0.365361,48.4423 L -0.332658,48.435  L -0.299809,48.4283 L -0.266829,48.4224 L -0.233732,48.4172 L -0.200533,48.4126 L -0.167245,48.4088 L -0.133884,48.4056  L -0.100465,48.4032 L -0.0670004,48.4014 L -0.0335073,48.4004 L 0,48.4 L 0.0335073,48.4004 L 0.0670004,48.4014  L 0.100465,48.4032 L 0.133884,48.4056 L 0.167245,48.4088 L 0.200533,48.4126 L 0.233732,48.4172 L 0.266829,48.4224  L 0.299809,48.4283 L 0.332658,48.435 L 0.365361,48.4423 L 0.397903,48.4503 L 0.430271,48.4589 L 0.46245,48.4683  L 0.494427,48.4783 L 0.526186,48.489 L 0.557714,48.5003 L 0.588999,48.5124 L 0.620025,48.525 L 0.650778,48.5383  L 0.681247,48.5523 L 0.711416,48.5669 L 0.741273,48.5821 L 0.770805,48.5979 L 0.799999,48.6144 L 0.828843,48.6314  L 0.857323,48.6491 L 0.885426,48.6673 L 0.913141,48.6862 L 0.940456,48.7056 L 0.967358,48.7256 L 0.993836,48.7461  L 1.01988,48.7672 L 1.04547,48.7888 L 1.07061,48.811 L 1.09527,48.8337 L 1.11946,48.8568 L 1.14316,48.8805  L 1.16635,48.9047 L 1.18903,48.9294 L 1.21119,48.9545 L 1.23282,48.9801 L 1.25391,49.0062 L 1.27445,49.0326  L 1.29443,49.0595 L 1.31384,49.0869 L 1.33267,49.1146 L 1.35092,49.1427 L 1.36858,49.1712 L 1.38564,49.2  L 1.40209,49.2292 L 1.41792,49.2587 L 1.43314,49.2886 L 1.44772,49.3188 L 1.46167,49.3492 L 1.47498,49.38  L 1.48764,49.411 L 1.49965,49.4423 L 1.511,49.4738 L 1.52169,49.5056 L 1.53171,49.5375 L 1.54106,49.5697  L 1.54973,49.6021 L 1.55773,49.6346 L 1.56504,49.6673 L 1.57166,49.7002 L 1.57759,49.7332 L 1.58284,49.7663  L 1.58738,49.7995 L 1.59123,49.8328 L 1.59439,49.8661 L 1.59684,49.8995 L 1.5986,49.933 L 1.59965,49.9665  L 1.6,50 L 1.59965,50.0335 L 1.5986,50.067 L 1.59684,50.1005 L 1.59439,50.1339 L 1.59123,50.1672  L 1.58738,50.2005 L 1.58284,50.2337 L 1.57759,50.2668 L 1.57166,50.2998 L 1.56504,50.3327 L 1.55773,50.3654  L 1.54973,50.3979 L 1.54106,50.4303 L 1.53171,50.4625 L 1.52169,50.4944 L 1.511,50.5262 L 1.49965,50.5577  L 1.48764,50.589 L 1.47498,50.62 L 1.46167,50.6508 L 1.44772,50.6812 L 1.43314,50.7114 L 1.41792,50.7413  L 1.40209,50.7708 L 1.38564,50.8 L 1.36858,50.8288 L 1.35092,50.8573 L 1.33267,50.8854 L 1.31384,50.9131  L 1.29443,50.9405 L 1.27445,50.9674 L 1.25391,50.9938 L 1.23282,51.0199 L 1.21119,51.0455 L 1.18903,51.0706  L 1.16635,51.0953 L 1.14316,51.1195 L 1.11946,51.1432 L 1.09527,51.1663 L 1.07061,51.189 L 1.04547,51.2112  L 1.01988,51.2328 L 0.993836,51.2539 L 0.967358,51.2744 L 0.940456,51.2944 L 0.913141,51.3138 L 0.885426,51.3327  L 0.857323,51.3509 L 0.828843,51.3686 L 0.799999,51.3856 L 0.770805,51.4021 L 0.741273,51.4179 L 0.711416,51.4331  L 0.681247,51.4477 L 0.650778,51.4617 L 0.620025,51.475 L 0.588999,51.4876 L 0.557714,51.4997 L 0.526186,51.511  L 0.494427,51.5217 L 0.46245,51.5317 L 0.430271,51.5411 L 0.397903,51.5497 L 0.365361,51.5577 L 0.332658,51.565  L 0.299809,51.5717 L 0.266829,51.5776 L 0.233732,51.5828 L 0.200533,51.5874 L 0.167245,51.5912 L 0.133884,51.5944  L 0.100465,51.5968 L 0.0670004,51.5986 L 0.0335073,51.5996 L 0,51.6 L -0.0335073,51.5996 L -0.0670004,51.5986  L -0.100465,51.5968 L -0.133884,51.5944 L -0.167245,51.5912 L -0.200533,51.5874 L -0.233732,51.5828 L -0.266829,51.5776  L -0.299809,51.5717 L -0.332658,51.565 L -0.365361,51.5577 L -0.397903,51.5497 L -0.430271,51.5411 L -0.46245,51.5317  L -0.494427,51.5217 L -0.526186,51.511 L -0.557714,51.4997 L -0.588999,51.4876 L -0.620025,51.475 L -0.650778,51.4617  L -0.681247,51.4477 L -0.711416,51.4331 L -0.741273,51.4179 L -0.770805,51.4021 L -0.799999,51.3856 L -0.828843,51.3686  L -0.857323,51.3509 L -0.885426,51.3327 L -0.913141,51.3138 L -0.940456,51.2944 L -0.967358,51.2744 L -0.993836,51.2539  L -1.01988,51.2328 L -1.04547,51.2112 L -1.07061,51.189 L -1.09527,51.1663 L -1.11946,51.1432 L -1.14316,51.1195  L -1.16635,51.0953 L -1.18903,51.0706 L -1.21119,51.0455 L -1.23282,51.0199 L -1.25391,50.9938 L -1.27445,50.9674  L -1.29443,50.9405 L -1.31384,50.9131 L -1.33267,50.8854 L -1.35092,50.8573 L -1.36858,50.8288 L -1.38564,50.8  L -1.40209,50.7708 L -1.41792,50.7413 L -1.43314,50.7114 L -1.44772,50.6812 L -1.46167,50.6508 L -1.47498,50.62  L -1.48764,50.589 L -1.49965,50.5577 L -1.511,50.5262 L -1.52169,50.4944 L -1.53171,50.4625 L -1.54106,50.4303  L -1.54973,50.3979 L -1.55773,50.3654 L -1.56504,50.3327 L -1.57166,50.2998 L -1.57759,50.2668 L -1.58284,50.2337  L -1.58738,50.2005 L -1.59123,50.1672 L -1.59439,50.1339 L -1.59684,50.1005 L -1.5986,50.067 L -1.59965,50.0335  z M -1.6,-50 L -1.59965,-50.0335 L -1.5986,-50.067 L -1.59684,-50.1005 L -1.59439,-50.1339 L -1.59123,-50.1672  L -1.58738,-50.2005 L -1.58284,-50.2337 L -1.57759,-50.2668 L -1.57166,-50.2998 L -1.56504,-50.3327 L -1.55773,-50.3654  L -1.54973,-50.3979 L -1.54106,-50.4303 L -1.53171,-50.4625 L -1.52169,-50.4944 L -1.511,-50.5262 L -1.49965,-50.5577  L -1.48764,-50.589 L -1.47498,-50.62 L -1.46167,-50.6508 L -1.44772,-50.6812 L -1.43314,-50.7114 L -1.41792,-50.7413  L -1.40209,-50.7708 L -1.38564,-50.8 L -1.36858,-50.8288 L -1.35092,-50.8573 L -1.33267,-50.8854 L -1.31384,-50.9131  L -1.29443,-50.9405 L -1.27445,-50.9674 L -1.25391,-50.9938 L -1.23282,-51.0199 L -1.21119,-51.0455 L -1.18903,-51.0706  L -1.16635,-51.0953 L -1.14316,-51.1195 L -1.11946,-51.1432 L -1.09527,-51.1663 L -1.07061,-51.189 L -1.04547,-51.2112  L -1.01988,-51.2328 L -0.993836,-51.2539 L -0.967358,-51.2744 L -0.940456,-51.2944 L -0.913141,-51.3138 L -0.885426,-51.3327  L -0.857323,-51.3509 L -0.828843,-51.3686 L -0.799999,-51.3856 L -0.770805,-51.4021 L -0.741273,-51.4179 L -0.711416,-51.4331  L -0.681247,-51.4477 L -0.650778,-51.4617 L -0.620025,-51.475 L -0.588999,-51.4876 L -0.557714,-51.4997 L -0.526186,-51.511  L -0.494427,-51.5217 L -0.46245,-51.5317 L -0.430271,-51.5411 L -0.397903,-51.5497 L -0.365361,-51.5577 L -0.332658,-51.565  L -0.299809,-51.5717 L -0.266829,-51.5776 L -0.233732,-51.5828 L -0.200533,-51.5874 L -0.167245,-51.5912 L -0.133884,-51.5944  L -0.100465,-51.5968 L -0.0670004,-51.5986 L -0.0335073,-51.5996 L 0,-51.6 L 0.0335073,-51.5996 L 0.0670004,-51.5986  L 0.100465,-51.5968 L 0.133884,-51.5944 L 0.167245,-51.5912 L 0.200533,-51.5874 L 0.233732,-51.5828 L 0.266829,-51.5776  L 0.299809,-51.5717 L 0.332658,-51.565 L 0.365361,-51.5577 L 0.397903,-51.5497 L 0.430271,-51.5411 L 0.46245,-51.5317  L 0.494427,-51.5217 L 0.526186,-51.511 L 0.557714,-51.4997 L 0.588999,-51.4876 L 0.620025,-51.475 L 0.650778,-51.4617  L 0.681247,-51.4477 L 0.711416,-51.4331 L 0.741273,-51.4179 L 0.770805,-51.4021 L 0.799999,-51.3856 L 0.828843,-51.3686  L 0.857323,-51.3509 L 0.885426,-51.3327 L 0.913141,-51.3138 L 0.940456,-51.2944 L 0.967358,-51.2744 L 0.993836,-51.2539  L 1.01988,-51.2328 L 1.04547,-51.2112 L 1.07061,-51.189 L 1.09527,-51.1663 L 1.11946,-51.1432 L 1.14316,-51.1195  L 1.16635,-51.0953 L 1.18903,-51.0706 L 1.21119,-51.0455 L 1.23282,-51.0199 L 1.25391,-50.9938 L 1.27445,-50.9674  L 1.29443,-50.9405 L 1.31384,-50.9131 L 1.33267,-50.8854 L 1.35092,-50.8573 L 1.36858,-50.8288 L 1.38564,-50.8  L 1.40209,-50.7708 L 1.41792,-50.7413 L 1.43314,-50.7114 L 1.44772,-50.6812 L 1.46167,-50.6508 L 1.47498,-50.62  L 1.48764,-50.589 L 1.49965,-50.5577 L 1.511,-50.5262 L 1.52169,-50.4944 L 1.53171,-50.4625 L 1.54106,-50.4303  L 1.54973,-50.3979 L 1.55773,-50.3654 L 1.56504,-50.3327 L 1.57166,-50.2998 L 1.57759,-50.2668 L 1.58284,-50.2337  L 1.58738,-50.2005 L 1.59123,-50.1672 L 1.59439,-50.1339 L 1.59684,-50.1005 L 1.5986,-50.067 L 1.59965,-50.0335  L 1.6,-50 L 1.59965,-49.9665 L 1.5986,-49.933 L 1.59684,-49.8995 L 1.59439,-49.8661 L 1.59123,-49.8328  L 1.58738,-49.7995 L 1.58284,-49.7663 L 1.57759,-49.7332 L 1.57166,-49.7002 L 1.56504,-49.6673 L 1.55773,-49.6346  L 1.54973,-49.6021 L 1.54106,-49.5697 L 1.53171,-49.5375 L 1.52169,-49.5056 L 1.511,-49.4738 L 1.49965,-49.4423  L 1.48764,-49.411 L 1.47498,-49.38 L 1.46167,-49.3492 L 1.44772,-49.3188 L 1.43314,-49.2886 L 1.41792,-49.2587  L 1.40209,-49.2292 L 1.38564,-49.2 L 1.36858,-49.1712 L 1.35092,-49.1427 L 1.33267,-49.1146 L 1.31384,-49.0869  L 1.29443,-49.0595 L 1.27445,-49.0326 L 1.25391,-49.0062 L 1.23282,-48.9801 L 1.21119,-48.9545 L 1.18903,-48.9294  L 1.16635,-48.9047 L 1.14316,-48.8805 L 1.11946,-48.8568 L 1.09527,-48.8337 L 1.07061,-48.811 L 1.04547,-48.7888  L 1.01988,-48.7672 L 0.993836,-48.7461 L 0.967358,-48.7256 L 0.940456,-48.7056 L 0.913141,-48.6862 L 0.885426,-48.6673  L 0.857323,-48.6491 L 0.828843,-48.6314 L 0.799999,-48.6144 L 0.770805,-48.5979 L 0.741273,-48.5821 L 0.711416,-48.5669  L 0.681247,-48.5523 L 0.650778,-48.5383 L 0.620025,-48.525 L 0.588999,-48.5124 L 0.557714,-48.5003 L 0.526186,-48.489  L 0.494427,-48.4783 L 0.46245,-48.4683 L 0.430271,-48.4589 L 0.397903,-48.4503 L 0.365361,-48.4423 L 0.332658,-48.435  L 0.299809,-48.4283 L 0.266829,-48.4224 L 0.233732,-48.4172 L 0.200533,-48.4126 L 0.167245,-48.4088 L 0.133884,-48.4056  L 0.100465,-48.4032 L 0.0670004,-48.4014 L 0.0335073,-48.4004 L 0,-48.4 L -0.0335073,-48.4004 L -0.0670004,-48.4014  L -0.100465,-48.4032 L -0.133884,-48.4056 L -0.167245,-48.4088 L -0.200533,-48.4126 L -0.233732,-48.4172 L -0.266829,-48.4224  L -0.299809,-48.4283 L -0.332658,-48.435 L -0.365361,-48.4423 L -0.397903,-48.4503 L -0.430271,-48.4589 L -0.46245,-48.4683  L -0.494427,-48.4783 L -0.526186,-48.489 L -0.557714,-48.5003 L -0.588999,-48.5124 L -0.620025,-48.525 L -0.650778,-48.5383  L -0.681247,-48.5523 L -0.711416,-48.5669 L -0.741273,-48.5821 L -0.770805,-48.5979 L -0.799999,-48.6144 L -0.828843,-48.6314  L -0.857323,-48.6491 L -0.885426,-48.6673 L -0.913141,-48.6862 L -0.940456,-48.7056 L -0.967358,-48.7256 L -0.993836,-48.7461  L -1.01988,-48.7672 L -1.04547,-48.7888 L -1.07061,-48.811 L -1.09527,-48.8337 L -1.11946,-48.8568 L -1.14316,-48.8805  L -1.16635,-48.9047 L -1.18903,-48.9294 L -1.21119,-48.9545 L -1.23282,-48.9801 L -1.25391,-49.0062 L -1.27445,-49.0326  L -1.29443,-49.0595 L -1.31384,-49.0869 L -1.33267,-49.1146 L -1.35092,-49.1427 L -1.36858,-49.1712 L -1.38564,-49.2  L -1.40209,-49.2292 L -1.41792,-49.2587 L -1.43314,-49.2886 L -1.44772,-49.3188 L -1.46167,-49.3492 L -1.47498,-49.38  L -1.48764,-49.411 L -1.49965,-49.4423 L -1.511,-49.4738 L -1.52169,-49.5056 L -1.53171,-49.5375 L -1.54106,-49.5697  L -1.54973,-49.6021 L -1.55773,-49.6346 L -1.56504,-49.6673 L -1.57166,-49.7002 L -1.57759,-49.7332 L -1.58284,-49.7663  L -1.58738,-49.7995 L -1.59123,-49.8328 L -1.59439,-49.8661 L -1.59684,-49.8995 L -1.5986,-49.933 L -1.59965,-49.9665  z M 33.7554,35.3721 L 33.7554,35.3386 L 33.7561,35.3051 L 33.7575,35.2716 L 33.7596,35.2382 L 33.7624,35.2048  L 33.7659,35.1714 L 33.7701,35.1382 L 33.775,35.105 L 33.7806,35.072 L 33.7869,35.0391 L 33.7939,35.0063  L 33.8015,34.9737 L 33.8099,34.9412 L 33.8189,34.909 L 33.8286,34.8769 L 33.8389,34.845 L 33.8499,34.8134  L 33.8616,34.782 L 33.8739,34.7508 L 33.8869,34.7199 L 33.9006,34.6893 L 33.9148,34.659 L 33.9297,34.629  L 33.9453,34.5993 L 33.9614,34.5699 L 33.9782,34.5409 L 33.9955,34.5122 L 34.0135,34.4839 L 34.032,34.456  L 34.0511,34.4285 L 34.0708,34.4014 L 34.0911,34.3747 L 34.1119,34.3484 L 34.1333,34.3226 L 34.1552,34.2972  L 34.1776,34.2723 L 34.2005,34.2479 L 34.224,34.224 L 34.2479,34.2005 L 34.2723,34.1776 L 34.2972,34.1552  L 34.3226,34.1333 L 34.3484,34.1119 L 34.3747,34.0911 L 34.4014,34.0708 L 34.4285,34.0511 L 34.456,34.032  L 34.4839,34.0135 L 34.5122,33.9955 L 34.5409,33.9782 L 34.5699,33.9614 L 34.5993,33.9453 L 34.629,33.9297  L 34.659,33.9148 L 34.6893,33.9006 L 34.7199,33.8869 L 34.7508,33.8739 L 34.782,33.8616 L 34.8134,33.8499  L 34.845,33.8389 L 34.8769,33.8286 L 34.909,33.8189 L 34.9412,33.8099 L 34.9737,33.8015 L 35.0063,33.7939  L 35.0391,33.7869 L 35.072,33.7806 L 35.105,33.775 L 35.1382,33.7701 L 35.1714,33.7659 L 35.2048,33.7624  L 35.2382,33.7596 L 35.2716,33.7575 L 35.3051,33.7561 L 35.3386,33.7554 L 35.3721,33.7554 L 35.4056,33.7561  L 35.4391,33.7575 L 35.4725,33.7596 L 35.5059,33.7624 L 35.5392,33.7659 L 35.5725,33.7701 L 35.6056,33.775  L 35.6387,33.7806 L 35.6716,33.7869 L 35.7044,33.7939 L 35.737,33.8015 L 35.7694,33.8099 L 35.8017,33.8189  L 35.8338,33.8286 L 35.8657,33.8389 L 35.8973,33.8499 L 35.9287,33.8616 L 35.9599,33.8739 L 35.9908,33.8869  L 36.0214,33.9006 L 36.0517,33.9148 L 36.0817,33.9297 L 36.1114,33.9453 L 36.1408,33.9614 L 36.1698,33.9782  L 36.1985,33.9955 L 36.2268,34.0135 L 36.2547,34.032 L 36.2822,34.0511 L 36.3093,34.0708 L 36.336,34.0911  L 36.3623,34.1119 L 36.3881,34.1333 L 36.4134,34.1552 L 36.4383,34.1776 L 36.4628,34.2005 L 36.4867,34.224  L 36.5102,34.2479 L 36.5331,34.2723 L 36.5555,34.2972 L 36.5774,34.3226 L 36.5988,34.3484 L 36.6196,34.3747  L 36.6398,34.4014 L 36.6595,34.4285 L 36.6787,34.456 L 36.6972,34.4839 L 36.7152,34.5122 L 36.7325,34.5409  L 36.7493,34.5699 L 36.7654,34.5993 L 36.7809,34.629 L 36.7958,34.659 L 36.8101,34.6893 L 36.8237,34.7199  L 36.8367,34.7508 L 36.8491,34.782 L 36.8607,34.8134 L 36.8718,34.845 L 36.8821,34.8769 L 36.8918,34.909  L 36.9008,34.9412 L 36.9092,34.9737 L 36.9168,35.0063 L 36.9238,35.0391 L 36.9301,35.072 L 36.9356,35.105  L 36.9405,35.1382 L 36.9447,35.1714 L 36.9482,35.2048 L 36.951,35.2382 L 36.9531,35.2716 L 36.9545,35.3051  L 36.9553,35.3386 L 36.9553,35.3721 L 36.9545,35.4056 L 36.9531,35.4391 L 36.951,35.4725 L 36.9482,35.5059  L 36.9447,35.5392 L 36.9405,35.5725 L 36.9356,35.6056 L 36.9301,35.6387 L 36.9238,35.6716 L 36.9168,35.7044  L 36.9092,35.737 L 36.9008,35.7694 L 36.8918,35.8017 L 36.8821,35.8338 L 36.8718,35.8657 L 36.8607,35.8973  L 36.8491,35.9287 L 36.8367,35.9599 L 36.8237,35.9908 L 36.8101,36.0214 L 36.7958,36.0517 L 36.7809,36.0817  L 36.7654,36.1114 L 36.7493,36.1408 L 36.7325,36.1698 L 36.7152,36.1985 L 36.6972,36.2268 L 36.6787,36.2547  L 36.6595,36.2822 L 36.6398,36.3093 L 36.6196,36.336 L 36.5988,36.3623 L 36.5774,36.3881 L 36.5555,36.4134  L 36.5331,36.4383 L 36.5102,36.4628 L 36.4867,36.4867 L 36.4628,36.5102 L 36.4383,36.5331 L 36.4134,36.5555  L 36.3881,36.5774 L 36.3623,36.5988 L 36.336,36.6196 L 36.3093,36.6398 L 36.2822,36.6595 L 36.2547,36.6787  L 36.2268,36.6972 L 36.1985,36.7152 L 36.1698,36.7325 L 36.1408,36.7493 L 36.1114,36.7654 L 36.0817,36.7809  L 36.0517,36.7958 L 36.0214,36.8101 L 35.9908,36.8237 L 35.9599,36.8367 L 35.9287,36.8491 L 35.8973,36.8607  L 35.8657,36.8718 L 35.8338,36.8821 L 35.8017,36.8918 L 35.7694,36.9008 L 35.737,36.9092 L 35.7044,36.9168  L 35.6716,36.9238 L 35.6387,36.9301 L 35.6056,36.9356 L 35.5725,36.9405 L 35.5392,36.9447 L 35.5059,36.9482  L 35.4725,36.951 L 35.4391,36.9531 L 35.4056,36.9545 L 35.3721,36.9553 L 35.3386,36.9553 L 35.3051,36.9545  L 35.2716,36.9531 L 35.2382,36.951 L 35.2048,36.9482 L 35.1714,36.9447 L 35.1382,36.9405 L 35.105,36.9356  L 35.072,36.9301 L 35.0391,36.9238 L 35.0063,36.9168 L 34.9737,36.9092 L 34.9412,36.9008 L 34.909,36.8918  L 34.8769,36.8821 L 34.845,36.8718 L 34.8134,36.8607 L 34.782,36.8491 L 34.7508,36.8367 L 34.7199,36.8237  L 34.6893,36.8101 L 34.659,36.7958 L 34.629,36.7809 L 34.5993,36.7654 L 34.5699,36.7493 L 34.5409,36.7325  L 34.5122,36.7152 L 34.4839,36.6972 L 34.456,36.6787 L 34.4285,36.6595 L 34.4014,36.6398 L 34.3747,36.6196  L 34.3484,36.5988 L 34.3226,36.5774 L 34.2972,36.5555 L 34.2723,36.5331 L 34.2479,36.5102 L 34.224,36.4867  L 34.2005,36.4628 L 34.1776,36.4383 L 34.1552,36.4134 L 34.1333,36.3881 L 34.1119,36.3623 L 34.0911,36.336  L 34.0708,36.3093 L 34.0511,36.2822 L 34.032,36.2547 L 34.0135,36.2268 L 33.9955,36.1985 L 33.9782,36.1698  L 33.9614,36.1408 L 33.9453,36.1114 L 33.9297,36.0817 L 33.9148,36.0517 L 33.9006,36.0214 L 33.8869,35.9908  L 33.8739,35.9599 L 33.8616,35.9287 L 33.8499,35.8973 L 33.8389,35.8657 L 33.8286,35.8338 L 33.8189,35.8017  L 33.8099,35.7694 L 33.8015,35.737 L 33.7939,35.7044 L 33.7869,35.6716 L 33.7806,35.6387 L 33.775,35.6056  L 33.7701,35.5725 L 33.7659,35.5392 L 33.7624,35.5059 L 33.7596,35.4725 L 33.7575,35.4391 L 33.7561,35.4056  z M 33.7554,-35.3386 L 33.7554,-35.3721 L 33.7561,-35.4056 L 33.7575,-35.4391 L 33.7596,-35.4725 L 33.7624,-35.5059  L 33.7659,-35.5392 L 33.7701,-35.5725 L 33.775,-35.6056 L 33.7806,-35.6387 L 33.7869,-35.6716 L 33.7939,-35.7044  L 33.8015,-35.737 L 33.8099,-35.7694 L 33.8189,-35.8017 L 33.8286,-35.8338 L 33.8389,-35.8657 L 33.8499,-35.8973  L 33.8616,-35.9287 L 33.8739,-35.9599 L 33.8869,-35.9908 L 33.9006,-36.0214 L 33.9148,-36.0517 L 33.9297,-36.0817  L 33.9453,-36.1114 L 33.9614,-36.1408 L 33.9782,-36.1698 L 33.9955,-36.1985 L 34.0135,-36.2268 L 34.032,-36.2547  L 34.0511,-36.2822 L 34.0708,-36.3093 L 34.0911,-36.336 L 34.1119,-36.3623 L 34.1333,-36.3881 L 34.1552,-36.4134  L 34.1776,-36.4383 L 34.2005,-36.4628 L 34.224,-36.4867 L 34.2479,-36.5102 L 34.2723,-36.5331 L 34.2972,-36.5555  L 34.3226,-36.5774 L 34.3484,-36.5988 L 34.3747,-36.6196 L 34.4014,-36.6398 L 34.4285,-36.6595 L 34.456,-36.6787  L 34.4839,-36.6972 L 34.5122,-36.7152 L 34.5409,-36.7325 L 34.5699,-36.7493 L 34.5993,-36.7654 L 34.629,-36.7809  L 34.659,-36.7958 L 34.6893,-36.8101 L 34.7199,-36.8237 L 34.7508,-36.8367 L 34.782,-36.8491 L 34.8134,-36.8607  L 34.845,-36.8718 L 34.8769,-36.8821 L 34.909,-36.8918 L 34.9412,-36.9008 L 34.9737,-36.9092 L 35.0063,-36.9168  L 35.0391,-36.9238 L 35.072,-36.9301 L 35.105,-36.9356 L 35.1382,-36.9405 L 35.1714,-36.9447 L 35.2048,-36.9482  L 35.2382,-36.951 L 35.2716,-36.9531 L 35.3051,-36.9545 L 35.3386,-36.9553 L 35.3721,-36.9553 L 35.4056,-36.9545  L 35.4391,-36.9531 L 35.4725,-36.951 L 35.5059,-36.9482 L 35.5392,-36.9447 L 35.5725,-36.9405 L 35.6056,-36.9356  L 35.6387,-36.9301 L 35.6716,-36.9238 L 35.7044,-36.9168 L 35.737,-36.9092 L 35.7694,-36.9008 L 35.8017,-36.8918  L 35.8338,-36.8821 L 35.8657,-36.8718 L 35.8973,-36.8607 L 35.9287,-36.8491 L 35.9599,-36.8367 L 35.9908,-36.8237  L 36.0214,-36.8101 L 36.0517,-36.7958 L 36.0817,-36.7809 L 36.1114,-36.7654 L 36.1408,-36.7493 L 36.1698,-36.7325  L 36.1985,-36.7152 L 36.2268,-36.6972 L 36.2547,-36.6787 L 36.2822,-36.6595 L 36.3093,-36.6398 L 36.336,-36.6196  L 36.3623,-36.5988 L 36.3881,-36.5774 L 36.4134,-36.5555 L 36.4383,-36.5331 L 36.4628,-36.5102 L 36.4867,-36.4867  L 36.5102,-36.4628 L 36.5331,-36.4383 L 36.5555,-36.4134 L 36.5774,-36.3881 L 36.5988,-36.3623 L 36.6196,-36.336  L 36.6398,-36.3093 L 36.6595,-36.2822 L 36.6787,-36.2547 L 36.6972,-36.2268 L 36.7152,-36.1985 L 36.7325,-36.1698  L 36.7493,-36.1408 L 36.7654,-36.1114 L 36.7809,-36.0817 L 36.7958,-36.0517 L 36.8101,-36.0214 L 36.8237,-35.9908  L 36.8367,-35.9599 L 36.8491,-35.9287 L 36.8607,-35.8973 L 36.8718,-35.8657 L 36.8821,-35.8338 L 36.8918,-35.8017  L 36.9008,-35.7694 L 36.9092,-35.737 L 36.9168,-35.7044 L 36.9238,-35.6716 L 36.9301,-35.6387 L 36.9356,-35.6056  L 36.9405,-35.5725 L 36.9447,-35.5392 L 36.9482,-35.5059 L 36.951,-35.4725 L 36.9531,-35.4391 L 36.9545,-35.4056  L 36.9553,-35.3721 L 36.9553,-35.3386 L 36.9545,-35.3051 L 36.9531,-35.2716 L 36.951,-35.2382 L 36.9482,-35.2048  L 36.9447,-35.1714 L 36.9405,-35.1382 L 36.9356,-35.105 L 36.9301,-35.072 L 36.9238,-35.0391 L 36.9168,-35.0063  L 36.9092,-34.9737 L 36.9008,-34.9412 L 36.8918,-34.909 L 36.8821,-34.8769 L 36.8718,-34.845 L 36.8607,-34.8134  L 36.8491,-34.782 L 36.8367,-34.7508 L 36.8237,-34.7199 L 36.8101,-34.6893 L 36.7958,-34.659 L 36.7809,-34.629  L 36.7654,-34.5993 L 36.7493,-34.5699 L 36.7325,-34.5409 L 36.7152,-34.5122 L 36.6972,-34.4839 L 36.6787,-34.456  L 36.6595,-34.4285 L 36.6398,-34.4014 L 36.6196,-34.3747 L 36.5988,-34.3484 L 36.5774,-34.3226 L 36.5555,-34.2972  L 36.5331,-34.2723 L 36.5102,-34.2479 L 36.4867,-34.224 L 36.4628,-34.2005 L 36.4383,-34.1776 L 36.4134,-34.1552  L 36.3881,-34.1333 L 36.3623,-34.1119 L 36.336,-34.0911 L 36.3093,-34.0708 L 36.2822,-34.0511 L 36.2547,-34.032  L 36.2268,-34.0135 L 36.1985,-33.9955 L 36.1698,-33.9782 L 36.1408,-33.9614 L 36.1114,-33.9453 L 36.0817,-33.9297  L 36.0517,-33.9148 L 36.0214,-33.9006 L 35.9908,-33.8869 L 35.9599,-33.8739 L 35.9287,-33.8616 L 35.8973,-33.8499  L 35.8657,-33.8389 L 35.8338,-33.8286 L 35.8017,-33.8189 L 35.7694,-33.8099 L 35.737,-33.8015 L 35.7044,-33.7939  L 35.6716,-33.7869 L 35.6387,-33.7806 L 35.6056,-33.775 L 35.5725,-33.7701 L 35.5392,-33.7659 L 35.5059,-33.7624  L 35.4725,-33.7596 L 35.4391,-33.7575 L 35.4056,-33.7561 L 35.3721,-33.7554 L 35.3386,-33.7554 L 35.3051,-33.7561  L 35.2716,-33.7575 L 35.2382,-33.7596 L 35.2048,-33.7624 L 35.1714,-33.7659 L 35.1382,-33.7701 L 35.105,-33.775  L 35.072,-33.7806 L 35.0391,-33.7869 L 35.0063,-33.7939 L 34.9737,-33.8015 L 34.9412,-33.8099 L 34.909,-33.8189  L 34.8769,-33.8286 L 34.845,-33.8389 L 34.8134,-33.8499 L 34.782,-33.8616 L 34.7508,-33.8739 L 34.7199,-33.8869  L 34.6893,-33.9006 L 34.659,-33.9148 L 34.629,-33.9297 L 34.5993,-33.9453 L 34.5699,-33.9614 L 34.5409,-33.9782  L 34.5122,-33.9955 L 34.4839,-34.0135 L 34.456,-34.032 L 34.4285,-34.0511 L 34.4014,-34.0708 L 34.3747,-34.0911  L 34.3484,-34.1119 L 34.3226,-34.1333 L 34.2972,-34.1552 L 34.2723,-34.1776 L 34.2479,-34.2005 L 34.224,-34.224  L 34.2005,-34.2479 L 34.1776,-34.2723 L 34.1552,-34.2972 L 34.1333,-34.3226 L 34.1119,-34.3484 L 34.0911,-34.3747  L 34.0708,-34.4014 L 34.0511,-34.4285 L 34.032,-34.456 L 34.0135,-34.4839 L 33.9955,-34.5122 L 33.9782,-34.5409  L 33.9614,-34.5699 L 33.9453,-34.5993 L 33.9297,-34.629 L 33.9148,-34.659 L 33.9006,-34.6893 L 33.8869,-34.7199  L 33.8739,-34.7508 L 33.8616,-34.782 L 33.8499,-34.8134 L 33.8389,-34.845 L 33.8286,-34.8769 L 33.8189,-34.909  L 33.8099,-34.9412 L 33.8015,-34.9737 L 33.7939,-35.0063 L 33.7869,-35.0391 L 33.7806,-35.072 L 33.775,-35.105  L 33.7701,-35.1382 L 33.7659,-35.1714 L 33.7624,-35.2048 L 33.7596,-35.2382 L 33.7575,-35.2716 L 33.7561,-35.3051  z M 48.4,-0 L 48.4004,-0.0335073 L 48.4014,-0.0670004 L 48.4032,-0.100465 L 48.4056,-0.133884 L 48.4088,-0.167245  L 48.4126,-0.200533 L 48.4172,-0.233732 L 48.4224,-0.266829 L 48.4283,-0.299809 L 48.435,-0.332658 L 48.4423,-0.365361  L 48.4503,-0.397903 L 48.4589,-0.430271 L 48.4683,-0.46245 L 48.4783,-0.494427 L 48.489,-0.526186 L 48.5003,-0.557714  L 48.5124,-0.588999 L 48.525,-0.620025 L 48.5383,-0.650778 L 48.5523,-0.681247 L 48.5669,-0.711416 L 48.5821,-0.741273  L 48.5979,-0.770805 L 48.6144,-0.799999 L 48.6314,-0.828843 L 48.6491,-0.857323 L 48.6673,-0.885426 L 48.6862,-0.913141  L 48.7056,-0.940456 L 48.7256,-0.967358 L 48.7461,-0.993836 L 48.7672,-1.01988 L 48.7888,-1.04547 L 48.811,-1.07061  L 48.8337,-1.09527 L 48.8568,-1.11946 L 48.8805,-1.14316 L 48.9047,-1.16635 L 48.9294,-1.18903 L 48.9545,-1.21119  L 48.9801,-1.23282 L 49.0062,-1.25391 L 49.0326,-1.27445 L 49.0595,-1.29443 L 49.0869,-1.31384 L 49.1146,-1.33267  L 49.1427,-1.35092 L 49.1712,-1.36858 L 49.2,-1.38564 L 49.2292,-1.40209 L 49.2587,-1.41792 L 49.2886,-1.43314  L 49.3188,-1.44772 L 49.3492,-1.46167 L 49.38,-1.47498 L 49.411,-1.48764 L 49.4423,-1.49965 L 49.4738,-1.511  L 49.5056,-1.52169 L 49.5375,-1.53171 L 49.5697,-1.54106 L 49.6021,-1.54973 L 49.6346,-1.55773 L 49.6673,-1.56504  L 49.7002,-1.57166 L 49.7332,-1.57759 L 49.7663,-1.58284 L 49.7995,-1.58738 L 49.8328,-1.59123 L 49.8661,-1.59439  L 49.8995,-1.59684 L 49.933,-1.5986 L 49.9665,-1.59965 L 50,-1.6 L 50.0335,-1.59965 L 50.067,-1.5986  L 50.1005,-1.59684 L 50.1339,-1.59439 L 50.1672,-1.59123 L 50.2005,-1.58738 L 50.2337,-1.58284 L 50.2668,-1.57759  L 50.2998,-1.57166 L 50.3327,-1.56504 L 50.3654,-1.55773 L 50.3979,-1.54973 L 50.4303,-1.54106 L 50.4625,-1.53171  L 50.4944,-1.52169 L 50.5262,-1.511 L 50.5577,-1.49965 L 50.589,-1.48764 L 50.62,-1.47498 L 50.6508,-1.46167  L 50.6812,-1.44772 L 50.7114,-1.43314 L 50.7413,-1.41792 L 50.7708,-1.40209 L 50.8,-1.38564 L 50.8288,-1.36858  L 50.8573,-1.35092 L 50.8854,-1.33267 L 50.9131,-1.31384 L 50.9405,-1.29443 L 50.9674,-1.27445 L 50.9938,-1.25391  L 51.0199,-1.23282 L 51.0455,-1.21119 L 51.0706,-1.18903 L 51.0953,-1.16635 L 51.1195,-1.14316 L 51.1432,-1.11946  L 51.1663,-1.09527 L 51.189,-1.07061 L 51.2112,-1.04547 L 51.2328,-1.01988 L 51.2539,-0.993836 L 51.2744,-0.967358  L 51.2944,-0.940456 L 51.3138,-0.913141 L 51.3327,-0.885426 L 51.3509,-0.857323 L 51.3686,-0.828843 L 51.3856,-0.799999  L 51.4021,-0.770805 L 51.4179,-0.741273 L 51.4331,-0.711416 L 51.4477,-0.681247 L 51.4617,-0.650778 L 51.475,-0.620025  L 51.4876,-0.588999 L 51.4997,-0.557714 L 51.511,-0.526186 L 51.5217,-0.494427 L 51.5317,-0.46245 L 51.5411,-0.430271  L 51.5497,-0.397903 L 51.5577,-0.365361 L 51.565,-0.332658 L 51.5717,-0.299809 L 51.5776,-0.266829 L 51.5828,-0.233732  L 51.5874,-0.200533 L 51.5912,-0.167245 L 51.5944,-0.133884 L 51.5968,-0.100465 L 51.5986,-0.0670004 L 51.5996,-0.0335073  L 51.6,-0 L 51.5996,0.0335073 L 51.5986,0.0670004 L 51.5968,0.100465 L 51.5944,0.133884 L 51.5912,0.167245  L 51.5874,0.200533 L 51.5828,0.233732 L 51.5776,0.266829 L 51.5717,0.299809 L 51.565,0.332658 L 51.5577,0.365361  L 51.5497,0.397903 L 51.5411,0.430271 L 51.5317,0.46245 L 51.5217,0.494427 L 51.511,0.526186 L 51.4997,0.557714  L 51.4876,0.588999 L 51.475,0.620025 L 51.4617,0.650778 L 51.4477,0.681247 L 51.4331,0.711416 L 51.4179,0.741273  L 51.4021,0.770805 L 51.3856,0.799999 L 51.3686,0.828843 L 51.3509,0.857323 L 51.3327,0.885426 L 51.3138,0.913141  L 51.2944,0.940456 L 51.2744,0.967358 L 51.2539,0.993836 L 51.2328,1.01988 L 51.2112,1.04547 L 51.189,1.07061  L 51.1663,1.09527 L 51.1432,1.11946 L 51.1195,1.14316 L 51.0953,1.16635 L 51.0706,1.18903 L 51.0455,1.21119  L 51.0199,1.23282 L 50.9938,1.25391 L 50.9674,1.27445 L 50.9405,1.29443 L 50.9131,1.31384 L 50.8854,1.33267  L 50.8573,1.35092 L 50.8288,1.36858 L 50.8,1.38564 L 50.7708,1.40209 L 50.7413,1.41792 L 50.7114,1.43314  L 50.6812,1.44772 L 50.6508,1.46167 L 50.62,1.47498 L 50.589,1.48764 L 50.5577,1.49965 L 50.5262,1.511  L 50.4944,1.52169 L 50.4625,1.53171 L 50.4303,1.54106 L 50.3979,1.54973 L 50.3654,1.55773 L 50.3327,1.56504  L 50.2998,1.57166 L 50.2668,1.57759 L 50.2337,1.58284 L 50.2005,1.58738 L 50.1672,1.59123 L 50.1339,1.59439  L 50.1005,1.59684 L 50.067,1.5986 L 50.0335,1.59965 L 50,1.6 L 49.9665,1.59965 L 49.933,1.5986  L 49.8995,1.59684 L 49.8661,1.59439 L 49.8328,1.59123 L 49.7995,1.58738 L 49.7663,1.58284 L 49.7332,1.57759  L 49.7002,1.57166 L 49.6673,1.56504 L 49.6346,1.55773 L 49.6021,1.54973 L 49.5697,1.54106 L 49.5375,1.53171  L 49.5056,1.52169 L 49.4738,1.511 L 49.4423,1.49965 L 49.411,1.48764 L 49.38,1.47498 L 49.3492,1.46167  L 49.3188,1.44772 L 49.2886,1.43314 L 49.2587,1.41792 L 49.2292,1.40209 L 49.2,1.38564 L 49.1712,1.36858  L 49.1427,1.35092 L 49.1146,1.33267 L 49.0869,1.31384 L 49.0595,1.29443 L 49.0326,1.27445 L 49.0062,1.25391  L 48.9801,1.23282 L 48.9545,1.21119 L 48.9294,1.18903 L 48.9047,1.16635 L 48.8805,1.14316 L 48.8568,1.11946  L 48.8337,1.09527 L 48.811,1.07061 L 48.7888,1.04547 L 48.7672,1.01988 L 48.7461,0.993836 L 48.7256,0.967358  L 48.7056,0.940456 L 48.6862,0.913141 L 48.6673,0.885426 L 48.6491,0.857323 L 48.6314,0.828843 L 48.6144,0.799999  L 48.5979,0.770805 L 48.5821,0.741273 L 48.5669,0.711416 L 48.5523,0.681247 L 48.5383,0.650778 L 48.525,0.620025  L 48.5124,0.588999 L 48.5003,0.557714 L 48.489,0.526186 L 48.4783,0.494427 L 48.4683,0.46245 L 48.4589,0.430271  L 48.4503,0.397903 L 48.4423,0.365361 L 48.435,0.332658 L 48.4283,0.299809 L 48.4224,0.266829 L 48.4172,0.233732  L 48.4126,0.200533 L 48.4088,0.167245 L 48.4056,0.133884 L 48.4032,0.100465 L 48.4014,0.0670004 L 48.4004,0.0335073  z "
     stroke="black"
     fill="lightgray"
     stroke-width="0.5"
     id="path1" />
</svg>
