<?xml version="1.0" encoding="UTF-8" standalone="no"?>
<svg
   width="181.00012mm"
   height="181.00012mm"
   viewBox="-90 -90 181.00012 181.00012"
   version="1.1"
   id="svg1"
   sodipodi:docname="cyclone-top-glass-screwed-cut.svg"
   inkscape:version="1.3 (0e150ed, 2023-07-21)"
   xmlns:inkscape="http://www.inkscape.org/namespaces/inkscape"
   xmlns:sodipodi="http://sodipodi.sourceforge.net/DTD/sodipodi-0.dtd"
   xmlns="http://www.w3.org/2000/svg"
   xmlns:svg="http://www.w3.org/2000/svg"
   xmlns:rdf="http://www.w3.org/1999/02/22-rdf-syntax-ns#"
   xmlns:cc="http://creativecommons.org/ns#"
   xmlns:dc="http://purl.org/dc/elements/1.1/">
  <defs
     id="defs1" />
  <sodipodi:namedview
     id="namedview1"
     pagecolor="#505050"
     bordercolor="#ffffff"
     borderopacity="1"
     inkscape:showpageshadow="0"
     inkscape:pageopacity="0"
     inkscape:pagecheckerboard="1"
     inkscape:deskcolor="#d1d1d1"
     inkscape:document-units="mm"
     inkscape:zoom="0.80387663"
     inkscape:cx="309.74902"
     inkscape:cy="445.34197"
     inkscape:window-width="1920"
     inkscape:window-height="1080"
     inkscape:window-x="0"
     inkscape:window-y="0"
     inkscape:window-maximized="0"
     inkscape:current-layer="svg1" />
  <title
     id="title1">OpenSCAD Model</title>
  <path
     d="m 78.353862,-32.385538 v -0.0503 l 0.0016,-0.0502 0.0032,-0.0502 0.0047,-0.05 0.0063,-0.0499 0.0079,-0.0497 0.0094,-0.0493 0.0109,-0.0491 0.0125,-0.0487 0.0141,-0.0482 0.0155,-0.0478 0.017,-0.0473 0.0185,-0.0468 0.02,-0.0461 0.0214,-0.0455 0.0228,-0.0448 0.0242,-0.044 0.0256,-0.0433 0.0269,-0.0424 0.0283,-0.0416 0.0295,-0.0406 0.0309,-0.0398 0.032,-0.0387 0.0332,-0.0377 0.0344,-0.0366 0.0356,-0.0356 0.0366,-0.0344 0.0377,-0.0332 0.0388,-0.0321 0.0397,-0.0308 0.0406,-0.0295 0.0416,-0.0283 0.0424,-0.0269 0.0433,-0.0256 0.0441,-0.0242 0.0447,-0.0228 0.0455,-0.0214 0.0461,-0.02 0.0468,-0.0185 0.0473,-0.017 0.0478,-0.0155 0.0482,-0.0141 0.0487,-0.0125 0.0491,-0.0109 0.0494,-0.0094 0.0496,-0.0079 0.0499,-0.0063 0.05,-0.0047 0.0502,-0.0032 0.0502,-0.0016 h 0.0503 l 0.0502,0.0016 0.0502,0.0032 0.05,0.0047 0.0499,0.0063 0.0496,0.0079 0.0494,0.0094 0.0491,0.0109 0.0486,0.0125 0.0483,0.0141 0.0478,0.0155 0.0473,0.017 0.0467,0.0185 0.0462,0.02 0.0454,0.0214 0.0448,0.0228 0.0441,0.0242 0.0432,0.0256 0.0425,0.0269 0.0415,0.0283 0.0407,0.0295 0.0397,0.0308 0.0388,0.0321 0.0377,0.0332 0.0366,0.0344 0.0355,0.0356 0.0344,0.0366 0.0333,0.0377 0.032,0.0387 0.0308,0.0398 0.0296,0.0406 0.0282,0.0416 0.027,0.0424 0.0256,0.0433 0.0242,0.044 0.0228,0.0448 0.0214,0.0455 0.0199,0.0461 0.0185,0.0468 0.0171,0.0473 0.0155,0.0478 0.014,0.0482 0.0125,0.0487 0.011,0.0491 0.0094,0.0493 0.0079,0.0497 0.0063,0.0498 0.0047,0.0501 0.0032,0.0502 0.0015,0.0502 v 0.0503 l -0.0015,0.0502 -0.0032,0.0502 -0.0047,0.05 -0.0063,0.0499 -0.0079,0.0496 -0.0094,0.0494 -0.011,0.049 -0.0125,0.0487 -0.014,0.0483 -0.0155,0.0478 -0.0171,0.0473 -0.0185,0.0467 -0.0199,0.0461 -0.0214,0.0455 -0.0228,0.0448 -0.0243,0.0441 -0.0255,0.0432 -0.027,0.0425 -0.0282,0.0415 -0.0296,0.0407 -0.0308,0.0397 -0.032,0.0387 -0.0333,0.0377 -0.0344,0.0367 -0.0355,0.0355 -0.0366,0.0344 -0.0377,0.0333 -0.0388,0.032 -0.0397,0.0308 -0.0407,0.0296 -0.0415,0.0282 -0.0425,0.0269 -0.0432,0.0256 -0.0441,0.0242 -0.0448,0.0229 -0.0454,0.0214 -0.0462,0.0199 -0.0467,0.0185 -0.0473,0.0171 -0.0478,0.0155 -0.0483,0.014 -0.0486,0.0125 -0.0491,0.011 -0.0494,0.0094 -0.0496,0.0079 -0.0499,0.0063 -0.05,0.0047 -0.0502,0.0031 -0.0502,0.0016 h -0.0503 l -0.0502,-0.0016 -0.0502,-0.0031 -0.05,-0.0047 -0.0499,-0.0063 -0.0496,-0.0079 -0.0494,-0.0094 -0.0491,-0.011 -0.0487,-0.0125 -0.0482,-0.014 -0.0478,-0.0155 -0.0473,-0.0171 -0.0468,-0.0185 -0.0461,-0.0199 -0.0455,-0.0214 -0.0447,-0.0229 -0.0441,-0.0242 -0.0433,-0.0256 -0.0424,-0.0269 -0.0416,-0.0282 -0.0406,-0.0296 -0.0397,-0.0308 -0.0388,-0.032 -0.0377,-0.0333 -0.0366,-0.0344 -0.0356,-0.0355 -0.0344,-0.0367 -0.0332,-0.0377 -0.032,-0.0387 -0.0309,-0.0397 -0.0295,-0.0407 -0.0283,-0.0415 -0.0269,-0.0425 -0.0256,-0.0432 -0.0242,-0.0441 -0.0228,-0.0448 -0.0214,-0.0455 -0.02,-0.0461 -0.0185,-0.0467 -0.017,-0.0473 -0.0155,-0.0478 -0.0141,-0.0483 -0.0125,-0.0487 -0.0109,-0.049 -0.0094,-0.0494 -0.0079,-0.0496 -0.0063,-0.0499 -0.0047,-0.05 -0.0032,-0.0502 z"
     id="path10"
     style="fill:none;stroke:#ff0000" />
  <path
     d="m 78.353862,33.385662 0.0016,-0.0502 0.0032,-0.0502 0.0047,-0.05 0.0063,-0.0499 0.0079,-0.0496 0.0094,-0.0494 0.0109,-0.049 0.0125,-0.0487 0.0141,-0.0483 0.0155,-0.0478 0.017,-0.0473 0.0185,-0.0467 0.02,-0.0461 0.0214,-0.0455 0.0228,-0.0448 0.0242,-0.0441 0.0256,-0.0432 0.0269,-0.0425 0.0283,-0.0415 0.0295,-0.0407 0.0309,-0.0397 0.032,-0.0387 0.0332,-0.0377 0.0344,-0.0367 0.0356,-0.0355 0.0366,-0.0344 0.0377,-0.0333 0.0388,-0.032 0.0397,-0.0308 0.0406,-0.0296 0.0416,-0.0282 0.0424,-0.0269 0.0433,-0.0256 0.0441,-0.0242 0.0447,-0.0229 0.0455,-0.0214 0.0461,-0.0199 0.0468,-0.0185 0.0473,-0.0171 0.0478,-0.0155 0.0482,-0.014 0.0487,-0.0125 0.0491,-0.011 0.0494,-0.0094 0.0496,-0.0079 0.0499,-0.0063 0.05,-0.0047 0.0502,-0.0031 0.0502,-0.0016 h 0.0503 l 0.0502,0.0016 0.0502,0.0031 0.05,0.0047 0.0499,0.0063 0.0496,0.0079 0.0494,0.0094 0.0491,0.011 0.0486,0.0125 0.0483,0.014 0.0478,0.0155 0.0473,0.0171 0.0467,0.0185 0.0462,0.0199 0.0454,0.0214 0.0448,0.0229 0.0441,0.0242 0.0432,0.0256 0.0425,0.0269 0.0415,0.0282 0.0407,0.0296 0.0397,0.0308 0.0388,0.032 0.0377,0.0333 0.0366,0.0344 0.0355,0.0355 0.0344,0.0367 0.0333,0.0377 0.032,0.0387 0.0308,0.0397 0.0296,0.0407 0.0282,0.0415 0.027,0.0425 0.0255,0.0432 0.0243,0.0441 0.0228,0.0448 0.0214,0.0455 0.0199,0.0461 0.0185,0.0467 0.0171,0.0473 0.0155,0.0478 0.014,0.0483 0.0125,0.0487 0.011,0.049 0.0094,0.0494 0.0079,0.0496 0.0063,0.0499 0.0047,0.05 0.0032,0.0502 0.0015,0.0502 v 0.0503 l -0.0015,0.0502 -0.0032,0.0502 -0.0047,0.0501 -0.0063,0.0498 -0.0079,0.0497 -0.0094,0.0493 -0.011,0.0491 -0.0125,0.0487 -0.014,0.0482 -0.0155,0.0478 -0.0171,0.0473 -0.0185,0.0468 -0.0199,0.0461 -0.0214,0.0455 -0.0228,0.0448 -0.0242,0.044 -0.0256,0.0433 -0.027,0.0424 -0.0282,0.0416 -0.0296,0.0406 -0.0308,0.0398 -0.032,0.0387 -0.0333,0.0377 -0.0344,0.0366 -0.0355,0.0356 -0.0366,0.0344 -0.0377,0.0332 -0.0388,0.0321 -0.0397,0.0308 -0.0407,0.0295 -0.0415,0.0283 -0.0425,0.0269 -0.0432,0.0256 -0.0441,0.0242 -0.0448,0.0228 -0.0454,0.0214 -0.0462,0.02 -0.0467,0.0185 -0.0473,0.017 -0.0478,0.0155 -0.0483,0.0141 -0.0486,0.0125 -0.0491,0.0109 -0.0494,0.0094 -0.0496,0.0079 -0.0499,0.0063 -0.05,0.0047 -0.0502,0.0032 -0.0502,0.0016 h -0.0503 l -0.0502,-0.0016 -0.0502,-0.0032 -0.05,-0.0047 -0.0499,-0.0063 -0.0496,-0.0079 -0.0494,-0.0094 -0.0491,-0.0109 -0.0487,-0.0125 -0.0482,-0.0141 -0.0478,-0.0155 -0.0473,-0.017 -0.0468,-0.0185 -0.0461,-0.02 -0.0455,-0.0214 -0.0447,-0.0228 -0.0441,-0.0242 -0.0433,-0.0256 -0.0424,-0.0269 -0.0416,-0.0283 -0.0406,-0.0295 -0.0397,-0.0308 -0.0388,-0.0321 -0.0377,-0.0332 -0.0366,-0.0344 -0.0356,-0.0356 -0.0344,-0.0366 -0.0332,-0.0377 -0.032,-0.0387 -0.0309,-0.0398 -0.0295,-0.0406 -0.0283,-0.0416 -0.0269,-0.0424 -0.0256,-0.0433 -0.0242,-0.044 -0.0228,-0.0448 -0.0214,-0.0455 -0.02,-0.0461 -0.0185,-0.0468 -0.017,-0.0473 -0.0155,-0.0478 -0.0141,-0.0482 -0.0125,-0.0487 -0.0109,-0.0491 -0.0094,-0.0493 -0.0079,-0.0497 -0.0063,-0.0499 -0.0047,-0.05 -0.0032,-0.0502 -0.0016,-0.0502 z"
     id="path9"
     style="fill:none;stroke:#ff0000" />
  <path
     d="m 31.811062,-78.978738 0.0016,-0.0502 0.0031,-0.0502 0.0047,-0.05 0.0063,-0.0499 0.0079,-0.0496 0.0094,-0.0494 0.011,-0.0491 0.0125,-0.0486 0.014,-0.0483 0.0155,-0.0478 0.0171,-0.0473 0.0185,-0.0467 0.0199,-0.0462 0.0214,-0.0454 0.0229,-0.0448 0.0242,-0.0441 0.0256,-0.0432 0.0269,-0.0425 0.0282,-0.0415 0.0296,-0.0407 0.0308,-0.0397 0.032,-0.0388 0.0333,-0.0377 0.0344,-0.0366 0.0355,-0.0355 0.0367,-0.0344 0.0377,-0.0333 0.0387,-0.032 0.0397,-0.0308 0.0407,-0.0296 0.0415,-0.0282 0.0425,-0.027 0.0432,-0.0255 0.0441,-0.0243 0.0448,-0.0228 0.0455,-0.0214 0.0461,-0.0199 0.0467,-0.0185 0.0473,-0.0171 0.0478,-0.0155 0.0483,-0.014 0.0487,-0.0125 0.049,-0.011 0.0494,-0.0094 0.0496,-0.0079 0.0499,-0.0063 0.05,-0.0047 0.0502,-0.0032 0.0502,-0.0015 h 0.0503 l 0.0502,0.0015 0.0502,0.0032 0.0501,0.0047 0.0498,0.0063 0.0497,0.0079 0.0493,0.0094 0.0491,0.011 0.0487,0.0125 0.0482,0.014 0.0478,0.0155 0.0473,0.0171 0.0468,0.0185 0.0461,0.0199 0.0455,0.0214 0.0448,0.0228 0.044,0.0242 0.0433,0.0256 0.0424,0.027 0.0416,0.0282 0.0406,0.0296 0.0398,0.0308 0.0387,0.032 0.0377,0.0333 0.0366,0.0344 0.0356,0.0355 0.0344,0.0366 0.0332,0.0377 0.0321,0.0388 0.0308,0.0397 0.0295,0.0407 0.0283,0.0415 0.0269,0.0425 0.0256,0.0432 0.0242,0.0441 0.0228,0.0448 0.0214,0.0454 0.02,0.0462 0.0185,0.0467 0.017,0.0473 0.0155,0.0478 0.0141,0.0483 0.0125,0.0486 0.0109,0.0491 0.0094,0.0494 0.0079,0.0496 0.0063,0.0499 0.0047,0.05 0.0032,0.0502 0.0016,0.0502 v 0.0503 l -0.0016,0.0502 -0.0032,0.0502 -0.0047,0.05 -0.0063,0.0499 -0.0079,0.0496 -0.0094,0.0494 -0.0109,0.0491 -0.0125,0.0487 -0.0141,0.0482 -0.0155,0.0478 -0.017,0.0473 -0.0185,0.0468 -0.02,0.0461 -0.0214,0.0455 -0.0228,0.0447 -0.0242,0.0441 -0.0256,0.0433 -0.0269,0.0424 -0.0283,0.0416 -0.0295,0.0406 -0.0308,0.0397 -0.0321,0.0388 -0.0332,0.0377 -0.0344,0.0366 -0.0356,0.0356 -0.0366,0.0344 -0.0377,0.0332 -0.0387,0.032 -0.0398,0.0309 -0.0406,0.0295 -0.0416,0.0283 -0.0424,0.0269 -0.0433,0.0256 -0.044,0.0242 -0.0448,0.0228 -0.0455,0.0214 -0.0461,0.02 -0.0468,0.0185 -0.0473,0.017 -0.0478,0.0155 -0.0482,0.0141 -0.0487,0.0125 -0.0491,0.0109 -0.0493,0.0094 -0.0497,0.0079 -0.0499,0.0063 -0.05,0.0047 -0.0502,0.0032 -0.0502,0.0016 h -0.0503 l -0.0502,-0.0016 -0.0502,-0.0032 -0.05,-0.0047 -0.0499,-0.0063 -0.0496,-0.0079 -0.0494,-0.0094 -0.049,-0.0109 -0.0487,-0.0125 -0.0483,-0.0141 -0.0478,-0.0155 -0.0473,-0.017 -0.0467,-0.0185 -0.0461,-0.02 -0.0455,-0.0214 -0.0448,-0.0228 -0.0441,-0.0242 -0.0432,-0.0256 -0.0425,-0.0269 -0.0415,-0.0283 -0.0407,-0.0295 -0.0397,-0.0309 -0.0387,-0.032 -0.0377,-0.0332 -0.0367,-0.0344 -0.0355,-0.0356 -0.0344,-0.0366 -0.0333,-0.0377 -0.032,-0.0388 -0.0308,-0.0397 -0.0296,-0.0406 -0.0282,-0.0416 -0.0269,-0.0424 -0.0256,-0.0433 -0.0242,-0.0441 -0.0229,-0.0447 -0.0214,-0.0455 -0.0199,-0.0461 -0.0185,-0.0468 -0.0171,-0.0473 -0.0155,-0.0478 -0.014,-0.0482 -0.0125,-0.0487 -0.011,-0.0491 -0.0094,-0.0494 -0.0079,-0.0496 -0.0063,-0.0499 -0.0047,-0.05 -0.0031,-0.0502 -0.0016,-0.0502 z"
     id="path8"
     style="fill:none;stroke:#ff0000" />
  <path
     d="m 31.811062,79.978862 v -0.0503 l 0.0016,-0.0502 0.0031,-0.0502 0.0047,-0.05 0.0063,-0.0499 0.0079,-0.0496 0.0094,-0.0494 0.011,-0.0491 0.0125,-0.0487 0.014,-0.0482 0.0155,-0.0478 0.0171,-0.0473 0.0185,-0.0468 0.0199,-0.0461 0.0214,-0.0455 0.0229,-0.0447 0.0242,-0.0441 0.0256,-0.0433 0.0269,-0.0424 0.0282,-0.0416 0.0296,-0.0406 0.0308,-0.0397 0.032,-0.0388 0.0333,-0.0377 0.0344,-0.0366 0.0355,-0.0356 0.0367,-0.0344 0.0377,-0.0332 0.0387,-0.032 0.0397,-0.0309 0.0407,-0.0295 0.0415,-0.0283 0.0425,-0.0269 0.0432,-0.0256 0.0441,-0.0242 0.0448,-0.0228 0.0455,-0.0214 0.0461,-0.02 0.0467,-0.0185 0.0473,-0.017 0.0478,-0.0155 0.0483,-0.0141 0.0487,-0.0125 0.049,-0.0109 0.0494,-0.0094 0.0496,-0.0079 0.0499,-0.0063 0.05,-0.0047 0.0502,-0.0032 0.0502,-0.0016 h 0.0503 l 0.0502,0.0016 0.0502,0.0032 0.05,0.0047 0.0499,0.0063 0.0497,0.0079 0.0493,0.0094 0.0491,0.0109 0.0487,0.0125 0.0482,0.0141 0.0478,0.0155 0.0473,0.017 0.0468,0.0185 0.0461,0.02 0.0455,0.0214 0.0448,0.0228 0.044,0.0242 0.0433,0.0256 0.0424,0.0269 0.0416,0.0283 0.0406,0.0295 0.0398,0.0309 0.0387,0.032 0.0377,0.0332 0.0366,0.0344 0.0356,0.0356 0.0344,0.0366 0.0332,0.0377 0.0321,0.0388 0.0308,0.0397 0.0295,0.0406 0.0283,0.0416 0.0269,0.0424 0.0256,0.0433 0.0242,0.0441 0.0228,0.0447 0.0214,0.0455 0.02,0.0461 0.0185,0.0468 0.017,0.0473 0.0155,0.0478 0.0141,0.0482 0.0125,0.0487 0.0109,0.0491 0.0094,0.0494 0.0079,0.0496 0.0063,0.0499 0.0047,0.05 0.0032,0.0502 0.0016,0.0502 v 0.0503 l -0.0016,0.0502 -0.0032,0.0502 -0.0047,0.05 -0.0063,0.0499 -0.0079,0.0496 -0.0094,0.0494 -0.0109,0.0491 -0.0125,0.0486 -0.0141,0.0483 -0.0155,0.0478 -0.017,0.0473 -0.0185,0.0467 -0.02,0.0462 -0.0214,0.0454 -0.0228,0.0448 -0.0242,0.0441 -0.0256,0.0432 -0.0269,0.0425 -0.0283,0.0415 -0.0295,0.0407 -0.0308,0.0397 -0.0321,0.0388 -0.0332,0.0377 -0.0344,0.0366 -0.0356,0.0355 -0.0366,0.0344 -0.0377,0.0333 -0.0387,0.032 -0.0398,0.0308 -0.0406,0.0296 -0.0416,0.0282 -0.0424,0.027 -0.0433,0.0256 -0.044,0.0242 -0.0448,0.0228 -0.0455,0.0214 -0.0461,0.0199 -0.0468,0.0185 -0.0473,0.0171 -0.0478,0.0155 -0.0482,0.014 -0.0487,0.0125 -0.0491,0.011 -0.0493,0.0094 -0.0497,0.0079 -0.0498,0.0063 -0.0501,0.0047 -0.0502,0.0032 -0.0502,0.0015 h -0.0503 l -0.0502,-0.0015 -0.0502,-0.0032 -0.05,-0.0047 -0.0499,-0.0063 -0.0496,-0.0079 -0.0494,-0.0094 -0.049,-0.011 -0.0487,-0.0125 -0.0483,-0.014 -0.0478,-0.0155 -0.0473,-0.0171 -0.0467,-0.0185 -0.0461,-0.0199 -0.0455,-0.0214 -0.0448,-0.0228 -0.0441,-0.0243 -0.0432,-0.0255 -0.0425,-0.027 -0.0415,-0.0282 -0.0407,-0.0296 -0.0397,-0.0308 -0.0387,-0.032 -0.0377,-0.0333 -0.0367,-0.0344 -0.0355,-0.0355 -0.0344,-0.0366 -0.0333,-0.0377 -0.032,-0.0388 -0.0308,-0.0397 -0.0296,-0.0407 -0.0282,-0.0415 -0.0269,-0.0425 -0.0256,-0.0432 -0.0242,-0.0441 -0.0229,-0.0448 -0.0214,-0.0454 -0.0199,-0.0462 -0.0185,-0.0467 -0.0171,-0.0473 -0.0155,-0.0478 -0.014,-0.0483 -0.0125,-0.0486 -0.011,-0.0491 -0.0094,-0.0494 -0.0079,-0.0496 -0.0063,-0.0499 -0.0047,-0.05 -0.0031,-0.0502 z"
     id="path7"
     style="fill:none;stroke:#ff0000" />
  <path
     d="m -34.010538,-78.928438 v -0.0503 l 0.0016,-0.0502 0.0032,-0.0502 0.0047,-0.05 0.0063,-0.0499 0.0079,-0.0496 0.0094,-0.0494 0.0109,-0.0491 0.0125,-0.0486 0.0141,-0.0483 0.0155,-0.0478 0.017,-0.0473 0.0185,-0.0467 0.02,-0.0462 0.0214,-0.0454 0.0228,-0.0448 0.0242,-0.0441 0.0256,-0.0432 0.0269,-0.0425 0.0283,-0.0415 0.0295,-0.0407 0.0308,-0.0397 0.0321,-0.0388 0.0332,-0.0377 0.0344,-0.0366 0.0356,-0.0355 0.0366,-0.0344 0.0377,-0.0333 0.0387,-0.032 0.0398,-0.0308 0.0406,-0.0296 0.0416,-0.0282 0.0424,-0.027 0.0433,-0.0256 0.044,-0.0242 0.0448,-0.0228 0.0455,-0.0214 0.0461,-0.0199 0.0468,-0.0185 0.0473,-0.0171 0.0478,-0.0155 0.0482,-0.014 0.0487,-0.0125 0.0491,-0.011 0.0493,-0.0094 0.0497,-0.0079 0.0498,-0.0063 0.0501,-0.0047 0.0502,-0.0032 0.0502,-0.0015 h 0.0503 l 0.0502,0.0015 0.0502,0.0032 0.05,0.0047 0.0499,0.0063 0.0496,0.0079 0.0494,0.0094 0.049,0.011 0.0487,0.0125 0.0483,0.014 0.0478,0.0155 0.0473,0.0171 0.0467,0.0185 0.0461,0.0199 0.0455,0.0214 0.0448,0.0228 0.0441,0.0243 0.0432,0.0255 0.0425,0.027 0.0415,0.0282 0.0407,0.0296 0.0397,0.0308 0.0387,0.032 0.0377,0.0333 0.0367,0.0344 0.0355,0.0355 0.0344,0.0366 0.0333,0.0377 0.032,0.0388 0.0308,0.0397 0.0296,0.0407 0.0282,0.0415 0.0269,0.0425 0.0256,0.0432 0.0242,0.0441 0.0229,0.0448 0.0214,0.0454 0.0199,0.0462 0.0185,0.0467 0.0171,0.0473 0.0155,0.0478 0.014,0.0483 0.0125,0.0486 0.011,0.0491 0.0094,0.0494 0.0079,0.0496 0.0063,0.0499 0.0047,0.05 0.0031,0.0502 0.0016,0.0502 v 0.0503 l -0.0016,0.0502 -0.0031,0.0502 -0.0047,0.05 -0.0063,0.0499 -0.0079,0.0496 -0.0094,0.0494 -0.011,0.0491 -0.0125,0.0487 -0.014,0.0482 -0.0155,0.0478 -0.0171,0.0473 -0.0185,0.0468 -0.0199,0.0461 -0.0214,0.0455 -0.0229,0.0447 -0.0242,0.0441 -0.0256,0.0433 -0.0269,0.0424 -0.0282,0.0416 -0.0296,0.0406 -0.0308,0.0397 -0.032,0.0388 -0.0333,0.0377 -0.0344,0.0366 -0.0355,0.0356 -0.0367,0.0344 -0.0377,0.0332 -0.0387,0.032 -0.0397,0.0309 -0.0407,0.0295 -0.0415,0.0283 -0.0425,0.0269 -0.0432,0.0256 -0.0441,0.0242 -0.0448,0.0228 -0.0455,0.0214 -0.0461,0.02 -0.0467,0.0185 -0.0473,0.017 -0.0478,0.0155 -0.0483,0.0141 -0.0487,0.0125 -0.049,0.0109 -0.0494,0.0094 -0.0496,0.0079 -0.0499,0.0063 -0.05,0.0047 -0.0502,0.0032 -0.0502,0.0016 h -0.0503 l -0.0502,-0.0016 -0.0502,-0.0032 -0.05,-0.0047 -0.0499,-0.0063 -0.0497,-0.0079 -0.0493,-0.0094 -0.0491,-0.0109 -0.0487,-0.0125 -0.0482,-0.0141 -0.0478,-0.0155 -0.0473,-0.017 -0.0468,-0.0185 -0.0461,-0.02 -0.0455,-0.0214 -0.0448,-0.0228 -0.044,-0.0242 -0.0433,-0.0256 -0.0424,-0.0269 -0.0416,-0.0283 -0.0406,-0.0295 -0.0398,-0.0309 -0.0387,-0.032 -0.0377,-0.0332 -0.0366,-0.0344 -0.0356,-0.0356 -0.0344,-0.0366 -0.0332,-0.0377 -0.0321,-0.0388 -0.0308,-0.0397 -0.0295,-0.0406 -0.0283,-0.0416 -0.0269,-0.0424 -0.0256,-0.0433 -0.0242,-0.0441 -0.0228,-0.0447 -0.0214,-0.0455 -0.02,-0.0461 -0.0185,-0.0468 -0.017,-0.0473 -0.0155,-0.0478 -0.0141,-0.0482 -0.0125,-0.0487 -0.0109,-0.0491 -0.0094,-0.0494 -0.0079,-0.0496 -0.0063,-0.0499 -0.0047,-0.05 -0.0032,-0.0502 z"
     id="path6"
     style="fill:none;stroke:#ff0000" />
  <path
     d="m -34.010538,79.928562 0.0016,-0.0502 0.0032,-0.0502 0.0047,-0.05 0.0063,-0.0499 0.0079,-0.0496 0.0094,-0.0494 0.0109,-0.0491 0.0125,-0.0487 0.0141,-0.0482 0.0155,-0.0478 0.017,-0.0473 0.0185,-0.0468 0.02,-0.0461 0.0214,-0.0455 0.0228,-0.0447 0.0242,-0.0441 0.0256,-0.0433 0.0269,-0.0424 0.0283,-0.0416 0.0295,-0.0406 0.0308,-0.0397 0.0321,-0.0388 0.0332,-0.0377 0.0344,-0.0366 0.0356,-0.0356 0.0366,-0.0344 0.0377,-0.0332 0.0387,-0.032 0.0398,-0.0309 0.0406,-0.0295 0.0416,-0.0283 0.0424,-0.0269 0.0433,-0.0256 0.044,-0.0242 0.0448,-0.0228 0.0455,-0.0214 0.0461,-0.02 0.0468,-0.0185 0.0473,-0.017 0.0478,-0.0155 0.0482,-0.0141 0.0487,-0.0125 0.0491,-0.0109 0.0493,-0.0094 0.0497,-0.0079 0.0499,-0.0063 0.05,-0.0047 0.0502,-0.0032 0.0502,-0.0016 h 0.0503 l 0.0502,0.0016 0.0502,0.0032 0.05,0.0047 0.0499,0.0063 0.0496,0.0079 0.0494,0.0094 0.049,0.0109 0.0487,0.0125 0.0483,0.0141 0.0478,0.0155 0.0473,0.017 0.0467,0.0185 0.0461,0.02 0.0455,0.0214 0.0448,0.0228 0.0441,0.0242 0.0432,0.0256 0.0425,0.0269 0.0415,0.0283 0.0407,0.0295 0.0397,0.0309 0.0387,0.032 0.0377,0.0332 0.0367,0.0344 0.0355,0.0356 0.0344,0.0366 0.0333,0.0377 0.032,0.0388 0.0308,0.0397 0.0296,0.0406 0.0282,0.0416 0.0269,0.0424 0.0256,0.0433 0.0242,0.0441 0.0229,0.0447 0.0214,0.0455 0.0199,0.0461 0.0185,0.0468 0.0171,0.0473 0.0155,0.0478 0.014,0.0482 0.0125,0.0487 0.011,0.0491 0.0094,0.0494 0.0079,0.0496 0.0063,0.0499 0.0047,0.05 0.0031,0.0502 0.0016,0.0502 v 0.0503 l -0.0016,0.0502 -0.0031,0.0502 -0.0047,0.05 -0.0063,0.0499 -0.0079,0.0496 -0.0094,0.0494 -0.011,0.0491 -0.0125,0.0486 -0.014,0.0483 -0.0155,0.0478 -0.0171,0.0473 -0.0185,0.0467 -0.0199,0.0462 -0.0214,0.0454 -0.0229,0.0448 -0.0242,0.0441 -0.0256,0.0432 -0.0269,0.0425 -0.0282,0.0415 -0.0296,0.0407 -0.0308,0.0397 -0.032,0.0388 -0.0333,0.0377 -0.0344,0.0366 -0.0355,0.0355 -0.0367,0.0344 -0.0377,0.0333 -0.0387,0.032 -0.0397,0.0308 -0.0407,0.0296 -0.0415,0.0282 -0.0425,0.027 -0.0432,0.0255 -0.0441,0.0243 -0.0448,0.0228 -0.0455,0.0214 -0.0461,0.0199 -0.0467,0.0185 -0.0473,0.0171 -0.0478,0.0155 -0.0483,0.014 -0.0487,0.0125 -0.049,0.011 -0.0494,0.0094 -0.0496,0.0079 -0.0499,0.0063 -0.05,0.0047 -0.0502,0.0032 -0.0502,0.0015 h -0.0503 l -0.0502,-0.0015 -0.0502,-0.0032 -0.0501,-0.0047 -0.0498,-0.0063 -0.0497,-0.0079 -0.0493,-0.0094 -0.0491,-0.011 -0.0487,-0.0125 -0.0482,-0.014 -0.0478,-0.0155 -0.0473,-0.0171 -0.0468,-0.0185 -0.0461,-0.0199 -0.0455,-0.0214 -0.0448,-0.0228 -0.044,-0.0242 -0.0433,-0.0256 -0.0424,-0.027 -0.0416,-0.0282 -0.0406,-0.0296 -0.0398,-0.0308 -0.0387,-0.032 -0.0377,-0.0333 -0.0366,-0.0344 -0.0356,-0.0355 -0.0344,-0.0366 -0.0332,-0.0377 -0.0321,-0.0388 -0.0308,-0.0397 -0.0295,-0.0407 -0.0283,-0.0415 -0.0269,-0.0425 -0.0256,-0.0432 -0.0242,-0.0441 -0.0228,-0.0448 -0.0214,-0.0454 -0.02,-0.0462 -0.0185,-0.0467 -0.017,-0.0473 -0.0155,-0.0478 -0.0141,-0.0483 -0.0125,-0.0486 -0.0109,-0.0491 -0.0094,-0.0494 -0.0079,-0.0496 -0.0063,-0.0499 -0.0047,-0.05 -0.0032,-0.0502 -0.0016,-0.0502 z"
     id="path5"
     style="fill:none;stroke:#ff0000" />
  <path
     d="m -80.553338,-32.435838 0.0015,-0.0502 0.0032,-0.0502 0.0047,-0.0501 0.0063,-0.0498 0.0079,-0.0497 0.0094,-0.0493 0.011,-0.0491 0.0125,-0.0487 0.014,-0.0482 0.0155,-0.0478 0.0171,-0.0473 0.0185,-0.0468 0.0199,-0.0461 0.0214,-0.0455 0.0228,-0.0448 0.0242,-0.044 0.0256,-0.0433 0.027,-0.0424 0.0282,-0.0416 0.0296,-0.0406 0.0308,-0.0398 0.032,-0.0387 0.0333,-0.0377 0.0344,-0.0366 0.0355,-0.0356 0.0366,-0.0344 0.0377,-0.0332 0.0388,-0.0321 0.0397,-0.0308 0.0407,-0.0295 0.0415,-0.0283 0.0425,-0.0269 0.0432,-0.0256 0.0441,-0.0242 0.0448,-0.0228 0.0454,-0.0214 0.0462,-0.02 0.0467,-0.0185 0.0473,-0.017 0.0478,-0.0155 0.0483,-0.0141 0.0486,-0.0125 0.0491,-0.0109 0.0494,-0.0094 0.0496,-0.0079 0.0499,-0.0063 0.05,-0.0047 0.0502,-0.0032 0.0502,-0.0016 h 0.0503 l 0.0502,0.0016 0.0502,0.0032 0.05,0.0047 0.0499,0.0063 0.0496,0.0079 0.0494,0.0094 0.0491,0.0109 0.0487,0.0125 0.0482,0.0141 0.0478,0.0155 0.0473,0.017 0.0468,0.0185 0.0461,0.02 0.0455,0.0214 0.0447,0.0228 0.0441,0.0242 0.0433,0.0256 0.0424,0.0269 0.0416,0.0283 0.0406,0.0295 0.0397,0.0308 0.0388,0.0321 0.0377,0.0332 0.0366,0.0344 0.0356,0.0356 0.0344,0.0366 0.0332,0.0377 0.032,0.0387 0.0309,0.0398 0.0295,0.0406 0.0283,0.0416 0.0269,0.0424 0.0256,0.0433 0.0242,0.044 0.0228,0.0448 0.0214,0.0455 0.02,0.0461 0.0185,0.0468 0.017,0.0473 0.0155,0.0478 0.0141,0.0482 0.0125,0.0487 0.0109,0.0491 0.0094,0.0493 0.0079,0.0497 0.0063,0.0499 0.0047,0.05 0.0032,0.0502 0.0016,0.0502 v 0.0503 l -0.0016,0.0502 -0.0032,0.0502 -0.0047,0.05 -0.0063,0.0499 -0.0079,0.0496 -0.0094,0.0494 -0.0109,0.049 -0.0125,0.0487 -0.0141,0.0483 -0.0155,0.0478 -0.017,0.0473 -0.0185,0.0467 -0.02,0.0461 -0.0214,0.0455 -0.0228,0.0448 -0.0242,0.0441 -0.0256,0.0432 -0.0269,0.0425 -0.0283,0.0415 -0.0295,0.0407 -0.0309,0.0397 -0.032,0.0387 -0.0332,0.0377 -0.0344,0.0367 -0.0356,0.0355 -0.0366,0.0344 -0.0377,0.0333 -0.0388,0.032 -0.0397,0.0308 -0.0406,0.0296 -0.0416,0.0282 -0.0424,0.0269 -0.0433,0.0256 -0.0441,0.0242 -0.0447,0.0229 -0.0455,0.0214 -0.0461,0.0199 -0.0468,0.0185 -0.0473,0.0171 -0.0478,0.0155 -0.0482,0.014 -0.0487,0.0125 -0.0491,0.011 -0.0494,0.0094 -0.0496,0.0079 -0.0499,0.0063 -0.05,0.0047 -0.0502,0.0031 -0.0502,0.0016 h -0.0503 l -0.0502,-0.0016 -0.0502,-0.0031 -0.05,-0.0047 -0.0499,-0.0063 -0.0496,-0.0079 -0.0494,-0.0094 -0.0491,-0.011 -0.0486,-0.0125 -0.0483,-0.014 -0.0478,-0.0155 -0.0473,-0.0171 -0.0467,-0.0185 -0.0462,-0.0199 -0.0454,-0.0214 -0.0448,-0.0229 -0.0441,-0.0242 -0.0432,-0.0256 -0.0425,-0.0269 -0.0415,-0.0282 -0.0407,-0.0296 -0.0397,-0.0308 -0.0388,-0.032 -0.0377,-0.0333 -0.0366,-0.0344 -0.0355,-0.0355 -0.0344,-0.0367 -0.0333,-0.0377 -0.032,-0.0387 -0.0308,-0.0397 -0.0296,-0.0407 -0.0282,-0.0415 -0.027,-0.0425 -0.0255,-0.0432 -0.0243,-0.0441 -0.0228,-0.0448 -0.0214,-0.0455 -0.0199,-0.0461 -0.0185,-0.0467 -0.0171,-0.0473 -0.0155,-0.0478 -0.014,-0.0483 -0.0125,-0.0487 -0.011,-0.049 -0.0094,-0.0494 -0.0079,-0.0496 -0.0063,-0.0499 -0.0047,-0.05 -0.0032,-0.0502 -0.0015,-0.0502 z"
     id="path4"
     style="fill:none;stroke:#ff0000" />
  <path
     d="m -80.553338,33.435962 v -0.0503 l 0.0015,-0.0502 0.0032,-0.0502 0.0047,-0.05 0.0063,-0.0499 0.0079,-0.0496 0.0094,-0.0494 0.011,-0.049 0.0125,-0.0487 0.014,-0.0483 0.0155,-0.0478 0.0171,-0.0473 0.0185,-0.0467 0.0199,-0.0461 0.0214,-0.0455 0.0228,-0.0448 0.0243,-0.0441 0.0255,-0.0432 0.027,-0.0425 0.0282,-0.0415 0.0296,-0.0407 0.0308,-0.0397 0.032,-0.0387 0.0333,-0.0377 0.0344,-0.0367 0.0355,-0.0355 0.0366,-0.0344 0.0377,-0.0333 0.0388,-0.032 0.0397,-0.0308 0.0407,-0.0296 0.0415,-0.0282 0.0425,-0.0269 0.0432,-0.0256 0.0441,-0.0242 0.0448,-0.0229 0.0454,-0.0214 0.0462,-0.0199 0.0467,-0.0185 0.0473,-0.0171 0.0478,-0.0155 0.0483,-0.014 0.0486,-0.0125 0.0491,-0.011 0.0494,-0.0094 0.0496,-0.0079 0.0499,-0.0063 0.05,-0.0047 0.0502,-0.0031 0.0502,-0.0016 h 0.0503 l 0.0502,0.0016 0.0502,0.0031 0.05,0.0047 0.0499,0.0063 0.0496,0.0079 0.0494,0.0094 0.0491,0.011 0.0487,0.0125 0.0482,0.014 0.0478,0.0155 0.0473,0.0171 0.0468,0.0185 0.0461,0.0199 0.0455,0.0214 0.0447,0.0229 0.0441,0.0242 0.0433,0.0256 0.0424,0.0269 0.0416,0.0282 0.0406,0.0296 0.0397,0.0308 0.0388,0.032 0.0377,0.0333 0.0366,0.0344 0.0356,0.0355 0.0344,0.0367 0.0332,0.0377 0.032,0.0387 0.0309,0.0397 0.0295,0.0407 0.0283,0.0415 0.0269,0.0425 0.0256,0.0432 0.0242,0.0441 0.0228,0.0448 0.0214,0.0455 0.02,0.0461 0.0185,0.0467 0.017,0.0473 0.0155,0.0478 0.0141,0.0483 0.0125,0.0487 0.0109,0.049 0.0094,0.0494 0.0079,0.0496 0.0063,0.0499 0.0047,0.05 0.0032,0.0502 0.0016,0.0502 v 0.0503 l -0.0016,0.0502 -0.0032,0.0502 -0.0047,0.05 -0.0063,0.0499 -0.0079,0.0497 -0.0094,0.0493 -0.0109,0.0491 -0.0125,0.0487 -0.0141,0.0482 -0.0155,0.0478 -0.017,0.0473 -0.0185,0.0468 -0.02,0.0461 -0.0214,0.0455 -0.0228,0.0448 -0.0242,0.044 -0.0256,0.0433 -0.0269,0.0424 -0.0283,0.0416 -0.0295,0.0406 -0.0309,0.0398 -0.032,0.0387 -0.0332,0.0377 -0.0344,0.0366 -0.0356,0.0356 -0.0366,0.0344 -0.0377,0.0332 -0.0388,0.0321 -0.0397,0.0308 -0.0406,0.0295 -0.0416,0.0283 -0.0424,0.0269 -0.0433,0.0256 -0.0441,0.0242 -0.0447,0.0228 -0.0455,0.0214 -0.0461,0.02 -0.0468,0.0185 -0.0473,0.017 -0.0478,0.0155 -0.0482,0.0141 -0.0487,0.0125 -0.0491,0.0109 -0.0494,0.0094 -0.0496,0.0079 -0.0499,0.0063 -0.05,0.0047 -0.0502,0.0032 -0.0502,0.0016 h -0.0503 l -0.0502,-0.0016 -0.0502,-0.0032 -0.05,-0.0047 -0.0499,-0.0063 -0.0496,-0.0079 -0.0494,-0.0094 -0.0491,-0.0109 -0.0486,-0.0125 -0.0483,-0.0141 -0.0478,-0.0155 -0.0473,-0.017 -0.0467,-0.0185 -0.0462,-0.02 -0.0454,-0.0214 -0.0448,-0.0228 -0.0441,-0.0242 -0.0432,-0.0256 -0.0425,-0.0269 -0.0415,-0.0283 -0.0407,-0.0295 -0.0397,-0.0308 -0.0388,-0.0321 -0.0377,-0.0332 -0.0366,-0.0344 -0.0355,-0.0356 -0.0344,-0.0366 -0.0333,-0.0377 -0.032,-0.0387 -0.0308,-0.0398 -0.0296,-0.0406 -0.0282,-0.0416 -0.027,-0.0424 -0.0256,-0.0433 -0.0242,-0.044 -0.0228,-0.0448 -0.0214,-0.0455 -0.0199,-0.0461 -0.0185,-0.0468 -0.0171,-0.0473 -0.0155,-0.0478 -0.014,-0.0482 -0.0125,-0.0487 -0.011,-0.0491 -0.0094,-0.0493 -0.0079,-0.0497 -0.0063,-0.0498 -0.0047,-0.0501 -0.0032,-0.0502 z"
     id="path3"
     style="fill:none;stroke:#ff0000" />
  <path
     d="m -89.499938,0.50006166 0.0444,2.82697004 0.1332,2.82418 0.2218,2.8186 0.3103,2.8102503 0.3983,2.7991 0.4861,2.7852 0.5734,2.7686 0.66,2.7492 0.7461,2.7271 0.8313,2.7023 0.9158,2.6749 0.9994,2.6448 1.082,2.6121 1.1635,2.5768 1.2438,2.539 1.323,2.4987 1.4008,2.4559 1.4773,2.4107 1.5522,2.3631 1.6258,2.3132 1.6975,2.2609 1.7678,2.2066 1.8362,2.1499 1.9028,2.0911 1.9676,2.0304 2.0304,1.9676 2.0911,1.9028 2.1499,1.8362 2.2066,1.7678 2.2609,1.6975 2.3132,1.6258 2.3631,1.5522 2.4107,1.4773 2.4559,1.4008 2.4987,1.323 2.539,1.2438 2.5768,1.1635 2.6121,1.082 2.6448,0.9994 2.6749,0.9158 2.7023,0.8313 2.7271,0.7461 2.7492,0.66 2.7686,0.5734 2.7852,0.4861 2.7991,0.3983 2.8102497,0.3103 2.8186,0.2218 2.82418,0.1332 2.82696996,0.0444 2.82697004,-0.0444 2.82418,-0.1332 2.8186,-0.2218 2.8102503,-0.3103 2.7991,-0.3983 2.7852,-0.4861 2.7686,-0.5734 2.7492,-0.66 2.7271,-0.7461 2.7023,-0.8313 2.6749,-0.9158 2.6448,-0.9994 2.6121,-1.082 2.5768,-1.1635 2.539,-1.2438 2.4987,-1.323 2.4559,-1.4008 2.4107,-1.4773 2.3631,-1.5522 2.3132,-1.6258 2.2609,-1.6975 2.2066,-1.7678 2.1499,-1.8362 2.0911,-1.9028 2.0304,-1.9676 1.9676,-2.0304 1.9028,-2.0911 1.8362,-2.1499 1.7678,-2.2066 1.6975,-2.2609 1.6258,-2.3132 1.5522,-2.3631 1.4773,-2.4107 1.4008,-2.4559 1.323,-2.4987 1.2438,-2.539 1.1635,-2.5768 1.082,-2.6121 0.9994,-2.6448 0.9158,-2.6749 0.8313,-2.7023 0.7461,-2.7271 0.66,-2.7492 0.5734,-2.7686 0.4861,-2.7852 0.3983,-2.7991 0.3103,-2.8102503 0.2218,-2.8186 0.1332,-2.82418 0.0444,-2.82697004 -0.0444,-2.82696996 -0.1332,-2.82418 -0.2218,-2.8186 -0.3103,-2.8102497 -0.3983,-2.7991 -0.4861,-2.7852 -0.5734,-2.7686 -0.66,-2.7492 -0.7461,-2.7271 -0.8313,-2.7023 -0.9158,-2.6749 -0.9994,-2.6448 -1.082,-2.6121 -1.1635,-2.5768 -1.2438,-2.539 -1.323,-2.4987 -1.4008,-2.4559 -1.4773,-2.4107 -1.5522,-2.3631 -1.6258,-2.3132 -1.6975,-2.2609 -1.7678,-2.2066 -1.8362,-2.1499 -1.9028,-2.0911 -1.9676,-2.0304 -2.0304,-1.9676 -2.0911,-1.9028 -2.1499,-1.8362 -2.2066,-1.7678 -2.2609,-1.6975 -2.3132,-1.6258 -2.3631,-1.5522 -2.4107,-1.4773 -2.4559,-1.4008 -2.4987,-1.323 -2.539,-1.2438 -2.5768,-1.1635 -2.6121,-1.082 -2.6448,-0.9994 -2.6749,-0.9158 -2.7023,-0.8313 -2.7271,-0.7461 -2.7492,-0.66 -2.7686,-0.5734 -2.7852,-0.4861 -2.7991,-0.3983 -2.8102503,-0.3103 -2.8186,-0.2218 -2.82418,-0.1332 -2.82697004,-0.0444 -2.82696996,0.0444 -2.82418,0.1332 -2.8186,0.2218 -2.8102497,0.3103 -2.7991,0.3983 -2.7852,0.4861 -2.7686,0.5734 -2.7492,0.66 -2.7271,0.7461 -2.7023,0.8313 -2.6749,0.9158 -2.6448,0.9994 -2.6121,1.082 -2.5768,1.1635 -2.539,1.2438 -2.4987,1.323 -2.4559,1.4008 -2.4107,1.4773 -2.3631,1.5522 -2.3132,1.6258 -2.2609,1.6975 -2.2066,1.7678 -2.1499,1.8362 -2.0911,1.9028 -2.0304,1.9676 -1.9676,2.0304 -1.9028,2.0911 -1.8362,2.1499 -1.7678,2.2066 -1.6975,2.2609 -1.6258,2.3132 -1.5522,2.3631 -1.4773,2.4107 -1.4008,2.4559 -1.323,2.4987 -1.2438,2.539 -1.1635,2.5768 -1.082,2.6121 -0.9994,2.6448 -0.9158,2.6749 -0.8313,2.7023 -0.7461,2.7271 -0.66,2.7492 -0.5734,2.7686 -0.4861,2.7852 -0.3983,2.7991 -0.3103,2.8102497 -0.2218,2.8186 -0.1332,2.82418 z"
     id="path1"
     style="fill:none;stroke:#0000ff" />
  <metadata
     id="metadata1">
    <rdf:RDF>
      <cc:Work
         rdf:about="">
        <dc:title>OpenSCAD Model</dc:title>
      </cc:Work>
    </rdf:RDF>
  </metadata>
</svg>
