{"scene":0,"asset":{"generator":"ImageToStl.com","version":"2.0"},"scenes":[{"name":"Scene","nodes":[0]}],"nodes":[{"name":"Node0","children":[1]},{"name":"Node1","mesh":0}],"materials":[{"pbrMetallicRoughness":{"baseColorFactor":[0.0,0.5019608,0.0,1.0],"metallicFactor":0.0,"roughnessFactor":1.0},"doubleSided":true},{"pbrMetallicRoughness":{"baseColorFactor":[1.0,0.0,0.0,1.0],"metallicFactor":0.0,"roughnessFactor":1.0},"doubleSided":true},{"pbrMetallicRoughness":{"baseColorFactor":[1.0,1.0,1.0,1.0],"metallicFactor":0.0,"roughnessFactor":1.0},"doubleSided":true}],"meshes":[{"name":"Mesh0","primitives":[{"indices":1,"material":0,"attributes":{"POSITION":0}},{"indices":2,"material":1,"attributes":{"POSITION":0}},{"indices":3,"material":2,"attributes":{"POSITION":0}}]}],"accessors":[{"bufferView":0,"componentType":5126,"count":3676,"type":"VEC3","min":[-15.0,-6.59615,0.0],"max":[15.0,6.59615,30.0]},{"bufferView":1,"componentType":5123,"count":5673,"type":"SCALAR"},{"bufferView":2,"componentType":5123,"count":8109,"type":"SCALAR"},{"bufferView":3,"componentType":5123,"count":8334,"type":"SCALAR"}],"bufferViews":[{"target":34962,"buffer":0,"byteLength":44112,"byteOffset":0},{"target":34963,"buffer":0,"byteLength":11346,"byteOffset":44112},{"target":34963,"buffer":0,"byteLength":16218,"byteOffset":55460},{"target":34963,"buffer":0,"byteLength":16668,"byteOffset":71680}],"buffers":[{"byteLength":88348,"uri":"data:application/octet-stream;base64,"}]}